<?xml version="1.0" encoding="utf-8"?>
<!-- Generator: Adobe Illustrator 24.2.1, SVG Export Plug-In . SVG Version: 6.00 Build 0)  -->
<!DOCTYPE svg PUBLIC "-//W3C//DTD SVG 1.1//EN" "http://www.w3.org/Graphics/SVG/1.1/DTD/svg11.dtd" [
	<!ENTITY ns_extend "http://ns.adobe.com/Extensibility/1.0/">
	<!ENTITY ns_ai "http://ns.adobe.com/AdobeIllustrator/10.0/">
	<!ENTITY ns_graphs "http://ns.adobe.com/Graphs/1.0/">
	<!ENTITY ns_vars "http://ns.adobe.com/Variables/1.0/">
	<!ENTITY ns_imrep "http://ns.adobe.com/ImageReplacement/1.0/">
	<!ENTITY ns_sfw "http://ns.adobe.com/SaveForWeb/1.0/">
	<!ENTITY ns_custom "http://ns.adobe.com/GenericCustomNamespace/1.0/">
	<!ENTITY ns_adobe_xpath "http://ns.adobe.com/XPath/1.0/">
]>
<svg version="1.1" id="Capa_3" xmlns:x="&ns_extend;" xmlns:i="&ns_ai;" xmlns:graph="&ns_graphs;"
	 xmlns="http://www.w3.org/2000/svg" xmlns:xlink="http://www.w3.org/1999/xlink" x="0px" y="0px" width="240px" height="67px"
	 viewBox="0 0 240 67" style="enable-background:new 0 0 240 67;" xml:space="preserve">
<style type="text/css">
	.st0{fill:#FFFFFF;}
	.st1{fill:#192125;}
	.st2{fill:#FAA61A;}
</style>
<metadata>
	<sfw  xmlns="&ns_sfw;">
		<slices></slices>
		<sliceSourceBounds  bottomLeftOrigin="true" height="57.93" width="236.94" x="-118.45" y="-27.81"></sliceSourceBounds>
	</sfw>
</metadata>
<g>
	<path class="st0" d="M81.84,30.32c2,0,3.56-0.3,4.74-0.96c0.59-0.37,1.04-0.74,1.33-1.26c0.3-0.52,0.44-1.04,0.44-1.71
		c0-0.59-0.07-1.11-0.3-1.63c-0.22-0.52-0.52-0.89-0.89-1.26s-0.89-0.67-1.48-0.82c-0.59-0.22-1.19-0.3-1.93-0.3v-0.07
		c2.22-0.59,3.26-1.71,3.26-3.26c0-1.19-0.52-2.08-1.56-2.67s-2.52-0.96-4.45-0.96h-6.15v0.74c0.37,0,0.59,0.07,0.82,0.15
		c0.22,0.07,0.37,0.15,0.52,0.3c0.15,0.15,0.22,0.37,0.22,0.67c0.07,0.3,0.07,0.67,0.07,1.11v8.9c0,0.44,0,0.82-0.07,1.11
		s-0.15,0.52-0.3,0.67c-0.15,0.15-0.37,0.3-0.59,0.3c-0.22,0-0.59,0.07-1.04,0.15v0.74h7.34V30.32z M80.44,21.95h-1.11v-4.97
		c0-0.22,0.15-0.3,0.37-0.3h1.33c1.04,0,1.78,0.22,2.22,0.59c0.44,0.44,0.67,1.11,0.67,2s-0.3,1.56-0.89,2
		c-0.3,0.22-0.67,0.37-1.11,0.44C81.47,21.87,81.03,21.95,80.44,21.95z M81.99,29.14c-0.96,0-1.63-0.15-2.08-0.52
		c-0.44-0.37-0.59-0.89-0.59-1.71v-3.85h0.89c0.89,0,1.63,0.07,2.22,0.15c0.59,0.15,1.11,0.3,1.48,0.59
		c0.74,0.52,1.11,1.33,1.11,2.52C85.03,28.25,83.99,29.14,81.99,29.14z M98.52,30.55c0.44,0,0.89-0.07,1.26-0.3
		c0.37-0.22,0.67-0.44,0.82-0.74l-0.3-0.59c-0.22,0.15-0.44,0.22-0.67,0.22c-0.44,0-0.67-0.52-0.67-1.63v-4.23
		c0-1.19-0.3-2.08-0.89-2.59c-0.59-0.52-1.63-0.82-3.11-0.82c-1.33,0-2.37,0.15-3.04,0.52c-0.67,0.37-1.04,0.82-1.04,1.48
		c0,0.37,0.07,0.74,0.3,0.89c0.22,0.15,0.44,0.3,0.82,0.3s0.67-0.07,0.89-0.3c0.22-0.15,0.37-0.44,0.52-0.74
		c0.15-0.44,0.37-0.82,0.52-0.96c0.22-0.22,0.44-0.3,0.82-0.3c0.52,0,0.96,0.15,1.26,0.52c0.3,0.37,0.37,0.89,0.37,1.63v0.82
		l-2.74,1.19c-1.19,0.44-2,0.96-2.52,1.48c-0.52,0.52-0.74,1.04-0.74,1.56c0,0.74,0.22,1.33,0.74,1.78s1.11,0.67,1.93,0.67
		c0.74,0,1.41-0.15,2-0.52c0.59-0.37,1.04-0.89,1.41-1.56h0.07c0,0.67,0.15,1.19,0.44,1.56C97.49,30.32,97.93,30.55,98.52,30.55z
		 M94.3,28.69c-0.3,0-0.59-0.07-0.74-0.3c-0.22-0.22-0.3-0.52-0.3-0.89c0-0.44,0.3-0.89,0.82-1.33s1.33-0.89,2.45-1.33v1.85
		c0,0.3-0.07,0.52-0.15,0.82c-0.07,0.22-0.3,0.44-0.44,0.67c-0.22,0.15-0.44,0.3-0.67,0.44C94.89,28.62,94.59,28.69,94.3,28.69z
		 M108.61,30.32v-0.74c-0.44,0-0.82,0-1.11-0.07c-0.3-0.07-0.44-0.15-0.59-0.3s-0.22-0.37-0.3-0.67c-0.07-0.3-0.07-0.67-0.07-1.19
		v-0.89c0-0.44,0-0.96,0.07-1.41c0.07-0.52,0.15-0.89,0.22-1.33c0.15-0.52,0.3-0.96,0.52-1.26c0.22-0.3,0.44-0.44,0.67-0.44
		c0.15,0,0.22,0.07,0.37,0.15c0.15,0.07,0.22,0.15,0.37,0.3c0.15,0.07,0.3,0.15,0.44,0.3c0.15,0.07,0.3,0.15,0.52,0.15
		c0.44,0,0.74-0.15,0.96-0.44c0.22-0.3,0.37-0.59,0.37-1.04c0-0.37-0.15-0.67-0.44-0.89c-0.3-0.22-0.74-0.37-1.19-0.37
		c-0.59,0-1.26,0.22-1.78,0.59c-0.59,0.37-1.04,0.96-1.33,1.63h-0.07l-0.3-2.22l-3.85,0.74v0.67c0.37,0,0.67,0.07,0.96,0.15
		c0.3,0.07,0.44,0.22,0.52,0.52c0.15,0.22,0.22,0.59,0.22,1.11c0.07,0.44,0.07,1.11,0.07,1.93v2.37c0,0.52,0,0.89-0.07,1.19
		c-0.07,0.3-0.07,0.52-0.22,0.67c-0.15,0.15-0.3,0.22-0.52,0.3c-0.22,0.07-0.52,0.07-0.89,0.15v0.74h6.45V30.32z M117.8,30.4
		c0.82,0,1.63-0.15,2.37-0.44c0.74-0.3,1.33-0.74,1.85-1.26l-0.52-0.74c-0.44,0.37-0.96,0.67-1.48,0.89
		c-0.52,0.22-1.04,0.3-1.56,0.3c-0.89,0-1.63-0.37-2.15-1.11s-0.74-1.78-0.74-3.11c0-1.26,0.22-2.22,0.59-2.89
		c0.44-0.67,0.96-1.04,1.71-1.04c0.15,0,0.3,0,0.44,0.07c0.15,0,0.22,0.07,0.37,0.22c0.15,0.15,0.22,0.22,0.37,0.44
		c0.15,0.15,0.3,0.44,0.52,0.74c0.22,0.37,0.44,0.59,0.67,0.74c0.22,0.15,0.52,0.22,0.82,0.22c0.37,0,0.67-0.07,0.89-0.3
		c0.22-0.22,0.3-0.52,0.3-0.89c0-0.3-0.07-0.59-0.3-0.89c-0.22-0.3-0.52-0.52-0.82-0.74c-0.37-0.22-0.74-0.37-1.26-0.52
		c-0.52-0.15-1.04-0.15-1.63-0.15c-0.82,0-1.56,0.15-2.22,0.37c-0.67,0.22-1.26,0.59-1.78,1.11c-0.52,0.44-0.89,1.04-1.11,1.71
		c-0.3,0.67-0.37,1.41-0.37,2.15s0.15,1.48,0.37,2.08c0.22,0.67,0.59,1.19,1.04,1.63c0.44,0.44,1.04,0.82,1.63,1.04
		C116.32,30.32,116.98,30.4,117.8,30.4z M129.44,30.55c1.78,0,3.19-0.67,4.37-2l-0.52-0.67c-0.52,0.44-1.04,0.82-1.56,1.04
		c-0.52,0.22-1.04,0.37-1.63,0.37c-0.96,0-1.71-0.37-2.22-1.11c-0.52-0.74-0.82-1.71-0.82-2.97c0-0.3,0-0.52,0.07-0.67h6.23
		c0.3,0,0.44,0,0.52-0.07s0.07-0.15,0.07-0.37c0-1.33-0.37-2.37-1.11-3.11c-0.74-0.74-1.85-1.11-3.19-1.11
		c-0.82,0-1.56,0.15-2.22,0.37c-0.67,0.3-1.26,0.67-1.78,1.11c-0.52,0.44-0.89,1.04-1.11,1.71c-0.3,0.67-0.37,1.41-0.37,2.22
		c0,0.74,0.15,1.48,0.37,2.08c0.22,0.59,0.59,1.19,1.11,1.63c0.44,0.44,1.04,0.82,1.63,1.04C127.88,30.4,128.62,30.55,129.44,30.55z
		 M130.03,23.43h-2.82c0.15-0.74,0.44-1.26,0.82-1.78c0.44-0.44,0.89-0.67,1.48-0.67c0.52,0,0.89,0.15,1.19,0.52
		c0.3,0.37,0.44,0.82,0.44,1.41c0,0.22-0.07,0.37-0.22,0.44C130.92,23.43,130.55,23.43,130.03,23.43z M141.82,30.32v-0.74
		c-0.37,0-0.67-0.07-0.89-0.07c-0.22-0.07-0.37-0.15-0.52-0.37c-0.15-0.15-0.22-0.37-0.22-0.74c-0.07-0.3-0.07-0.74-0.07-1.26V14.31
		l-4.45,0.74v0.67c0.59,0,0.96,0.07,1.26,0.15c0.22,0.07,0.37,0.3,0.44,0.67c0.07,0.15,0.07,0.52,0.07,0.96s0.07,1.11,0.07,1.85
		v7.93c0,0.44,0,0.82-0.07,1.11s-0.15,0.52-0.22,0.67c-0.15,0.15-0.3,0.3-0.52,0.37c-0.22,0.07-0.52,0.15-0.89,0.15v0.74H141.82z
		 M149.23,30.55c0.74,0,1.48-0.15,2.22-0.37c0.67-0.3,1.26-0.67,1.78-1.11s0.96-1.04,1.26-1.71c0.3-0.67,0.44-1.41,0.44-2.15
		c0-0.74-0.15-1.48-0.44-2.08c-0.3-0.67-0.74-1.19-1.26-1.63s-1.11-0.82-1.78-1.11c-0.67-0.3-1.41-0.37-2.22-0.37
		c-0.74,0-1.48,0.15-2.15,0.37c-0.67,0.22-1.26,0.59-1.78,1.11c-0.52,0.44-0.89,1.04-1.19,1.63c-0.3,0.67-0.44,1.33-0.44,2.08
		c0,0.82,0.15,1.48,0.44,2.15c0.3,0.67,0.67,1.26,1.19,1.71c0.52,0.44,1.11,0.82,1.78,1.11C147.75,30.4,148.49,30.55,149.23,30.55z
		 M149.23,29.36c-0.37,0-0.74-0.07-1.04-0.3c-0.3-0.22-0.59-0.44-0.82-0.82c-0.22-0.37-0.37-0.82-0.52-1.33
		c-0.15-0.52-0.15-1.11-0.15-1.71c0-0.59,0.07-1.19,0.15-1.71c0.15-0.52,0.3-0.96,0.52-1.33c0.22-0.37,0.52-0.67,0.82-0.82
		c0.3-0.22,0.67-0.3,1.04-0.3c0.37,0,0.74,0.07,1.11,0.3c0.3,0.22,0.59,0.52,0.82,0.82c0.22,0.3,0.44,0.82,0.52,1.33
		c0.15,0.52,0.22,1.04,0.22,1.71c0,0.59-0.07,1.19-0.22,1.71c-0.15,0.52-0.3,0.96-0.52,1.33c-0.22,0.37-0.52,0.67-0.82,0.82
		C150.05,29.21,149.6,29.36,149.23,29.36z M162.95,30.32v-0.74c-0.37,0-0.67-0.07-0.89-0.15c-0.22-0.07-0.37-0.15-0.52-0.3
		c-0.07-0.15-0.15-0.37-0.22-0.67c-0.07-0.3-0.07-0.74-0.07-1.26v-2.67c0-0.37,0.07-0.82,0.15-1.11c0.07-0.3,0.15-0.67,0.3-0.89
		c0.22-0.44,0.44-0.74,0.74-0.96c0.3-0.22,0.67-0.37,1.04-0.37c0.44,0,0.74,0.07,1.04,0.15c0.3,0.15,0.52,0.3,0.67,0.59
		s0.3,0.67,0.37,1.11s0.15,1.04,0.15,1.63v2.59c0,0.44,0,0.89-0.07,1.11c-0.07,0.22-0.15,0.52-0.22,0.67
		c-0.15,0.15-0.3,0.3-0.52,0.3c-0.22,0.07-0.52,0.07-0.89,0.07v0.74h6v-0.74c-0.37,0-0.67-0.07-0.89-0.15s-0.37-0.15-0.52-0.3
		c-0.07-0.15-0.15-0.37-0.22-0.67c0-0.3-0.07-0.74-0.07-1.26v-2.74c0-0.82-0.07-1.48-0.22-1.93c-0.15-0.44-0.37-0.82-0.59-1.11
		c-0.37-0.52-0.82-0.89-1.33-1.11c-0.52-0.22-1.19-0.37-2-0.37c-0.67,0-1.33,0.15-1.93,0.44s-1.11,0.74-1.48,1.26h-0.07l-0.15-1.56
		l-3.71,0.74v0.67c0.3,0,0.52,0,0.74,0s0.37,0.07,0.44,0.15c0.15,0.07,0.22,0.15,0.3,0.22c0.07,0.07,0.15,0.22,0.15,0.44
		c0,0.22,0.07,0.52,0.07,0.96s0.07,1.11,0.07,1.85v2.37c0,0.52,0,0.89-0.07,1.19c-0.07,0.3-0.15,0.52-0.22,0.67
		c-0.15,0.15-0.3,0.22-0.52,0.3c-0.22,0.07-0.52,0.07-0.89,0.15v0.74h6.08V30.32z M179.77,30.55c0.44,0,0.89-0.07,1.26-0.3
		c0.37-0.22,0.67-0.44,0.82-0.74l-0.3-0.59c-0.22,0.15-0.44,0.22-0.67,0.22c-0.44,0-0.67-0.52-0.67-1.63v-4.23
		c0-1.19-0.3-2.08-0.89-2.59c-0.59-0.52-1.63-0.82-3.11-0.82c-1.33,0-2.37,0.15-3.04,0.52c-0.67,0.37-1.04,0.82-1.04,1.48
		c0,0.37,0.07,0.74,0.3,0.89c0.22,0.15,0.44,0.3,0.82,0.3s0.67-0.07,0.89-0.3c0.22-0.15,0.37-0.44,0.52-0.74
		c0.15-0.44,0.37-0.82,0.52-0.96c0.22-0.22,0.44-0.3,0.82-0.3c0.52,0,0.96,0.15,1.26,0.52c0.3,0.37,0.37,0.89,0.37,1.63v0.82
		l-2.74,1.19c-1.19,0.44-2,0.96-2.52,1.48c-0.52,0.52-0.74,1.04-0.74,1.56c0,0.74,0.22,1.33,0.74,1.78
		c0.52,0.44,1.11,0.67,1.93,0.67c0.74,0,1.41-0.15,2-0.52c0.59-0.37,1.04-0.89,1.41-1.56h0.07c0,0.67,0.15,1.19,0.44,1.56
		C178.74,30.32,179.18,30.55,179.77,30.55z M175.48,28.69c-0.3,0-0.59-0.07-0.74-0.3c-0.22-0.22-0.3-0.52-0.3-0.89
		c0-0.44,0.3-0.89,0.82-1.33s1.33-0.89,2.45-1.33v1.85c0,0.3-0.07,0.52-0.15,0.82s-0.3,0.44-0.44,0.67
		c-0.22,0.15-0.44,0.3-0.67,0.44C176.07,28.62,175.85,28.69,175.48,28.69z M197.34,30.32c1.19,0,2.3-0.15,3.26-0.52
		c0.96-0.37,1.85-0.82,2.59-1.48c0.74-0.59,1.26-1.41,1.63-2.3c0.37-0.89,0.59-1.85,0.59-2.89c0-1.11-0.22-2.15-0.67-3.04
		c-0.44-0.96-1.04-1.78-1.78-2.45s-1.63-1.19-2.67-1.63c-1.04-0.44-2.15-0.59-3.41-0.59h-7.34v0.74c0.37,0,0.67,0.07,0.89,0.15
		c0.22,0.07,0.37,0.15,0.52,0.3c0.15,0.15,0.22,0.37,0.22,0.67c0.07,0.3,0.07,0.67,0.07,1.11v8.9c0,0.44,0,0.82-0.07,1.11
		c-0.07,0.3-0.15,0.52-0.3,0.67c-0.15,0.15-0.37,0.3-0.59,0.3c-0.3,0.07-0.59,0.07-1.04,0.07v0.74h8.08V30.32z M197.05,29.14
		c-0.96,0-1.71-0.15-2.15-0.52c-0.44-0.37-0.67-0.89-0.67-1.63V16.98c0-0.22,0.07-0.3,0.3-0.3h2.37c0.82,0,1.56,0.15,2.22,0.44
		c0.67,0.3,1.26,0.74,1.71,1.26s0.82,1.26,1.04,2.08c0.22,0.82,0.37,1.71,0.37,2.74c0,1.93-0.44,3.41-1.33,4.45
		C200.01,28.62,198.68,29.14,197.05,29.14z M216.62,30.55l3.85-0.22v-0.74c-0.3,0-0.59,0-0.82,0c-0.22,0-0.37-0.07-0.44-0.15
		c-0.15-0.07-0.22-0.15-0.22-0.22c-0.07-0.07-0.07-0.22-0.15-0.37c-0.07-0.22-0.07-0.52-0.07-0.96s0-1.04,0-1.85v-5.86h-4.37v0.74
		c0.37,0.07,0.67,0.07,0.89,0.15c0.22,0.07,0.37,0.15,0.52,0.3c0.15,0.15,0.22,0.37,0.22,0.67c0,0.3,0.07,0.74,0.07,1.26v2
		c0,1.33-0.22,2.3-0.59,2.97c-0.44,0.67-0.96,1.04-1.78,1.04c-0.74,0-1.19-0.3-1.56-0.89c-0.3-0.59-0.44-1.56-0.44-2.82v-5.49h-4.3
		v0.74c0.37,0.07,0.67,0.07,0.89,0.15c0.22,0.07,0.37,0.15,0.52,0.3c0.15,0.15,0.15,0.37,0.22,0.67s0.07,0.74,0.07,1.26v2.67
		c0,1.41,0.3,2.45,0.82,3.19c0.74,0.96,1.78,1.48,3.11,1.48c0.74,0,1.41-0.15,2-0.44s1.04-0.74,1.41-1.26h0.07L216.62,30.55z
		 M226.26,30.55c0.52,0,1.04-0.07,1.41-0.22c0.44-0.15,0.82-0.37,1.11-0.59c0.3-0.22,0.52-0.59,0.74-0.89
		c0.15-0.37,0.22-0.74,0.22-1.19c0-0.37-0.07-0.67-0.15-0.96s-0.3-0.59-0.52-0.89c-0.22-0.3-0.52-0.52-0.89-0.82
		s-0.82-0.52-1.33-0.82c-0.74-0.37-1.26-0.74-1.56-1.04c-0.3-0.3-0.44-0.67-0.44-1.04c0-0.3,0.07-0.59,0.3-0.74
		c0.22-0.22,0.52-0.3,0.89-0.3c0.44,0,0.82,0.15,1.11,0.44c0.3,0.3,0.59,0.82,0.89,1.56h0.74v-2.89h-0.52l-0.37,0.44
		c-0.3-0.22-0.67-0.37-1.04-0.52c-0.37-0.15-0.82-0.15-1.19-0.15c-0.44,0-0.89,0.07-1.26,0.22s-0.74,0.37-0.96,0.59
		c-0.3,0.3-0.52,0.59-0.67,0.96c-0.15,0.37-0.22,0.74-0.22,1.19c0,0.67,0.22,1.26,0.67,1.78c0.44,0.52,1.11,1.04,2.08,1.56
		c0.74,0.37,1.26,0.74,1.56,1.11c0.3,0.37,0.44,0.67,0.44,1.04s-0.15,0.59-0.37,0.82c-0.3,0.22-0.67,0.3-1.11,0.3
		c-0.67,0-1.19-0.22-1.63-0.67c-0.44-0.44-0.74-1.11-0.96-2h-0.82v3.48H223l0.44-0.67c0.3,0.3,0.67,0.52,1.19,0.67
		C225.15,30.47,225.66,30.55,226.26,30.55z M235.82,30.55c1.33,0,2.15-0.44,2.52-1.33l-0.37-0.59c-0.22,0.44-0.67,0.67-1.11,0.67
		s-0.67-0.15-0.89-0.52c-0.15-0.37-0.3-0.89-0.3-1.71v-5.93h2.22v-1.04h-2.22v-2.3h-0.96c-0.22,0.59-0.67,1.11-1.19,1.56
		s-1.19,0.74-1.93,0.96v0.89H233v6.97c0,0.74,0.22,1.33,0.74,1.71C234.26,30.32,234.93,30.55,235.82,30.55z M82.07,56.27v-0.74
		c-0.59,0-1.11,0-1.48-0.07c-0.37-0.07-0.67-0.15-0.82-0.37c-0.15-0.22-0.3-0.37-0.37-0.67c-0.07-0.3-0.07-0.67-0.07-1.19v-3.78
		c0.22,0,0.44,0.07,0.67,0.22c0.22,0.15,0.52,0.37,0.82,0.82l4.74,5.86h4.6V55.6c-0.44,0-0.89-0.07-1.26-0.3
		c-0.44-0.22-0.82-0.44-1.11-0.82l-4.45-5.12c1.33-0.22,2.3-0.74,2.97-1.41c0.67-0.67,0.89-1.63,0.89-2.67
		c0-1.19-0.52-2.08-1.56-2.74c-1.04-0.67-2.45-0.96-4.3-0.96h-6.67v0.74c0.37,0,0.74,0.07,0.96,0.15s0.44,0.15,0.52,0.3
		c0.15,0.15,0.22,0.37,0.22,0.67s0.07,0.67,0.07,1.11v8.9c0,0.44,0,0.82-0.07,1.11s-0.15,0.52-0.3,0.67
		c-0.15,0.15-0.37,0.3-0.59,0.3c-0.3,0.07-0.59,0.07-1.04,0.07v0.74h7.64V56.27z M80.58,48.26h-1.26v-5.41c0-0.22,0.15-0.3,0.37-0.3
		h1.71c0.89,0,1.56,0.22,2.08,0.74s0.74,1.19,0.74,2c0,1.11-0.3,1.85-0.89,2.3S81.77,48.26,80.58,48.26z M95.48,56.49
		c1.78,0,3.19-0.67,4.37-2l-0.52-0.67c-0.52,0.44-1.04,0.82-1.56,1.04c-0.52,0.22-1.04,0.37-1.63,0.37c-0.96,0-1.71-0.37-2.22-1.11
		c-0.52-0.74-0.82-1.71-0.82-2.97c0-0.3,0-0.52,0.07-0.67h6.23c0.3,0,0.44,0,0.52-0.07c0.07-0.07,0.07-0.15,0.07-0.37
		c0-1.33-0.37-2.37-1.11-3.11c-0.74-0.74-1.85-1.11-3.19-1.11c-0.82,0-1.56,0.15-2.22,0.37c-0.67,0.3-1.26,0.67-1.78,1.11
		c-0.52,0.52-0.89,1.04-1.11,1.71c-0.3,0.67-0.37,1.41-0.37,2.22c0,0.74,0.15,1.48,0.37,2.08c0.22,0.59,0.59,1.19,1.11,1.63
		c0.44,0.44,1.04,0.82,1.63,1.04C94,56.35,94.74,56.49,95.48,56.49z M96.15,49.38h-2.82c0.15-0.74,0.44-1.26,0.82-1.78
		c0.44-0.44,0.89-0.67,1.48-0.67c0.52,0,0.89,0.15,1.19,0.52c0.3,0.37,0.52,0.82,0.52,1.41c0,0.22-0.07,0.37-0.22,0.44
		S96.67,49.38,96.15,49.38z M106.16,61.31c1.78,0,3.04-0.3,4-0.82c0.89-0.59,1.33-1.41,1.33-2.52c0-0.89-0.3-1.63-0.89-2.3
		c-0.59-0.59-1.33-0.96-2.37-1.11c-0.3-0.07-0.52-0.07-0.74-0.07l-0.74-0.07c-0.22,0-0.52-0.07-0.74-0.07
		c-0.22,0-0.59-0.07-0.89-0.07c-0.59-0.07-0.89-0.22-0.89-0.52c0-0.22,0.15-0.37,0.37-0.44c0.22-0.07,0.67-0.22,1.26-0.22
		c0.74-0.07,1.33-0.22,1.85-0.44c0.52-0.22,0.96-0.52,1.26-0.82c0.3-0.3,0.59-0.67,0.74-1.11c0.15-0.44,0.22-0.89,0.22-1.33
		c0-0.37,0-0.59-0.07-0.89c-0.07-0.22-0.15-0.52-0.3-0.67c0.22-0.37,0.52-0.52,0.74-0.52c0.22,0,0.37,0.07,0.44,0.15
		c0.15,0.07,0.22,0.15,0.37,0.3c0.07,0.07,0.22,0.22,0.37,0.3c0.15,0.07,0.3,0.15,0.44,0.15c0.3,0,0.52-0.07,0.67-0.3
		c0.15-0.15,0.22-0.37,0.22-0.67c0-0.37-0.15-0.67-0.44-0.89c-0.3-0.22-0.67-0.3-1.19-0.3c-0.15,0-0.3,0-0.44,0.07
		c-0.15,0-0.3,0.07-0.52,0.15c-0.22,0.07-0.37,0.15-0.59,0.3c-0.22,0.15-0.44,0.3-0.74,0.44c-0.37-0.3-0.82-0.52-1.33-0.67
		c-0.52-0.15-1.04-0.22-1.63-0.22c-0.59,0-1.11,0.07-1.56,0.3c-0.44,0.15-0.89,0.44-1.26,0.67c-0.37,0.3-0.59,0.67-0.82,1.04
		c-0.22,0.44-0.3,0.89-0.3,1.33c0,0.37,0.07,0.67,0.15,0.96c0.07,0.3,0.22,0.59,0.44,0.89c0.15,0.3,0.37,0.52,0.59,0.74
		c0.22,0.22,0.52,0.37,0.82,0.44v0.07c-0.59,0.15-1.11,0.37-1.48,0.67c-0.37,0.37-0.52,0.74-0.52,1.26c0,1.11,0.74,1.71,2.15,1.93
		l3.41,0.44c0.52,0.07,0.96,0.22,1.26,0.59c0.3,0.37,0.44,0.67,0.44,1.11c0,1.19-0.96,1.85-2.89,1.85c-0.89,0-1.56-0.15-2-0.44
		c-0.44-0.3-0.67-0.67-0.67-1.19c0-0.3,0.07-0.59,0.3-0.82c0.22-0.22,0.52-0.37,0.82-0.44c-0.22-0.22-0.52-0.44-0.82-0.59
		c-0.3-0.15-0.67-0.22-0.96-0.22c-0.52,0-0.96,0.15-1.33,0.52s-0.52,0.82-0.52,1.48c0,0.89,0.44,1.56,1.33,2
		C103.34,61.02,104.6,61.31,106.16,61.31z M106.09,51.82c-0.44,0-0.82-0.22-1.04-0.67c-0.22-0.44-0.37-1.04-0.37-1.85
		c0-0.74,0.15-1.33,0.37-1.78c0.22-0.44,0.59-0.67,1.04-0.67s0.74,0.22,0.96,0.67c0.22,0.44,0.37,1.04,0.37,1.85
		s-0.15,1.41-0.37,1.85C106.83,51.6,106.46,51.82,106.09,51.82z M116.09,43.22c0.44,0,0.82-0.15,1.04-0.44
		c0.3-0.3,0.44-0.67,0.44-1.04c0-0.44-0.15-0.82-0.44-1.04c-0.3-0.22-0.67-0.44-1.04-0.44c-0.44,0-0.74,0.15-1.04,0.44
		c-0.3,0.3-0.44,0.67-0.44,1.04c0,0.44,0.15,0.74,0.44,1.04C115.35,43.15,115.72,43.22,116.09,43.22z M119.13,56.27v-0.74
		c-0.37,0-0.67-0.07-0.89-0.07c-0.22-0.07-0.37-0.15-0.52-0.37c-0.15-0.22-0.22-0.37-0.22-0.74c0-0.37-0.07-0.74-0.07-1.26v-7.19
		l-4.45,0.74v0.67c0.59,0,0.96,0.07,1.26,0.15c0.22,0.07,0.37,0.3,0.44,0.67c0.07,0.15,0.07,0.52,0.07,0.96s0.07,1.11,0.07,1.85
		v2.37c0,0.44,0,0.82-0.07,1.11c-0.07,0.3-0.15,0.52-0.22,0.67c-0.15,0.15-0.3,0.3-0.52,0.37c-0.22,0.07-0.52,0.15-0.89,0.15v0.74h6
		V56.27z M125.81,56.49c0.74,0,1.48-0.15,2.22-0.37c0.67-0.3,1.26-0.67,1.78-1.11c0.52-0.44,0.96-1.04,1.26-1.71
		c0.3-0.67,0.44-1.41,0.44-2.15s-0.15-1.48-0.44-2.08c-0.3-0.67-0.74-1.19-1.26-1.63c-0.52-0.44-1.11-0.82-1.78-1.11
		c-0.67-0.3-1.41-0.37-2.22-0.37c-0.74,0-1.48,0.15-2.15,0.37c-0.67,0.22-1.26,0.59-1.78,1.11c-0.52,0.44-0.89,1.04-1.19,1.63
		c-0.3,0.67-0.44,1.33-0.44,2.08c0,0.82,0.15,1.48,0.44,2.15c0.3,0.67,0.67,1.26,1.19,1.71s1.11,0.82,1.78,1.11
		C124.32,56.35,125.06,56.49,125.81,56.49z M125.81,55.31c-0.37,0-0.74-0.07-1.04-0.3c-0.3-0.22-0.59-0.44-0.82-0.82
		c-0.22-0.37-0.37-0.82-0.52-1.33c-0.15-0.52-0.15-1.11-0.15-1.71c0-0.59,0.07-1.19,0.15-1.71c0.15-0.52,0.3-0.96,0.52-1.33
		c0.22-0.37,0.52-0.67,0.82-0.82c0.3-0.22,0.67-0.3,1.04-0.3s0.74,0.07,1.11,0.3c0.3,0.22,0.59,0.52,0.82,0.82
		c0.22,0.37,0.44,0.82,0.52,1.33c0.15,0.52,0.22,1.04,0.22,1.71c0,0.59-0.07,1.19-0.22,1.71c-0.15,0.52-0.3,0.96-0.52,1.33
		c-0.22,0.37-0.52,0.67-0.82,0.82C126.55,55.16,126.18,55.31,125.81,55.31z M138.85,56.27v-0.74c-0.37,0-0.67-0.07-0.89-0.15
		c-0.22-0.07-0.37-0.15-0.52-0.3c-0.07-0.15-0.15-0.37-0.22-0.67c0-0.3-0.07-0.74-0.07-1.26v-2.67c0-0.37,0.07-0.82,0.15-1.11
		c0.07-0.37,0.15-0.67,0.3-0.89c0.22-0.44,0.44-0.74,0.74-0.96c0.3-0.22,0.67-0.37,1.04-0.37c0.44,0,0.74,0.07,1.04,0.15
		c0.3,0.15,0.52,0.3,0.67,0.59c0.15,0.3,0.3,0.67,0.37,1.11c0.07,0.44,0.15,1.04,0.15,1.63v2.59c0,0.44,0,0.89-0.07,1.11
		c-0.07,0.22-0.15,0.52-0.22,0.67c-0.15,0.15-0.3,0.3-0.52,0.3c-0.22,0.07-0.52,0.07-0.89,0.07v0.74h6v-0.74
		c-0.37,0-0.67-0.07-0.89-0.15c-0.22-0.07-0.37-0.15-0.52-0.3c-0.15-0.15-0.15-0.37-0.22-0.67c0-0.3-0.07-0.74-0.07-1.26v-2.74
		c0-0.82-0.07-1.48-0.22-1.93c-0.15-0.44-0.37-0.82-0.59-1.11c-0.37-0.52-0.82-0.89-1.33-1.11c-0.52-0.22-1.19-0.37-2-0.37
		c-0.67,0-1.33,0.15-1.93,0.44c-0.59,0.3-1.11,0.74-1.48,1.26h-0.07l-0.22-1.71l-3.71,0.74v0.67c0.3,0,0.52,0,0.74,0
		c0.22,0,0.37,0.07,0.44,0.15c0.15,0.07,0.22,0.15,0.3,0.22c0.07,0.07,0.15,0.22,0.15,0.44c0.07,0.15,0.07,0.52,0.07,0.96
		s0.07,1.11,0.07,1.85v2.37c0,0.52,0,0.89-0.07,1.19c-0.07,0.3-0.15,0.52-0.22,0.67c-0.15,0.15-0.3,0.22-0.52,0.3
		c-0.22,0.07-0.52,0.07-0.89,0.15v0.74h6.15V56.27z M154.94,56.49c0.44,0,0.89-0.07,1.26-0.3c0.37-0.22,0.67-0.44,0.82-0.74
		l-0.3-0.59c-0.22,0.15-0.44,0.22-0.67,0.22c-0.44,0-0.67-0.52-0.67-1.63v-4.23c0-1.19-0.3-2.08-0.89-2.59
		c-0.59-0.52-1.63-0.82-3.11-0.82c-1.33,0-2.37,0.15-3.04,0.52c-0.67,0.37-1.04,0.82-1.04,1.48c0,0.37,0.07,0.74,0.3,0.89
		c0.22,0.22,0.44,0.3,0.82,0.3s0.67-0.07,0.89-0.3c0.22-0.22,0.37-0.44,0.52-0.74c0.15-0.44,0.37-0.82,0.52-0.96
		c0.22-0.22,0.44-0.3,0.82-0.3c0.52,0,0.96,0.15,1.26,0.52s0.37,0.89,0.37,1.63v0.82l-2.74,1.19c-1.19,0.44-2,0.96-2.52,1.48
		c-0.52,0.52-0.74,1.04-0.74,1.56c0,0.74,0.22,1.33,0.74,1.78c0.52,0.44,1.11,0.67,1.93,0.67c0.74,0,1.41-0.15,2-0.52
		c0.59-0.37,1.04-0.89,1.41-1.56h0.07c0,0.67,0.15,1.19,0.44,1.56C153.9,56.27,154.35,56.49,154.94,56.49z M150.64,54.64
		c-0.3,0-0.59-0.07-0.74-0.3c-0.22-0.22-0.3-0.52-0.3-0.89c0-0.44,0.3-0.89,0.82-1.33c0.52-0.44,1.33-0.89,2.45-1.33v1.85
		c0,0.3-0.07,0.52-0.15,0.82c-0.07,0.3-0.3,0.44-0.44,0.67c-0.22,0.15-0.44,0.3-0.67,0.44C151.38,54.71,150.94,54.64,150.64,54.64z
		 M163.69,56.27v-0.74c-0.37,0-0.67-0.07-0.89-0.07c-0.22-0.07-0.37-0.15-0.52-0.37c-0.15-0.22-0.22-0.37-0.22-0.74
		c0-0.37-0.07-0.74-0.07-1.26V40.26L157.53,41v0.67c0.59,0,0.96,0.07,1.26,0.15c0.22,0.07,0.37,0.3,0.44,0.67
		c0.07,0.15,0.07,0.52,0.07,0.96s0.07,1.11,0.07,1.85v7.93c0,0.44,0,0.82-0.07,1.11c-0.07,0.3-0.15,0.52-0.22,0.67
		c-0.07,0.15-0.3,0.3-0.52,0.37c-0.22,0.07-0.52,0.15-0.89,0.15v0.74H163.69z M177.85,56.49c2,0,3.71-0.59,5.12-1.71l0.3,1.56h0.89
		v-5.19h-0.82c-0.37,1.41-0.96,2.37-1.78,3.11c-0.82,0.67-1.93,1.04-3.19,1.04c-1.56,0-2.82-0.52-3.63-1.63
		c-0.82-1.04-1.26-2.59-1.26-4.6c0-1.04,0.07-1.93,0.3-2.74c0.22-0.82,0.52-1.48,0.89-2.08s0.89-0.96,1.48-1.26
		c0.59-0.3,1.26-0.44,2-0.44c1.11,0,2.08,0.37,2.82,1.04c0.74,0.67,1.33,1.63,1.56,2.82h0.74l0.37-4.89h-0.96l-0.37,1.19
		c-0.82-0.52-1.56-0.82-2.22-1.04c-0.67-0.22-1.41-0.3-2.22-0.3c-1.19,0-2.22,0.22-3.26,0.59c-0.96,0.37-1.78,0.89-2.52,1.63
		c-0.67,0.67-1.26,1.56-1.63,2.52c-0.37,0.96-0.59,2-0.59,3.19c0,1.11,0.15,2.15,0.52,3.04s0.89,1.71,1.56,2.3
		c0.67,0.67,1.48,1.11,2.45,1.48C175.62,56.27,176.66,56.49,177.85,56.49z M191.12,56.49c1.78,0,3.19-0.67,4.37-2l-0.52-0.67
		c-0.52,0.44-1.04,0.82-1.56,1.04c-0.52,0.22-1.04,0.37-1.63,0.37c-0.96,0-1.71-0.37-2.22-1.11s-0.82-1.71-0.82-2.97
		c0-0.3,0-0.52,0.07-0.67h6.23c0.3,0,0.44,0,0.52-0.07c0.07-0.07,0.07-0.15,0.07-0.37c0-1.33-0.37-2.37-1.11-3.11
		c-0.74-0.74-1.85-1.11-3.19-1.11c-0.82,0-1.56,0.15-2.22,0.37c-0.67,0.3-1.26,0.67-1.78,1.11c-0.52,0.52-0.89,1.04-1.11,1.71
		c-0.3,0.67-0.37,1.41-0.37,2.22c0,0.74,0.15,1.48,0.37,2.08c0.22,0.59,0.59,1.19,1.11,1.63c0.44,0.44,1.04,0.82,1.63,1.04
		C189.63,56.35,190.3,56.49,191.12,56.49z M191.78,49.38h-2.82c0.15-0.74,0.44-1.26,0.82-1.78c0.44-0.44,0.89-0.67,1.48-0.67
		c0.52,0,0.89,0.15,1.19,0.52c0.3,0.37,0.44,0.82,0.44,1.41c0,0.22-0.07,0.37-0.22,0.44C192.6,49.38,192.3,49.38,191.78,49.38z
		 M202.98,56.27v-0.74c-0.37,0-0.67-0.07-0.89-0.15c-0.22-0.07-0.37-0.15-0.52-0.3c-0.15-0.15-0.15-0.37-0.22-0.67
		c-0.07-0.3-0.07-0.74-0.07-1.26v-2.67c0-0.37,0.07-0.82,0.15-1.11c0.07-0.37,0.15-0.67,0.3-0.89c0.22-0.44,0.44-0.74,0.74-0.96
		c0.3-0.22,0.67-0.37,1.04-0.37c0.44,0,0.74,0.07,1.04,0.15c0.3,0.15,0.52,0.3,0.67,0.59c0.15,0.3,0.3,0.67,0.37,1.11
		s0.15,1.04,0.15,1.63v2.59c0,0.44,0,0.89-0.07,1.11c-0.07,0.22-0.15,0.52-0.22,0.67s-0.3,0.3-0.52,0.3
		c-0.22,0.07-0.52,0.07-0.89,0.07v0.74h6v-0.74c-0.37,0-0.67-0.07-0.89-0.15c-0.22-0.07-0.37-0.15-0.52-0.3
		c-0.15-0.15-0.15-0.37-0.22-0.67c-0.07-0.3-0.07-0.74-0.07-1.26v-2.74c0-0.82-0.07-1.48-0.22-1.93s-0.37-0.82-0.59-1.11
		c-0.37-0.52-0.82-0.89-1.33-1.11c-0.52-0.22-1.19-0.37-2-0.37c-0.67,0-1.33,0.15-1.93,0.44c-0.59,0.3-1.11,0.74-1.48,1.26h-0.07
		l-0.22-1.71l-3.71,0.74v0.67c0.3,0,0.52,0,0.74,0c0.22,0,0.37,0.07,0.52,0.15c0.15,0.07,0.22,0.15,0.3,0.22s0.15,0.22,0.15,0.44
		c0.07,0.15,0.07,0.52,0.07,0.96s0.07,1.11,0.07,1.85v2.37c0,0.52,0,0.89-0.07,1.19c-0.07,0.3-0.15,0.52-0.22,0.67
		s-0.3,0.22-0.52,0.3c-0.22,0.07-0.52,0.07-0.89,0.15v0.74h6.08V56.27z M215.06,56.49c1.33,0,2.15-0.44,2.52-1.33l-0.37-0.59
		c-0.22,0.44-0.67,0.67-1.11,0.67s-0.67-0.15-0.89-0.52c-0.22-0.37-0.3-0.89-0.3-1.71v-5.93h2.22v-1.04h-2.22v-2.3h-0.96
		c-0.22,0.59-0.67,1.11-1.19,1.56c-0.52,0.44-1.19,0.74-1.93,0.96v0.89h1.41v6.97c0,0.74,0.22,1.33,0.74,1.71
		C213.51,56.2,214.17,56.49,215.06,56.49z M223.81,56.49c1.78,0,3.19-0.67,4.37-2l-0.52-0.67c-0.52,0.44-1.04,0.82-1.56,1.04
		c-0.52,0.22-1.04,0.37-1.63,0.37c-0.96,0-1.71-0.37-2.22-1.11s-0.82-1.71-0.82-2.97c0-0.3,0-0.52,0.07-0.67h6.23
		c0.3,0,0.44,0,0.52-0.07c0.07-0.07,0.07-0.15,0.07-0.37c0-1.33-0.37-2.37-1.11-3.11c-0.74-0.74-1.85-1.11-3.19-1.11
		c-0.82,0-1.56,0.15-2.22,0.37c-0.67,0.3-1.26,0.67-1.78,1.11s-0.89,1.04-1.11,1.71c-0.3,0.67-0.37,1.41-0.37,2.22
		c0,0.74,0.15,1.48,0.37,2.08c0.22,0.59,0.59,1.19,1.11,1.63c0.44,0.44,1.04,0.82,1.63,1.04C222.25,56.35,223,56.49,223.81,56.49z
		 M224.4,49.38h-2.82c0.15-0.74,0.44-1.26,0.82-1.78s0.89-0.67,1.48-0.67c0.52,0,0.89,0.15,1.19,0.52c0.3,0.37,0.44,0.82,0.44,1.41
		c0,0.22-0.07,0.37-0.22,0.44C225.29,49.38,224.92,49.38,224.4,49.38z M236.04,56.27v-0.74c-0.44,0-0.82,0-1.11-0.07
		c-0.3-0.07-0.44-0.15-0.59-0.3c-0.15-0.15-0.22-0.37-0.3-0.67c-0.07-0.3-0.07-0.67-0.07-1.19v-0.89c0-0.44,0-0.96,0.07-1.41
		c0.07-0.52,0.15-0.89,0.22-1.33c0.15-0.52,0.3-0.96,0.52-1.26c0.22-0.3,0.44-0.52,0.67-0.52c0.15,0,0.22,0.07,0.37,0.15
		c0.15,0.07,0.22,0.15,0.37,0.3c0.15,0.07,0.3,0.15,0.44,0.3c0.15,0.07,0.3,0.15,0.52,0.15c0.44,0,0.74-0.15,0.96-0.44
		c0.22-0.3,0.37-0.59,0.37-1.04c0-0.37-0.15-0.67-0.44-0.89c-0.3-0.22-0.74-0.37-1.19-0.37c-0.59,0-1.26,0.22-1.78,0.59
		c-0.59,0.37-1.04,0.96-1.33,1.63h-0.07l-0.3-2.22l-3.85,0.74v0.67c0.37,0,0.67,0.07,0.96,0.15c0.22,0.07,0.44,0.22,0.52,0.52
		c0.15,0.22,0.22,0.59,0.22,1.11c0.07,0.44,0.07,1.11,0.07,1.93v2.37c0,0.52,0,0.89-0.07,1.19c0,0.3-0.07,0.52-0.22,0.67
		c-0.15,0.15-0.3,0.22-0.52,0.3c-0.22,0.07-0.52,0.07-0.89,0.15v0.74h6.45V56.27z"/>
	<rect x="56.01" y="9.6" class="st1" width="0.67" height="49.59"/>
	<polygon class="st0" points="19.28,51.38 15.8,59.61 14.39,59.61 12.31,54.79 10.16,59.53 8.75,59.53 5.34,51.3 7.86,51.3 
		9.57,55.75 11.5,51.3 13.28,51.3 15.2,55.75 16.98,51.3 19.28,51.3 	"/>
	<polygon class="st0" points="28.92,59.46 26.47,59.46 26.47,54.79 24.25,57.53 24.03,57.53 21.8,54.79 21.8,59.46 19.43,59.46 
		19.43,51.38 21.65,51.38 24.17,54.42 26.69,51.38 28.92,51.38 	"/>
	<path class="st0" d="M38.78,55.38c0,0.74-0.15,1.48-0.52,2.08c-0.37,0.67-0.89,1.11-1.56,1.48c-0.67,0.37-1.56,0.59-2.52,0.59
		c-0.96,0-1.85-0.22-2.52-0.59c-0.67-0.37-1.19-0.89-1.56-1.56c-0.37-0.67-0.52-1.33-0.52-2c0-0.74,0.15-1.41,0.52-2.08
		c0.37-0.67,0.82-1.11,1.56-1.56c0.67-0.37,1.56-0.59,2.52-0.59c0.74,0,1.41,0.07,2,0.3c0.59,0.22,1.04,0.52,1.41,0.89
		s0.67,0.82,0.89,1.33C38.7,54.34,38.78,54.86,38.78,55.38z M36.26,55.38c0-0.3-0.07-0.59-0.15-0.82c-0.07-0.22-0.22-0.44-0.37-0.67
		c-0.15-0.15-0.37-0.3-0.67-0.44c-0.3-0.07-0.59-0.15-0.89-0.15c-0.67,0-1.19,0.22-1.56,0.59c-0.37,0.37-0.59,0.89-0.59,1.48
		s0.22,1.11,0.59,1.48c0.37,0.37,0.89,0.59,1.56,0.59c0.44,0,0.82-0.07,1.11-0.3c0.3-0.15,0.52-0.44,0.74-0.74
		C36.18,56.2,36.26,55.83,36.26,55.38z"/>
	<path class="st0" d="M28.9,48.31c-0.25,0.28-0.57,0.55-0.88,0.8c-1.96-2.03-4.27-4.28-6.46-4.28c-1.36,0-2.34,1.03-3.48,1.76
		c-1.58,1.01-3.75,1.58-5.62,0.84c-1-0.38-1.97-0.94-2.69-1.85c1.46,1.01,3.66,1.15,5.31,0.46c1.83-0.76,3.69-1.77,5.77-1.77
		C23.93,44.27,26.85,46.35,28.9,48.31z M6.21,41.93c2.03,2.31,5.35,1.57,8.06,2.15c0.38,0.08,0.73,0.21,1.14,0.14
		c-0.32-0.2-0.75-0.23-1.12-0.37c-2.11-0.79-2.43-3.05-3.59-4.6c1.47,0.98,2.69,2.32,4.07,3.58c0.96,0.88,2.15,1.25,3.39,1.5
		c-0.3,0.11-0.69,0.08-1.01,0.16c-2.22,0.55-4.69,1.42-7.05,0.64C8.57,44.63,6.98,43.44,6.21,41.93z M2.95,36.57
		c1.27,2.87,4.45,3.1,6.57,4.86c0.4,0.33,0.8,0.64,1.24,0.85l0.02-0.02c-0.49-0.44-1.02-0.97-1.4-1.52
		c-1.21-1.76-0.81-4.16-1.74-6.03c0.85,1.02,1.64,2.06,2.13,3.22c0.79,1.87,1.05,4.01,2.81,5.43c-1.91-0.63-4.11-0.5-5.83-1.63
		C4.96,40.55,3.29,38.68,2.95,36.57z M1.59,30.77c0.18,2.53,2.88,3.88,4.16,5.96c0.27,0.44,0.56,0.9,0.95,1.26
		c-0.06-0.27-0.28-0.51-0.41-0.77c-0.41-0.89-0.6-1.92-0.5-2.99c0.13-1.29,0.66-2.49,0.46-3.85c1.11,2.39,0.75,5.38,1.39,7.96
		c0.14,0.57,0.49,1.07,0.7,1.61c-1.09-0.83-2.51-1.56-3.71-2.5c-1.15-0.91-2.16-1.98-2.68-3.36C1.59,33.08,1.5,31.89,1.59,30.77z
		 M1.66,26.11c0.13-0.56,0.23-1.15,0.47-1.67c-0.46,2.39,1.12,4.11,1.66,6.17c0.2,0.78,0.27,1.6,0.59,2.33l0.07-0.04
		c-0.78-2.2,0.37-4.23,1.48-5.96c0.29-0.46,0.44-0.98,0.57-1.52c0.12,0.99-0.09,2.15-0.27,3.17c-0.24,1.32-0.69,2.56-1.05,3.83
		c-0.24,0.8-0.17,1.69-0.05,2.53l-0.11-0.09c-0.83-1.54-2.48-2.74-2.97-4.42C1.66,29.11,1.39,27.56,1.66,26.11z M2.54,23.54
		c0-1.81,0.7-3.28,1.76-4.62l0.09-0.04c-1.16,1.77-0.1,4-0.25,6l-0.15,2.06l0.08,0.05c0.07-0.23,0.09-0.47,0.13-0.71
		c0.28-1.66,1.73-2.81,2.97-3.98c0.29-0.28,0.51-0.6,0.64-0.96c-0.1,0.83-0.33,1.67-0.7,2.42c-0.95,1.92-2.78,3.48-3.11,5.66
		C3.83,27.33,2.54,25.77,2.54,23.54z M5.6,17.45c0.58-0.65,1.24-1.15,2.02-1.35c-1.51,1.04-1.43,2.9-1.89,4.45
		c-0.17,0.57-0.42,1.1-0.55,1.69l0.04,0.03c0.25-0.66,0.68-1.3,1.25-1.83c1.06-1,2.66-1.61,3.19-3.08
		c-0.02,2.04-1.76,3.59-3.35,4.79c-0.71,0.54-1.32,1.26-1.69,2.02c0.06-0.56,0.09-1.03,0.04-1.58C4.49,20.8,4.38,18.8,5.6,17.45z
		 M11.74,14.02c-1.12,0.98-1.87,2.25-2.73,3.39c-0.72,0.95-1.7,1.54-2.55,2.33c0.46-0.95,0.54-2.03,1.12-2.95
		C8.57,15.22,10.21,14.62,11.74,14.02z"/>
	<path class="st0" d="M17.3,48.31c0.25,0.28,0.57,0.55,0.87,0.8c1.96-2.03,4.27-4.28,6.46-4.28c1.36,0,2.33,1.03,3.48,1.76
		c1.58,1.01,3.75,1.58,5.62,0.84c1-0.38,1.97-0.94,2.7-1.85c-1.46,1.01-3.66,1.15-5.31,0.46c-1.83-0.76-3.69-1.77-5.77-1.77
		C22.26,44.27,19.35,46.35,17.3,48.31z M39.99,41.93c-2.03,2.31-5.35,1.57-8.06,2.15c-0.38,0.08-0.73,0.21-1.14,0.14
		c0.32-0.2,0.75-0.23,1.12-0.37c2.11-0.79,2.43-3.05,3.59-4.6c-1.47,0.98-2.69,2.32-4.07,3.58c-0.96,0.88-2.15,1.25-3.39,1.5
		c0.3,0.11,0.69,0.08,1.01,0.16c2.22,0.55,4.69,1.42,7.05,0.64C37.63,44.63,39.22,43.44,39.99,41.93z M43.25,36.57
		c-1.27,2.87-4.45,3.1-6.57,4.86c-0.4,0.33-0.8,0.64-1.24,0.85l-0.02-0.02c0.49-0.44,1.02-0.97,1.4-1.52
		c1.21-1.76,0.81-4.16,1.74-6.03c-0.85,1.02-1.64,2.06-2.13,3.22c-0.79,1.87-1.05,4.01-2.82,5.43c1.91-0.63,4.11-0.5,5.83-1.63
		C41.23,40.55,42.9,38.68,43.25,36.57z M44.61,30.77c-0.18,2.53-2.88,3.88-4.16,5.96c-0.27,0.44-0.56,0.9-0.95,1.26
		c0.06-0.27,0.28-0.51,0.41-0.77c0.41-0.89,0.6-1.92,0.5-2.99c-0.13-1.29-0.66-2.49-0.46-3.85c-1.11,2.39-0.75,5.38-1.39,7.96
		c-0.14,0.57-0.49,1.07-0.7,1.61c1.09-0.83,2.51-1.56,3.71-2.5c1.15-0.91,2.16-1.98,2.68-3.36C44.6,33.08,44.7,31.89,44.61,30.77z
		 M44.53,26.11c-0.13-0.56-0.23-1.15-0.47-1.67c0.46,2.39-1.12,4.11-1.66,6.17c-0.2,0.78-0.27,1.6-0.59,2.33l-0.07-0.04
		c0.78-2.2-0.36-4.23-1.48-5.96c-0.29-0.46-0.44-0.98-0.57-1.52c-0.12,0.99,0.09,2.15,0.27,3.17c0.24,1.32,0.69,2.56,1.05,3.83
		c0.24,0.8,0.17,1.69,0.05,2.53l0.11-0.09c0.83-1.54,2.48-2.74,2.97-4.42C44.53,29.11,44.81,27.56,44.53,26.11z M43.65,23.54
		c0-1.81-0.7-3.28-1.76-4.62l-0.09-0.04c1.16,1.77,0.1,4,0.25,6l0.15,2.06l-0.08,0.05c-0.07-0.23-0.09-0.47-0.13-0.71
		c-0.28-1.66-1.73-2.81-2.97-3.98c-0.29-0.28-0.51-0.6-0.64-0.96c0.1,0.83,0.33,1.67,0.7,2.42c0.95,1.92,2.78,3.48,3.11,5.66
		C42.37,27.33,43.65,25.77,43.65,23.54z M40.59,17.45c-0.58-0.65-1.24-1.15-2.02-1.35c1.51,1.04,1.43,2.9,1.89,4.45
		c0.17,0.57,0.42,1.1,0.55,1.69l-0.04,0.03c-0.25-0.66-0.68-1.3-1.25-1.83c-1.06-1-2.66-1.61-3.19-3.08
		c0.02,2.04,1.76,3.59,3.35,4.79c0.71,0.54,1.32,1.26,1.69,2.02c-0.06-0.56-0.09-1.03-0.04-1.58C41.71,20.8,41.81,18.8,40.59,17.45z
		 M34.45,14.02c1.12,0.98,1.87,2.25,2.73,3.39c0.72,0.95,1.7,1.54,2.55,2.33c-0.46-0.95-0.54-2.03-1.12-2.95
		C37.62,15.22,35.98,14.62,34.45,14.02z"/>
	<path class="st0" d="M36.81,34.41l-0.33-0.18c-0.7,1.45-1.63,2.77-2.75,3.91l-1.94-1.94c0.95-0.98,1.71-2.09,2.28-3.29l-0.33-0.18
		c-0.56,1.19-1.31,2.27-2.21,3.2l-1.75-1.75c0.75-0.78,1.35-1.68,1.78-2.64l-0.33-0.18c-0.42,0.95-1,1.82-1.72,2.56l-1.94-1.94
		c0.54-0.57,0.96-1.23,1.24-1.94l-0.33-0.18c-0.27,0.69-0.67,1.32-1.17,1.86l-1.76-1.76c0.5-0.56,0.79-1.26,0.83-2.01h2.49
		c-0.02,0.67-0.16,1.32-0.39,1.91l0.33,0.18c0.26-0.66,0.41-1.36,0.43-2.09h2.75c-0.02,1.21-0.29,2.37-0.76,3.41l0.33,0.18
		c0.5-1.12,0.78-2.33,0.8-3.59h2.49c-0.03,1.71-0.42,3.33-1.1,4.78l0.33,0.18c0.72-1.54,1.11-3.22,1.14-4.96h2.75
		c-0.03,2.25-0.56,4.38-1.48,6.28L36.81,34.41c0.99-2.04,1.52-4.3,1.52-6.64c0-1.99-0.38-3.92-1.11-5.71l-0.34,0.15
		c0.68,1.69,1.05,3.51,1.07,5.38h-2.75c-0.02-1.5-0.32-2.94-0.85-4.3l-0.34,0.14c0.52,1.31,0.8,2.71,0.82,4.15h-2.49
		c-0.02-1.1-0.24-2.17-0.62-3.17l-0.34,0.15c0.37,0.95,0.57,1.97,0.59,3.02h-2.75c-0.02-0.67-0.15-1.32-0.37-1.94l-0.34,0.15
		c0.21,0.57,0.32,1.17,0.34,1.79h-2.49c-0.04-0.75-0.33-1.45-0.83-2.01l1.76-1.76c0.54,0.58,0.96,1.25,1.22,1.98l0.34-0.15
		c-0.28-0.77-0.72-1.48-1.3-2.09l1.94-1.94c0.83,0.86,1.46,1.86,1.88,2.95l0.34-0.15c-0.44-1.13-1.1-2.17-1.96-3.06l1.76-1.76
		c1.09,1.12,1.93,2.43,2.49,3.84l0.34-0.14c-0.58-1.46-1.44-2.8-2.56-3.96l1.94-1.94c1.37,1.41,2.43,3.04,3.15,4.81l0.34-0.15
		c-0.76-1.87-1.89-3.59-3.35-5.06c-1.47-1.48-3.2-2.61-5.08-3.36l-0.14,0.34c1.78,0.72,3.41,1.78,4.82,3.15l-1.94,1.94
		c-1.14-1.1-2.45-1.96-3.88-2.53l-0.13,0.34c1.38,0.56,2.66,1.39,3.76,2.46l-1.76,1.76c-0.85-0.82-1.84-1.46-2.91-1.9l-0.13,0.34
		c1.02,0.42,1.97,1.03,2.78,1.82l-1.94,1.94c-0.55-0.51-1.17-0.92-1.85-1.2l-0.13,0.34c0.63,0.26,1.21,0.64,1.72,1.12l-1.76,1.76
		c-0.56-0.5-1.26-0.79-2.01-0.83v-2.49c0.72,0.02,1.41,0.17,2.05,0.44l0.13-0.34c-0.69-0.29-1.42-0.45-2.19-0.47v-2.75
		c1.11,0.02,2.19,0.25,3.19,0.66l0.13-0.34c-1.04-0.43-2.17-0.66-3.32-0.68v-2.49c1.47,0.02,2.9,0.32,4.23,0.86l0.13-0.34
		c-1.37-0.56-2.85-0.86-4.37-0.88v-2.75c1.87,0.02,3.68,0.39,5.37,1.07l0.14-0.34c-1.78-0.72-3.71-1.1-5.69-1.1
		c-2.45,0-4.76,0.58-6.81,1.62l0.17,0.32c1.99-1,4.18-1.54,6.46-1.56v2.75c-1.86,0.03-3.62,0.48-5.19,1.26l0.17,0.32
		c1.54-0.76,3.25-1.18,5.02-1.21v2.49c-1.38,0.03-2.69,0.36-3.86,0.93l0.17,0.32c1.14-0.55,2.39-0.86,3.7-0.89v2.75
		c-0.86,0.03-1.68,0.23-2.42,0.58l0.17,0.32c0.7-0.32,1.46-0.51,2.25-0.53v2.49c-0.39,0.02-0.75,0.11-1.09,0.25l0.17,0.32
		c0.35-0.14,0.72-0.22,1.11-0.22c0.78,0,1.52,0.3,2.07,0.86c0.55,0.55,0.86,1.29,0.86,2.07c0,1.62-1.31,2.93-2.93,2.93
		c-0.78,0-1.52-0.3-2.07-0.86c-0.55-0.55-0.86-1.29-0.86-2.07s0.3-1.52,0.86-2.07c0.28-0.28,0.61-0.5,0.96-0.64l-0.17-0.32
		c-0.34,0.14-0.65,0.34-0.92,0.58l-1.76-1.76c0.46-0.43,0.97-0.77,1.52-1.03l-0.17-0.32c-0.59,0.28-1.14,0.65-1.61,1.1l-1.94-1.94
		c0.68-0.65,1.45-1.19,2.28-1.59l-0.17-0.32c-0.87,0.43-1.67,0.99-2.37,1.65l-1.76-1.76c0.89-0.86,1.89-1.56,2.97-2.1l-0.17-0.32
		c-1.13,0.56-2.16,1.29-3.06,2.16l-1.95-1.95c1.12-1.09,2.37-1.98,3.73-2.66l-0.17-0.32c-2.97,1.49-5.38,3.92-6.85,6.9l0.32,0.17
		c0.69-1.39,1.59-2.69,2.71-3.83l1.95,1.95c-0.91,0.93-1.66,2.01-2.23,3.19l0.32,0.17c0.54-1.13,1.27-2.18,2.17-3.11l1.76,1.76
		c-0.71,0.74-1.3,1.59-1.73,2.54l0.32,0.17c0.41-0.89,0.97-1.72,1.67-2.45l1.94,1.94c-0.5,0.53-0.9,1.14-1.19,1.82l0.32,0.17
		c0.26-0.63,0.64-1.22,1.12-1.73l1.76,1.76c-0.48,0.54-0.79,1.24-0.83,2.01h-2.49c0.02-0.71,0.17-1.4,0.44-2.04l-0.32-0.17
		c-0.29,0.68-0.46,1.43-0.48,2.21H14.2c0.02-1.24,0.3-2.43,0.8-3.52l-0.32-0.17c-0.52,1.13-0.83,2.38-0.85,3.7h-2.49
		c0.03-1.72,0.42-3.37,1.14-4.88l-0.32-0.17c-0.74,1.53-1.16,3.25-1.19,5.05H8.24c0.03-2.24,0.55-4.4,1.51-6.36l-0.32-0.17
		c-1,2.03-1.57,4.31-1.57,6.72c0,1.47,0.21,2.92,0.61,4.29l0.36-0.09c-0.38-1.29-0.58-2.64-0.6-4.02h2.75
		c0.02,1.15,0.19,2.27,0.52,3.35l0.36-0.09c-0.32-1.04-0.49-2.14-0.51-3.26h2.49c0.02,0.91,0.17,1.8,0.44,2.65l0.36-0.09
		c-0.26-0.82-0.41-1.68-0.43-2.56h2.75c0.02,0.65,0.14,1.29,0.35,1.89l0.36-0.09c-0.21-0.57-0.32-1.17-0.34-1.8h2.49
		c0.04,0.75,0.33,1.45,0.83,2.01l-1.76,1.76c-0.54-0.58-0.95-1.25-1.22-1.98l-0.36,0.09c0.28,0.79,0.73,1.52,1.32,2.15l-1.94,1.94
		c-0.94-0.98-1.64-2.15-2.05-3.42l-0.36,0.09c0.42,1.33,1.15,2.55,2.14,3.58l-1.76,1.76c-1.31-1.36-2.26-2.97-2.8-4.73L11.5,31.3
		c0.55,1.82,1.54,3.5,2.9,4.9l-1.94,1.94c-1.72-1.76-2.95-3.87-3.62-6.18l-0.36,0.09c0.71,2.42,2.01,4.64,3.85,6.48
		c1.24,1.24,2.66,2.24,4.2,2.98l0.18-0.32c-1.46-0.69-2.8-1.63-3.99-2.79l1.94-1.94c1.01,0.98,2.16,1.76,3.4,2.33l0.18-0.32
		c-1.22-0.55-2.34-1.31-3.33-2.27l1.76-1.76c0.82,0.79,1.77,1.41,2.79,1.85l0.18-0.32c-1-0.42-1.92-1.02-2.72-1.79l1.94-1.94
		c0.62,0.59,1.35,1.03,2.14,1.31l0.18-0.32c-0.76-0.26-1.46-0.68-2.06-1.25l1.76-1.76c0.56,0.5,1.26,0.79,2.01,0.83v2.49
		c-0.59-0.02-1.17-0.13-1.71-0.31l-0.18,0.32c0.6,0.22,1.24,0.34,1.89,0.36v2.75c-1.14-0.02-2.24-0.26-3.26-0.69l-0.18,0.32
		c1.08,0.46,2.24,0.71,3.44,0.73v2.49c-1.64-0.02-3.22-0.38-4.67-1.04l-0.18,0.32c1.51,0.69,3.15,1.06,4.85,1.09v2.75
		c-2.18-0.03-4.29-0.52-6.2-1.43l-0.18,0.32C18.55,42.49,20.79,43,23.1,43c2.42,0,4.76-0.57,6.86-1.63l-0.17-0.34
		c-1.96,0.99-4.17,1.57-6.51,1.6v-2.75c1.85-0.03,3.64-0.47,5.25-1.28l-0.17-0.33c-1.53,0.77-3.25,1.22-5.08,1.25v-2.49
		c1.39-0.03,2.73-0.36,3.94-0.97l-0.17-0.33c-1.14,0.57-2.42,0.9-3.77,0.93v-2.75c0.89-0.03,1.74-0.24,2.51-0.62l-0.17-0.33
		c-0.71,0.35-1.51,0.55-2.35,0.58v-2.49c0.75-0.04,1.45-0.33,2.01-0.83l1.76,1.76c-0.42,0.4-0.9,0.73-1.43,0.98l0.17,0.33
		c0.55-0.27,1.06-0.62,1.52-1.05l1.94,1.94c-0.65,0.62-1.39,1.14-2.2,1.55l0.17,0.33c0.83-0.41,1.6-0.96,2.29-1.62l1.75,1.75
		c-0.85,0.83-1.84,1.53-2.91,2.07l0.17,0.33c1.09-0.55,2.1-1.26,3-2.14l1.94,1.94c-1.08,1.05-2.32,1.94-3.68,2.63l0.17,0.34
		c1.43-0.72,2.74-1.67,3.91-2.83C35.09,37.32,36.07,35.93,36.81,34.41L36.81,34.41z"/>
	<polygon class="st0" points="23.97,24.25 23.88,24.25 23.88,24.36 23.97,24.35 	"/>
	<rect x="23.74" y="24.1" class="st0" width="0.12" height="0.09"/>
	<polygon class="st0" points="23.52,24.07 23.63,24.08 23.64,23.99 23.53,23.97 	"/>
	<polygon class="st0" points="23.43,24.03 23.32,24.02 23.33,23.93 23.44,23.94 	"/>
	<rect x="22.54" y="23.91" class="st0" width="0.12" height="0.09"/>
	<rect x="22.29" y="24" transform="matrix(0.1446 -0.9895 0.9895 0.1446 -4.6998 42.681)" class="st0" width="0.09" height="0.11"/>
	<polygon class="st0" points="22.29,24.24 22.16,24.21 22.19,24.12 22.31,24.15 	"/>
	<polygon class="st0" points="22.07,24.35 22.05,24.26 22.14,24.25 22.16,24.34 	"/>
	<polygon class="st0" points="9.96,33.84 9.96,33.76 9.88,33.76 9.88,33.92 10.01,33.92 10.01,34.12 10.1,34.12 10.08,33.89 	"/>
	<polygon class="st0" points="11.11,35.23 10.94,35.07 10.82,34.9 10.76,34.76 10.65,34.48 10.88,34.59 10.96,34.81 11.07,34.89 
		11.18,35.12 	"/>
	<polygon class="st0" points="14.29,39.41 14.28,39.27 14.15,39.08 14.34,39.11 14.54,39.28 14.62,39.49 14.51,39.55 14.45,39.46 	
		"/>
	<path class="st0" d="M22.62,25.25h-0.17l-0.03-0.34l0.09-0.06v-0.17h-0.54l-0.02-0.17l0.08-0.05l-0.12-0.05l-0.09,0.13l-0.03,0.14
		l-0.15,0.03v0.08h-0.11v0.2l-0.43,0.36l-0.86-0.03c-0.06,0.14-0.22-0.02-0.22-0.02c-0.03-0.09-0.25,0-0.25,0
		c0,0.17-0.29-0.08-0.29-0.08l-0.54-0.39c-0.31-0.28-0.77,0.08-0.78,0.16c0.02,0.22-0.35,0.05-0.35,0.05s-0.31-0.09-0.35,0.03
		c-0.05,0.13-0.25,0.09-0.25,0.09l-0.03,0.06l-0.15,0.03L17,25.35l-0.18,0.03l0.46-0.02c0.12-0.02-0.05,0.27-0.12,0.25l-0.21,0.02
		l-0.08,0.08h-0.2l-0.09,0.13l-0.29-0.02L16.12,26l-0.08,0.19l-0.11,0.19l-0.09,0.2l-0.03,0.16l-0.09,0.03v0.42l-0.18,0.13v0.19
		l-0.28,0.3l0.03,0.25l-0.23,0.25l0.03,0.25l-0.14,0.05l-0.03,0.11l-0.06,0.33l0.15,0.02v0.23c-0.06,0.03-0.23,0.09-0.14,0.16
		s-0.25,0.05-0.25-0.05c0-0.09-0.18-0.17-0.23-0.14l-0.12-0.14c-0.17-0.17-0.69,0.02-0.69,0.02l-0.08,0.25
		c-0.17,0.03-0.28,0.31-0.28,0.31c-0.14,0.05-0.25,0.22-0.2,0.27l-0.08,0.06v0.34l-0.08,0.11l0.02,0.37c0.09,0,0.08,0.17,0.08,0.17
		c-0.15,0.02-0.12,0.22-0.12,0.22l-0.32,0.11l-0.06,0.09l-0.4-0.02l-0.11,0.11l-0.11-0.11h-0.77l-0.03-0.08L10.9,31.3l-0.02-0.17
		l-0.23,0.02l-0.05,0.09l-0.25,0.02c0.02,0.16-0.25,0.39-0.28,0.33l-0.12-0.26l0.28-0.06v-0.11l-0.57-0.02l-0.06,0.09l-0.23,0.02
		v0.25l-0.11,0.03l0.02,0.22c0.11,0.11-0.02,0.28-0.02,0.28c-0.09,0.09,0.08,0.27,0.08,0.27c0.12,0.03-0.08,0.12-0.08,0.12
		c0.03,0.16,0.12,0.2,0.12,0.2c-0.09,0.16,0.06,0.23,0.06,0.23l0.02,0.27l0.11,0.06v0.17l0.06,0.11h0.25l-0.02-0.39
		c-0.21-0.25,0.18-0.31,0.2-0.22c0.02,0.09,0.18,0.14,0.18,0.14c0.03,0.23,0.29,0.37,0.37,0.14c0.08-0.23,0.14-0.09,0.18,0.02
		c0.05,0.11,0.34,0.37,0.34,0.37h0.23l0.03,0.22c0.26-0.02,0.34,0.02,0.45,0.37c0.11,0.36,0.4,0.45,0.4,0.45l0.21-0.02
		c0-0.19,0.22,0.03,0.22,0.13s0.41,0.45,0.41,0.45l0.41,0.09l0.38,0.31l0.29-0.03h0.12c0.08-0.27,0.45,0.02,0.48,0.11
		c0.03,0.09,0.28,0.25,0.31,0.17c0.03-0.08,0.2-0.03,0.23,0.2s0.14,0.19,0.14,0.19l0.88-0.02l0.31-0.27l0.78-0.02
		c0.4-0.02,0.15-0.56,0.08-0.56c-0.14-0.11,0.05-0.56,0.05-0.56l-1.12-1.04c-0.26,0-0.03-0.37-0.03-0.37
		C16.6,33.2,16.35,33,16.35,33c0.03-0.19-0.11-0.41-0.11-0.41c-0.28-0.19-0.2-0.55-0.2-0.55V31.8c-0.23-0.22,0.09-0.25,0.09-0.25
		c0.11-0.19-0.08-0.33-0.08-0.33l-0.02-0.2l-0.25-0.03l-0.03-0.73l-0.55-0.79c-0.11-0.03-0.03-0.22-0.03-0.22
		c0.14-0.08-0.03-0.27-0.03-0.27l-0.02-0.34l0.32-0.03l0.08-0.13h0.15l-0.02-0.41c0.08-0.2,0.26-0.09,0.26-0.09L16.15,28l0.12-0.23
		l0.03-0.19l-0.17-0.02c-0.18-0.11-0.09-0.51-0.09-0.51c0.29-0.44,0.63-0.19,0.63-0.19l0.22-0.02c0.32,0.22,0.03,0.62,0.03,0.62
		c-0.06,0.09-0.03,0.39-0.03,0.39l0.08,0.5l-0.2,0.17c-0.17,0.09-0.17,0.31,0.02,0.36c0.12,0.02,0.08,0.31-0.11,0.11
		c-0.28,0,0.15,0.25,0.03,0.19c0.28,0.14,0.22-0.13,0.22-0.13l0.37-0.3c0.14-0.11,0.38,0.23,0.38,0.28l0.61,0.02
		c0.17,0.11,0.23,0.39,0.23,0.39c0.17-0.22,0.52-0.02,0.26,0.11c0.25,0.16,0.25,0.3,0.25,0.3c0.2-0.06,0.2,0.09,0.2,0.14l0.06-0.23
		c-0.23-0.17,0.31-0.23,0.15,0.08l-0.09,0.14l0.15,0.12l0.02,0.36c0.34-0.03,0.25-0.45,0.25-0.45l0.15-0.03
		c0-0.14,0.11-0.06,0.11-0.06c-0.11-0.53,0.25-0.62,0.25-0.62c0.2-0.05,0.21-0.47,0.21-0.47c-0.14-0.06-0.06-0.28,0.09-0.09
		c0.15,0.19-0.09-0.37-0.09-0.37l-0.12-0.11l-0.17-0.02l-0.02-0.17H19.9l-0.05,0.22l-0.11,0.03l-0.03-0.06l-0.05,0.17h-0.28
		l-0.02-0.19l0.17-0.05l0.06-0.09l0.05-0.25h0.2l0.26-0.08c0.02-0.26,0.15-0.2,0.15-0.2l0.09,0.08l0.14,0.11l0.02,0.09l-0.09,0.05
		l-0.02,0.13l0.05,0.17h0.12c0.05-0.25,0.37-0.25,0.46-0.09l0.09-0.22c-0.22-0.11,0-0.28,0.06-0.2l0.2-0.2c0,0,0.11,0.14,0-0.05
		c-0.11-0.19,0.08-0.28,0.08-0.28c-0.03-0.19,0.2-0.16,0.2-0.16l0.02-0.25l-0.22-0.02c-0.05,0.22-0.23,0.03-0.14-0.02
		s0.18-0.14,0.18-0.14V26.4l0.09-0.03l0.02-0.16h0.23l0.2-0.09l0.05-0.08l0.21-0.02l0.31-0.28l-0.03-0.12c-0.18,0,0-0.14,0-0.14
		L22.62,25.25z"/>
	<path class="st0" d="M16.43,28.34l-0.28-0.03l0.02,0.11h0.08c0.12,0.22,0.02,0.75,0.02,0.75s-0.18,0.02-0.21-0.08
		c-0.03-0.09-0.11,0.2-0.05,0.25c0.06,0.05,0.28,0,0.29,0.17s0.14-0.11,0.14-0.11V28.34z"/>
	<polygon class="st0" points="16.43,29.66 16.52,29.65 16.54,29.54 16.31,29.69 16.15,29.6 16.15,29.98 16.4,30.3 16.49,30.08 
		16.52,29.94 16.41,29.9 	"/>
	<polygon class="st0" points="16.55,30.65 16.55,30.49 16.44,30.51 16.43,30.63 	"/>
	<polygon class="st0" points="16.41,31.39 16.41,31.29 16.28,31.3 16.28,31.41 	"/>
	<polygon class="st0" points="16.59,30.92 16.66,30.85 16.59,30.78 16.53,30.85 	"/>
	<polygon class="st0" points="16.7,31.11 16.77,31.18 16.7,31.24 16.64,31.18 	"/>
	<polygon class="st0" points="16.71,29.33 16.77,29.4 16.71,29.46 16.64,29.4 	"/>
	<polygon class="st0" points="21.93,27.09 21.76,27.08 21.73,27.15 21.65,27.15 21.64,27.28 21.73,27.28 21.74,27.37 21.68,27.43 
		21.65,27.51 21.53,27.54 21.25,27.81 21.24,27.93 21.16,28.04 21.07,28.28 20.75,28.29 20.68,28.57 20.73,28.81 21.01,28.92 
		21.04,28.76 21.13,28.71 21.15,28.56 21.21,28.45 21.3,28.34 21.33,28.21 21.48,28.12 21.67,28.09 21.74,28 21.77,27.81 
		21.79,27.67 21.85,27.57 22.04,27.5 22.04,27.2 21.94,27.2 	"/>
	<path class="st0" d="M22.36,28.15v-0.22l-0.03-0.2l-0.23-0.11l-0.17,0.16L21.9,28v0.14l-0.15,0.03l-0.03,0.42l-0.12,0.05l0.02,0.16
		l-0.17,0.05l-0.17,0.05l-0.03,0.2l-0.12,0.08l-0.06,0.19l-0.08,0.45c0,0,0.14,0.27,0.21,0.14c0.08-0.13,0.2-0.14,0.2-0.14
		l0.05-0.11l0.41,0.02c0.03-0.17,0.23-0.11,0.23-0.03l0.15,0.02l0.11-0.17h0.17l0.02-0.19l0.08-0.05v-0.28
		c0.25-0.08,0.21-0.31,0.21-0.31l0.06-0.08l-0.03-0.11c-0.12-0.05-0.06-0.16,0.02-0.13l-0.11-0.14c-0.09,0.08-0.17-0.09-0.17-0.09
		H22.36z"/>
	<path class="st0" d="M22.6,30.04c-0.02,0.19-0.25,0.25-0.25,0.25l-0.17-0.05l-0.09-0.08l-0.02-0.22l0.14-0.02l0.03,0.09L22.6,30.04
		z"/>
	<path class="st0" d="M23.43,29.04c0.03,0.14,0.03-0.22,0.09-0.2l0.02-0.22l-0.28,0.2C23.4,28.84,23.42,28.98,23.43,29.04z"/>
	<path class="st0" d="M24.25,28.23c0.06,0.14,0.05,0.34,0.28,0.5l-0.12,0.11l-0.29-0.39v-0.2C24.16,28.12,24.22,28.17,24.25,28.23z"
		/>
	<polygon class="st0" points="24.29,33.02 24.34,33.09 24.45,32.92 24.36,32.89 24.25,32.97 	"/>
	<line class="st0" x1="23.86" y1="32.72" x2="23.86" y2="32.91"/>
	<polygon class="st0" points="26.08,32.49 26.21,32.42 26.16,32.34 26.04,32.41 	"/>
	<path class="st0" d="M30.53,35.74l0.14,0.06l0.02,0.26c0.18,0.19,0.78,0.03,0.78-0.02l-0.03-0.58l-0.08-0.08l-0.02-0.39
		c0.06-0.2-0.29-0.5-0.32-0.44l-0.23,0.08c0,0.06-0.12,0.37-0.06,0.48c0.06,0.11-0.05,0.11-0.06,0.22
		C30.65,35.46,30.5,35.65,30.53,35.74z"/>
	<path class="st0" d="M30.19,35.12c-0.03,0.12-0.14,0.19-0.2,0.14l0.11,0.14h0.15l0.05-0.27L30.19,35.12z"/>
	<rect x="29.48" y="32.26" class="st0" width="0.11" height="0.3"/>
	<path class="st0" d="M31.07,29.26c-0.07-0.09,0.31-0.25,0.37-0.06s0,0.16-0.06,0.14S31.16,29.38,31.07,29.26z"/>
	
		<rect x="31.43" y="27.15" transform="matrix(0.1678 -0.9858 0.9858 0.1678 -0.6516 53.6915)" class="st0" width="0.09" height="0.17"/>
	<polygon class="st0" points="30.71,27.41 30.83,27.49 30.85,27.5 30.88,27.49 30.97,27.44 30.98,27.47 31.07,27.43 31.03,27.35 
		31.01,27.31 30.97,27.33 30.85,27.4 30.75,27.33 	"/>
	<path class="st0" d="M31.54,23.65h-0.23c0,0,0.08,0.03-0.14-0.17c-0.22-0.2-0.35,0.05-0.35,0.05l-0.25,0.03v0.25l-0.12,0.05
		L30.47,24l0.17-0.02l0.05,0.11c0.05-0.08,0.43,0.02,0.4,0.2c-0.01,0.08,0.38,0.28,0.34,0.53c0.2,0.03,0.15,0.23,0.15,0.23
		l0.26,0.03l0.08-0.16l0.08,0.02v-0.09l-0.17-0.05l-0.03-0.5l-0.11-0.08l0.03-0.12l-0.12-0.05l0.06-0.2L31.54,23.65z"/>
	<path class="st0" d="M32.22,25.24l-0.12-0.02l-0.28,0.05l-0.15,0.3c0,0,0.08,0.05,0.14,0.16c0.06,0.11,0.09,0.75-0.09,0.86
		c-0.18,0.11,0.02,0.05,0.02,0.05l-0.03,0.34c0.05,0.16,0.12,0.08,0.17,0l0.15-0.17c0.06-0.08,0.15-0.22,0.17-0.33
		c0.02-0.11,0.09-0.28,0.05-0.33l0.05-0.27c0,0,0.06-0.13,0-0.25c-0.06-0.13,0.02-0.27,0.06-0.33L32.22,25.24z"/>
	<polygon class="st0" points="32.41,25.87 32.42,25.75 32.51,25.76 32.5,25.88 	"/>
	<polygon class="st0" points="32.4,26.3 32.32,26.26 32.36,26.17 32.45,26.21 	"/>
	<path class="st0" d="M32.27,25.06l-0.06-0.14l0.03-0.19l-0.11-0.14l-0.05-0.2l-0.12-0.11L31.93,24l-0.09-0.16l0.12-0.14l0.03-0.2
		l0.11,0.19l0.06,0.33c0.08,0.05-0.02,0.2,0.11,0.2c0.12,0,0.05,0.3,0.05,0.3l0.05,0.23l0.03,0.39L32.27,25.06z"/>
	<path class="st0" d="M31.27,22.54l0.14,0.17c0,0.06-0.03,0.11,0.06,0.13c0.09,0.02,0.15-0.02,0.18,0.06l0.02,0.27l0.09,0.16
		l0.09,0.06l0.09-0.17l-0.14-0.2l-0.08-0.25l-0.15-0.08l-0.12-0.16L31.27,22.54z"/>
	<polygon class="st0" points="31.42,22.4 31.27,22.26 31.1,22.2 31.01,22.06 30.96,21.88 31.08,21.87 31.21,22.01 31.36,22.15 
		31.53,22.24 31.58,22.35 	"/>
	<path class="st0" d="M29.62,24.16h-0.46c0-0.06,0.05-0.28,0.18-0.23c0.14,0.05,0.15-0.28,0.15-0.28s-0.12,0.02-0.02-0.05
		c0.11-0.06,0-0.16-0.05-0.2l-0.09-0.13h0.21c0.09-0.06,0.12-0.36,0.12-0.36c0.18,0.06,0.28-0.06,0.28-0.06l0.09,0.17l-0.08,0.16
		l0.08,0.23l-0.2-0.05v0.16l-0.11,0.19c-0.03,0-0.23,0.03-0.06,0.13c0.17,0.09,0.35,0.05,0.35,0.05l0.18,0.06l-0.09,0.09L29.69,24
		L29.62,24.16z"/>
	<polygon class="st0" points="28.64,24.3 28.93,24.32 28.83,24.43 28.64,24.46 	"/>
	<path class="st0" d="M30.62,22.99c0.12-0.06,0.38-0.06,0.37-0.16s0.15-0.12,0.15-0.12l0.05,0.19l0.14,0.09l0.02,0.17
		c0,0,0.05-0.03-0.12,0.02c-0.17,0.05-0.06,0.13-0.06,0.13l-0.37,0.02l-0.05-0.16L30.62,22.99z"/>
	<path class="st0" d="M30.02,22.15c0.09,0-0.03,0.36,0.21,0.33s0.02,0.11,0.2,0.12c0.18,0.02,0.14-0.14,0.2-0.25
		c0.06-0.11,0.03-0.17-0.08-0.2c-0.11-0.03-0.11-0.03-0.14-0.16c-0.03-0.13-0.15-0.16-0.15-0.16l-0.05-0.19l-0.2,0.13l-0.2,0.26
		C29.82,22.24,29.93,22.15,30.02,22.15L30.02,22.15z"/>
	<polygon class="st0" points="30.43,23.47 30.48,23.37 30.56,23.42 30.51,23.51 	"/>
	<rect x="30.27" y="23.32" class="st0" width="0.09" height="0.11"/>
	
		<rect x="30.26" y="21.25" transform="matrix(0.9942 -0.1074 0.1074 0.9942 -2.1139 3.3781)" class="st0" width="0.09" height="0.14"/>
	<rect x="30.09" y="22.69" class="st0" width="0.09" height="0.08"/>
	<polygon class="st0" points="29.84,22.69 29.83,22.6 29.99,22.58 30,22.68 	"/>
	<polygon class="st0" points="28.58,24.19 28.49,24.16 28.54,24.05 28.62,24.08 	"/>
	<polygon class="st0" points="28.09,23.91 28.08,23.82 28.24,23.8 28.25,23.89 	"/>
	
		<rect x="25.09" y="23.89" transform="matrix(0.9989 -0.0463 0.0463 0.9989 -1.0802 1.1942)" class="st0" width="0.34" height="0.09"/>
	<polygon class="st0" points="24.86,24.02 24.83,23.88 24.92,23.85 24.96,24 	"/>
	
		<rect x="24.78" y="24.01" transform="matrix(0.9497 -0.3131 0.3131 0.9497 -6.2856 8.9771)" class="st0" width="0.05" height="0.09"/>
	<path class="st0" d="M25.57,23.85l-0.02,0.11l0.17,0.02l0.08,0.11l0.17,0.09l0.23-0.12l0.02-0.2c-0.06,0.02-0.18,0.11-0.2,0.02
		c-0.02-0.09-0.2-0.05-0.2-0.05L25.57,23.85z"/>
	<path class="st0" d="M26.34,23.68c0,0.05-0.03,0.11,0.06,0.12c0.09,0.02,0.26-0.06,0.28,0.03c0.02,0.09,0.02,0.16,0.14,0.2
		c0.12,0.05,0.2,0.06,0.29,0.06c0.09,0,0.29-0.03,0.29-0.03l0.26,0.08c0.17,0.17,0.28,0.22,0.32,0.14l-0.03-0.31l-0.31-0.3
		c-0.08,0.06-0.09,0-0.23,0.05c-0.14,0.05-0.43,0.02-0.45-0.05l-0.23-0.16c0-0.06-0.15-0.14-0.14-0.05
		c0.02,0.09-0.11,0.14-0.14,0.11L26.34,23.68z"/>
	<path class="st0" d="M29.87,21.68l0.11-0.34c-0.15-0.03-0.12-0.2-0.12-0.2c-0.02-0.14-0.23-0.3-0.31-0.25l-0.05-0.33l0.2-0.05
		c0.06,0.05-0.52-0.78-0.65-0.7c-0.12,0.08-0.4-0.08-0.38-0.22c0.02-0.14-0.55-0.61-0.55-0.61s-0.18-0.12-0.21-0.03
		c-0.03,0.09-0.09,0.16,0,0.2c0.09,0.05,0.08-0.08,0.18,0.03s0.31,0.25,0.23,0.34c-0.08,0.09-0.17,0.12-0.17,0.12l0.11,0.13h0.17
		l0.03,0.26c0,0,0.18,0.09,0.23,0.2c0.05,0.11,0.05,0.17,0,0.23c-0.05,0.06-0.14,0.17-0.12,0.28s0.14,0.16,0.14,0.16l0.12,0.02
		l0.09,0.05v0.2c0.12-0.03,0.32,0.14,0.31,0.25c-0.02,0.11,0.03,0.05,0.18,0.16c0.15,0.11,0.11,0.12,0.21,0.2
		C29.73,21.87,29.82,21.82,29.87,21.68z"/>
	<path class="st0" d="M27.34,19.56c-0.02-0.06-0.05-0.28,0.05-0.27s0.03,0,0.14,0.05c0.11,0.05,0.12-0.08,0.12-0.08h0.17l0.22,0.17
		L28,19.58l-0.15,0.02c-0.08-0.12-0.23-0.08-0.2,0.03c0.03,0.11-0.08,0.31-0.14,0.33c-0.06,0.02-0.26,0.02-0.25-0.08
		C27.27,19.78,27.34,19.56,27.34,19.56z"/>
	<path class="st0" d="M27.21,19.14v-0.12l-0.09-0.13l-0.18-0.16l-0.26-0.12c0,0-0.26-0.25-0.17-0.22s0.05-0.11,0.05-0.11l-0.23,0.02
		l-0.03-0.16h-0.18c0,0.05,0.06,0.05,0.09,0.14c0.03,0.09,0.02,0.25,0.15,0.28c0.14,0.03,0.17,0.06,0.18,0.12l0.18,0.08l0.12,0.06
		L27.21,19.14z"/>
	<polygon class="st0" points="25.55,17.55 25.51,17.42 25.38,17.39 25.38,17.53 	"/>
	<path class="st0" d="M25.51,16.9c-0.16-0.12,0.21,0.09,0.21,0.09c0.12,0,0.2,0.09,0.2,0.14l0.17,0.03l0.02-0.11l-0.12-0.16
		l-0.11-0.08l-0.17-0.06L25.51,16.9z"/>
	<path class="st0" d="M28.33,16.99c-0.04,0.14-0.06,0.33-0.14,0.33l-0.05,0.2l0.26,0.02l0.06,0.17c0.23-0.02,0.32,0.3,0.29,0.37
		l0.09,0.08l-0.03,0.31c-0.03,0.06,0.2,0.11,0.26,0.2c0.06,0.09-0.03,0.41-0.08,0.42l0.11,0.14c-0.02,0.08,0.05,0,0.06,0.12
		c0.02,0.13,0.05,0.39,0.05,0.39l0.21,0.02c0.03-0.2,0.43-0.21,0.49-0.19c0.26,0.09,0.46,0.5,0.46,0.59c0,0.09-0.17,0.11-0.17,0.11
		l0.03,0.45c0.26,0.08,0.48,0.45,0.45,0.51l0.18,0.05c0.03-0.28,0.29-0.19,0.31-0.09c0.02,0.09,0.06,0.3,0.06,0.3l0.08,0.14
		l0.11,0.11l0.17-0.02l0.05,0.09l0.2,0.03l0.18,0.23l0.31,0.05l0.17,0.14l0.11,0.2l0.2,0.11l0.09,0.2l0.15,0.13l0.02,0.14l0.17,0.02
		l0.05,0.19l0.28-0.02l0.15-0.11c0.2-0.11,0.34-0.25,0.35-0.31c0.02-0.06,0.05-0.3,0.2-0.25c0.15,0.05,0.05-0.34,0.05-0.34
		l-0.2-0.23l-0.2-0.3l-0.18-0.25l-0.11-0.23L33.4,21l-0.03-0.14l-0.18-0.02l-0.37-0.45l0.02-0.13l-0.11-0.02v-0.17l-0.11-0.06
		L32.45,20l-0.34-0.37l-0.03-0.17h-0.17l0.03-0.33c0.11-0.14,0.05-0.41,0.05-0.41s-0.22,0.11-0.32,0.06s0.05-0.16,0.05-0.16V18.5
		l-0.09-0.09l-0.28-0.02l-0.06-0.25l-0.02-0.27l-0.11-0.05l-0.02-0.09l-0.17,0.02v-0.19l-0.09-0.03l-0.09-0.05l-0.02-0.19
		l-0.34-0.02l-0.11-0.16l-0.12-0.19l-0.38-0.03l-0.09-0.09l-0.15-0.03l-0.11-0.05l-0.05,0.08l-0.29,0.02l-0.02,0.09
		C28.96,17,28.35,16.94,28.33,16.99z"/>
	<path class="st0" d="M29.95,16.58c-0.02-0.12,0.31-0.23,0.38-0.14c0.08,0.09,0.29,0.11,0.32,0.58c0.01,0.17-0.28-0.17-0.28-0.17
		l-0.23-0.08C30.02,16.74,29.96,16.66,29.95,16.58z"/>
	<polygon class="st0" points="25.44,16.77 25.36,16.74 25.42,16.6 25.5,16.63 	"/>
	<path class="st0" d="M24.65,15.24l-0.2-0.2v-0.17l-0.06-0.06l-0.06-0.22l-0.2-0.06l-0.2,0.08l-0.21,0.14l-0.23,0.03l-0.12,0.14
		l0.49,0.05l0.09,0.16l0.35,0.03l0.23,0.23C24.72,15.45,24.77,15.35,24.65,15.24z"/>
	<path class="st0" d="M24.62,14.48c-0.03-0.14-0.23,0.17-0.03,0.23c0.2,0.06,0.4,0,0.4,0l0.05-0.09l0.77,0.02l0.09-0.16l0.26-0.03
		l-0.06-0.19l-0.23,0.02h-0.28c-0.02-0.11-0.26-0.06-0.28,0l-0.11,0.08l-0.35,0.03C24.82,14.48,24.63,14.54,24.62,14.48z"/>
	<path class="st0" d="M23.1,17.11c0.24,0.07,0.32,0.02,0.34-0.04c0.02-0.06,0.03-0.08,0.12-0.09c0.09-0.02-0.02-0.2-0.11-0.19
		s-0.18-0.03-0.2-0.11c-0.02-0.08-0.17-0.28-0.18-0.12c-0.02,0.16-0.11,0.16-0.09,0.26C22.99,16.93,23.03,17.09,23.1,17.11z"/>
	<path class="st0" d="M21.33,17.28l0.35-0.02c0.05,0.05,0.02,0.13,0.15,0.13s0.08,0.09,0.06,0.14l-0.18-0.02l-0.25-0.06L21.33,17.28
		z"/>
	<polygon class="st0" points="26.55,13.94 26.43,14.04 26.35,13.96 26.29,14.03 26.4,14.14 26.43,14.17 26.46,14.14 26.61,14.02 	
		"/>
	<polygon class="st0" points="25.71,13.66 25.61,13.6 25.56,13.68 25.68,13.75 25.71,13.77 25.73,13.75 25.9,13.64 25.85,13.57 	"/>
	<polygon class="st0" points="25.21,16.87 25.19,16.86 25.04,16.85 25.03,16.94 25.16,16.95 25.25,17.11 25.33,17.06 25.22,16.89 	
		"/>
	<path class="st0" d="M20.13,21.21l0.02,0.17h0.23c0.09,0-0.08-0.11-0.08-0.11L20.13,21.21z"/>
	<polygon class="st0" points="20.42,21.22 20.48,21.15 20.58,21.22 20.52,21.3 	"/>
	<polygon class="st0" points="17.63,18.3 17.69,18.24 17.78,18.33 17.72,18.4 	"/>
	<polygon class="st0" points="22.09,38.37 21.93,38.29 21.89,38.37 21.99,38.42 21.96,38.46 22.02,38.52 22.1,38.44 22.14,38.4 	"/>
	<polygon class="st0" points="20.9,37.25 20.84,37.17 20.75,37.25 20.7,37.29 20.75,37.33 20.86,37.4 20.91,37.33 20.85,37.28 	"/>
	<polygon class="st0" points="32.32,34.29 32.2,34.17 32.17,34.26 32.17,34.26 32.2,34.28 32.22,34.36 32.2,34.38 32.27,34.45 	"/>
	<polygon class="st0" points="32.46,33.99 32.31,33.98 32.32,33.84 32.47,33.87 	"/>
	<path class="st0" d="M36.02,32.78c0.07-0.04,0.15-0.12,0.14,0.06c-0.01,0.18-0.08,0.12-0.14,0.18
		C35.97,33.07,35.93,32.84,36.02,32.78z"/>
	<polygon class="st0" points="36.8,32.12 36.8,32.09 36.78,32 36.7,32.04 36.71,32.1 36.74,32.18 36.8,32.19 36.79,32.1 	"/>
	<path class="st0" d="M36.6,32.19c0.02,0.09,0.06,0.19,0.06,0.19l0.09-0.03l-0.06-0.18L36.6,32.19z"/>
	<polygon class="st0" points="36.26,32.56 36.17,32.55 36.26,32.73 36.27,32.64 36.28,32.64 	"/>
	<polygon class="st0" points="35.86,30.7 35.81,30.63 35.57,30.69 35.62,30.77 35.77,30.72 35.77,30.72 	"/>
	<path class="st0" d="M31.61,25.72l-0.2,0.09l-0.05,0.17l-0.08,0.06c0,0,0.02,0.05,0,0.16s-0.15,0.17-0.15,0.17l-0.06,0.08h-0.42
		c-0.14-0.06-0.05-0.25,0.05-0.23c0.09,0.02-0.02-0.27-0.02-0.27l0.12-0.02l0.06-0.28l-0.08-0.14l-0.2-0.19h-0.31l-0.05,0.09
		l-0.17,0.03l-0.02,0.16c-0.09,0.11-0.45,0.34-0.29-0.05l0.05-0.09v-0.14l-0.28-0.02l-0.14-0.11l-0.02-0.14l-0.32-0.36l-0.38-0.05
		l-0.03-0.08l-0.23-0.03c-0.28-0.14-0.52-0.02-0.48,0.22c0.05,0.23,0.12,0.33-0.03,0.33c-0.15,0-0.18-0.13-0.18-0.13l-0.12,0.02
		v0.25l-0.11,0.11l-0.14-0.23c0.03-0.05-0.22-0.34,0.03-0.39c0.25-0.05-0.02-0.19,0.08-0.22l0.12-0.06h0.12l0.08-0.06l-0.2-0.03
		l-0.12-0.02l-0.23-0.02c-0.23,0.16-0.28,0.34-0.28,0.34c-0.12,0.23-0.41-0.09-0.31-0.22c0.11-0.13-0.34-0.02-0.42,0.05l-0.31,0.03
		c-0.05,0.14-0.26-0.02-0.2-0.11s0.06-0.16,0.06-0.16l-0.08-0.02l-0.09,0.17c-0.21,0-0.28,0.12-0.23,0.2
		c0.05,0.08-0.06-0.02-0.09,0.09c-0.03,0.11,0.02,0.11,0.11,0.16s-0.05,0.05,0.02,0.12c0.06,0.08,0.25,0,0.14,0.11
		c-0.11,0.11-0.32,0.06-0.32,0.06c-0.02,0.14-0.31,0.11-0.34,0.06l-0.26-0.33l-0.29-0.02c-0.03-0.22,0.14-0.11,0.2-0.28
		s0.09-0.45,0.09-0.45l-0.26,0.06l-0.17,0.12l-0.08,0.11l-0.09,0.09l-0.02,0.14c-0.12,0.13-0.43,0.02-0.48-0.03l-0.18-0.08
		l-0.18-0.12l-0.22,0.09L22.9,24.6h-0.23l-0.02,0.19l0.42,0.05l0.03,0.39l-0.17-0.06h-0.11l-0.05-0.09l-0.09-0.02v0.34l0.09,0.08
		l0.08,0.08L23,25.56l0.03,0.19l0.38,0.02l0.05,0.08l0.23,0.02l0.45,0.45l-0.03,0.14l-0.08,0.05c0.03,0.11-0.2,0.05-0.2,0.05v0.09
		l0.11,0.02l0.11,0.06l0.15-0.26c0.17-0.11,0.25,0.05,0.26,0.14c0.02,0.09-0.08,0.08-0.08,0.08v0.22l0.09,0.03
		c0.15,0.19-0.06,0.3-0.06,0.3l-0.05,0.16c-0.05,0.14-0.22,0.11-0.22,0.11l-0.06,0.09l-0.18,0.05l0.36,0.05
		c0.03-0.12,0.13-0.16,0.17-0.09l0.05,0.17l0.09,0.02l-0.02,0.17l0.09,0.03v0.5l0.11,0.12c0.18-0.08,0.18,0.05,0.09,0.11
		c-0.09,0.06-0.03,0.34-0.03,0.34l-0.08,0.08v0.12l-0.09,0.06v0.17c-0.15-0.08-0.34-0.05-0.38,0c-0.14-0.09-0.43-0.06-0.43,0.02
		c0.09,0.13-0.11,0.16-0.11,0.16l-0.11,0.12c0.08,0.16-0.08,0.17-0.08,0.17v0.3l-0.18,0.17l0.02,0.41c0,0.11,0.23,0.13,0.28,0.06
		L23.89,31h0.14l0.03-0.28l-0.09-0.05v-0.45l0.15-0.17c0.18-0.06,0.12,0.41,0.12,0.45c0.02,0.17,0.09,0.16,0.17,0.12
		c0.15-0.06,0.03,0.17-0.09,0.16c-0.12-0.02-0.05,0.16-0.05,0.16l0.08,0.03l-0.14,0.11l-0.12,0.14l-0.15-0.05l-0.18-0.02l-0.06-0.11
		l-0.11-0.02l-0.02,0.22l-0.08,0.09l-0.18,0.19c0.25,0-0.03,0.17-0.09,0.17c0.14,0.05-0.02,0.19-0.37,0.08v0.11l-0.12,0.02
		l0.11,0.12l0.12,0.02l-0.05,0.27c0,0.2-0.51,0.06-0.55,0.02l-0.02,0.28l-0.09,0.02l0.02,0.19l-0.02,0.27l0.17-0.03v0.11l0.42,0.02
		l0.6-0.64l0.35-0.08c0.03-0.16,0.18,0.03,0.18,0.03c0.15-0.02,0.18,0.09,0.18,0.09l0.2,0.03c0.17,0.05,0.07,0.06,0.08,0.13
		c0.02,0.09,0.09,0.06,0.09,0.06l0.03-0.2l0.09,0.02l-0.09-0.11l-0.17-0.08l-0.18-0.08c-0.12-0.17,0.03-0.14,0.15-0.12h0.2
		l0.23,0.39l0.11,0.09l0.14-0.02l0.05,0.11h0.14l0.05,0.09h0.28l0.02-0.14l-0.26-0.05l-0.02-0.16l-0.18-0.05
		c-0.06-0.26,0.05-0.34,0.12-0.22l0.09,0.02l-0.03-0.23l0.11-0.03l-0.03-0.33l-0.09-0.03v-0.11l0.38,0.02
		c-0.03-0.2,0.02-0.3,0.02-0.3h0.11l0.02,0.08l0.47,0.04l0.33-0.38l0-0.08L26.4,30.9l-0.02-0.37c-0.02-0.06,0.26-0.16,0.22-0.02
		c-0.05,0.14,0,0.2,0,0.2c0.2-0.19,0.37,0.02,0.35,0.06l0.18,0.05c0.08-0.05,0.17,0.14,0.14,0.23s-0.31,0.08-0.32-0.02
		c-0.02-0.09-0.06-0.06-0.09-0.02l-0.25,0.03l-0.03-0.02l-0.33,0.38l0.02,0c0.18,0.11,0.09,0.25,0.03,0.28l-0.17,0.03l-0.03,0.06
		l-0.4,0.03l-0.03,0.16c-0.2-0.03-0.28,0.19-0.23,0.3c0.05,0.11,0,0.2,0,0.2l0.17,0.08l0.21-0.06c0.03-0.16,0.17-0.19,0.29-0.28
		c0.12-0.09,0.32,0.17,0.26,0.3c-0.06,0.12-0.06,0.17-0.06,0.17l0.02,0.14l-0.15,0.06l-0.12,0.06l-0.02,0.08h-0.41l-0.08,0.08
		l-0.2,0.02l-0.06,0.09l-0.14,0.02c0,0-0.23,0.11-0.14,0.23c0.09,0.13-0.38,0.11-0.49-0.06c-0.03,0.16-0.2,0.02-0.2,0.02l-0.17-0.05
		l-0.02-0.23c-0.03-0.16-0.32-0.16-0.31-0.05c0.02,0.11-0.55,0.05-0.55,0.05l-0.18,0.09l-0.17,0.1l-0.02,0.08l-0.28,0.03l-0.12,0.06
		l-0.05-0.09h-0.12l-0.12,0.17c-0.32,0.02-0.63,0.2-0.6,0.28L21.5,34l-0.14,0.05l-0.09,0.14l-0.18,0.06l-0.03,0.33l-0.09,0.06v0.14
		l-0.11,0.03v0.08L20.7,34.9l0.09,0.23l0.12,0.06c0.21,0.03,0.12,0.3,0.12,0.3l0.12,0.02l0.06,0.17l0.12,0.25
		c0.05,0.19,0.18,0.14,0.25,0.13l0.12,0.19l0.61,0.02c0,0-0.03,0.06,0.08,0.09c0.11,0.03,0.81,0.06,0.84,0.02
		c-0.03-0.14,0.38-0.17,0.55-0.05c0.17,0.12,0.4,0.05,0.4,0.05l0.23,0.28l0.15,0.34l0.26,0.08l0.18,0.05l0.06,0.27l0.14,0.02
		l0.05,0.17c0.17,0.12-0.05,0.39-0.05,0.39v0.34l0.12,0.06l-0.02,0.13l0.2,0.2l0.23,0.02l0.58,0.62l0.46,0.14l0.08,0.25l0.12-0.02
		l0.09-0.08l0.37-0.02l0.18-0.17l0.2-0.03l1.71-1.45l-0.15-0.09v-0.34c0.28-0.2,0.29-0.56,0.03-0.59c-0.2-0.02-0.11-0.23,0.08-0.27
		l0.11-0.05v-0.14l0.35-0.33V35.9l-0.77-0.64c-0.34-0.12,0-0.87,0.23-0.86c0.23,0.02-0.02-1.15-0.02-1.15l-0.12-0.06l0.03-0.37
		h-0.17l-0.28,0.36l-0.08,0.25c-0.03,0.33-0.98,0.27-1.03,0.22l-0.37-0.19l-0.29-0.14l-0.26-0.03l-0.2-0.11l-0.31-0.11l0.23-0.05
		l-0.05-0.19l0.4,0.2l0.25,0.05l0.06,0.08c0,0,0.12-0.02,0.2,0.08c0.08,0.09,0.48,0.02,0.48,0.02l0.11,0.09l0.17,0.06l0.48,0.02
		l0.02-0.3l0.09-0.09l-0.02-0.19l0.11-0.09V32.6l0.09-0.03l0.02-0.34l0.08-0.02v-0.75l-0.23-0.22l-0.26,0.08l-0.11,0.11
		c-0.05,0,0.06,0.14,0.03,0.23c-0.03,0.09-0.15,0.09-0.15,0.09l-0.23,0.06l-0.06,0.08H27.8l-0.03-0.2l0.28-0.08l0.15-0.08l0.08-0.16
		c0.02-0.16,0.2-0.14,0.2-0.14s0.35-0.3,0.37-0.44c0.02-0.14,0.14-0.53,0.35-0.53h0.4c0.15-0.06,0.11-0.27,0.11-0.27l0.2-0.03
		l0.03,0.11l0.31-0.02l0.17-0.11l0.32-0.11c0.02-0.11,0.4-0.06,0.4-0.06l0.05-0.14l-0.31-0.36l-0.32-0.14
		c-0.25-0.06-0.23-0.41-0.23-0.41l-0.09-0.22c0-0.13-0.23-0.39-0.28-0.36c-0.23-0.17-0.06-0.37,0-0.39l0.22-0.23l0.08-0.22
		l0.26-0.08l0.03-0.2l-0.14-0.02l0.23-0.28l0.63-0.03l0.14-0.33l0.17-0.08l0.18-0.2L31.61,25.72z"/>
	<path class="st0" d="M23.1,31.34l0.09,0.06l0.02,0.08l-0.05,0.08l-0.03,0.12l-0.12-0.01l-0.13-0.02l-0.01,0.09l-0.2-0.05l0.06-0.07
		v-0.09l0.08-0.06l0.06-0.09l0.03-0.08l-0.08-0.07l-0.01-0.16l0.01-0.09c0.02-0.12,0.25-0.13,0.27-0.02c0.01,0.11,0,0.18,0,0.18
		l0.07,0.02l-0.07,0.07l-0.04,0.07L23.1,31.34z"/>
	<path class="st0" d="M22.33,31.46c0.03-0.07,0.12-0.37,0.21-0.28c0.09,0.09,0.15,0,0.15,0s0.05,0.05,0.02,0.14
		c-0.02,0.09-0.05,0.19-0.1,0.2l-0.17,0.06L22.33,31.46L22.33,31.46z"/>
	<polyline class="st0" points="32.76,13.02 26.03,11.34 27.33,9.07 27.31,8.92 27.17,8.91 24.9,10.2 23.21,3.48 23.1,3.38 
		22.98,3.48 21.3,10.2 19.03,8.91 18.88,8.92 18.86,9.07 20.16,11.34 13.43,13.02 13.34,13.14 13.43,13.26 20.16,14.94 18.86,17.21 
		18.88,17.35 19.03,17.37 21.3,16.08 22.98,22.8 23.1,22.9 23.21,22.8 24.9,16.08 27.17,17.37 27.31,17.35 27.33,17.21 26.03,14.94 
		32.76,13.26 32.85,13.14 32.76,13.02 	"/>
	<polygon class="st2" points="13.81,13.14 20.34,11.51 23.1,13.14 	"/>
	<polygon class="st2" points="32.39,13.14 25.85,14.77 23.1,13.14 	"/>
	<polygon class="st2" points="23.1,22.43 21.47,15.89 23.1,13.14 	"/>
	<polygon class="st2" points="23.1,3.85 24.73,10.39 23.1,13.14 	"/>
	<polygon class="st2" points="19.23,9.26 21.72,10.71 23.1,13.14 	"/>
	<polygon class="st2" points="27.01,17.05 24.52,15.6 23.1,13.14 	"/>
	<polygon class="st2" points="19.23,17.05 20.67,14.55 23.1,13.14 	"/>
	<polygon class="st2" points="27.01,9.26 25.57,11.76 23.1,13.14 	"/>
</g>
<g>
</g>
<g>
</g>
<g>
</g>
<g>
</g>
<g>
</g>
<g>
</g>
<g>
</g>
<g>
</g>
<g>
</g>
<g>
</g>
<g>
</g>
<g>
</g>
<g>
</g>
<g>
</g>
<g>
</g>
</svg>
