<?xml version="1.0" encoding="utf-8"?>
<svg version="1.1" xmlns="http://www.w3.org/2000/svg" width="680" height="175" xmlns:bx="https://boxy-svg.com">
  <path d="M 70.653 14.859 C 71.463 14.748 71.463 14.748 72.464 14.801 C 72.829 14.82 73.194 14.838 73.571 14.856 C 74.148 14.895 74.148 14.895 74.733 14.934 C 75.293 14.96 75.293 14.96 75.861 14.987 C 79.411 15.186 82.711 15.858 86.083 17.005 C 87.088 17.264 87.894 17.345 88.929 17.237 C 89.446 16.747 89.446 16.747 89.972 16.246 C 91.024 15.277 91.792 15.072 93.204 15.008 C 94.523 15.085 95.469 15.274 96.559 16.048 C 97.802 17.646 97.679 18.419 97.484 20.408 C 97.738 20.237 98.001 20.065 98.264 19.888 C 98.607 19.667 98.951 19.446 99.307 19.219 C 99.642 18.998 99.982 18.778 100.329 18.55 C 101.462 17.982 102.068 17.817 103.315 18.03 C 104.002 18.609 104.002 18.609 104.579 19.367 C 104.774 19.616 104.969 19.864 105.169 20.12 C 105.992 21.295 106.081 22.004 106.059 23.43 C 106.055 23.754 106.051 24.079 106.047 24.412 C 106.047 24.785 106.047 24.785 106.038 25.165 C 106.331 25.198 106.632 25.23 106.933 25.264 C 108.235 25.632 108.473 25.982 109.147 27.147 C 109.317 28.269 109.342 29.358 109.376 30.492 C 109.559 31.656 109.8 31.988 110.704 32.695 C 110.967 32.843 111.23 32.99 111.505 33.141 C 112.697 34.318 112.824 35.813 113.036 37.452 C 113.036 37.975 113.036 38.498 113.036 39.037 C 113.376 38.996 113.707 38.956 114.054 38.914 C 115.369 39.037 115.369 39.037 116.374 40.016 C 117.935 41.409 119.547 41.328 121.54 41.341 C 121.884 41.351 122.223 41.361 122.579 41.371 C 123.415 41.395 124.255 41.406 125.09 41.416 C 125.217 41.808 125.345 42.2 125.48 42.605 C 125.735 42.605 125.994 42.605 126.257 42.605 C 126.452 43.472 126.452 43.472 126.257 44.587 C 125.565 45.076 125.565 45.076 124.7 45.553 C 123.372 46.277 123.372 46.277 122.83 47.683 C 123.139 48.913 123.423 49.373 124.14 50.359 C 125.421 52.254 125.158 53.965 124.929 56.177 C 124.7 57.27 124.7 57.27 123.924 58.063 C 123.275 58.327 122.63 58.591 121.977 58.856 C 120.938 59.918 121.048 60.596 120.955 62.076 C 120.929 62.51 120.9 62.945 120.87 63.392 C 120.853 63.726 120.832 64.06 120.811 64.404 C 119.462 64.601 119.462 64.601 118.092 64.801 C 118.461 65.846 118.8 66.696 119.475 67.575 C 120.815 69.478 120.531 72.064 120.425 74.314 C 120.281 74.865 120.281 74.865 120.132 75.429 C 119.924 76.393 119.924 76.393 120.789 77.336 C 121.052 77.647 121.32 77.957 121.591 78.277 C 121.591 78.67 121.591 79.062 121.591 79.467 C 121.871 79.401 122.151 79.336 122.444 79.268 C 123.534 79.467 123.534 79.467 124.055 80.131 C 124.386 80.689 124.7 81.255 125.01 81.828 C 125.476 82.634 125.994 83.172 126.647 83.826 C 127.118 85.4 127.067 86.948 127.033 88.583 C 127.465 88.552 127.465 88.552 127.911 88.52 C 129.132 88.592 129.586 88.853 130.561 89.581 C 130.846 89.79 131.13 90 131.422 90.216 C 131.715 90.437 132.008 90.659 132.305 90.887 C 132.746 91.212 132.746 91.212 133.195 91.544 C 134.281 92.347 135.358 93.153 136.41 94.001 C 137.326 94.658 137.793 94.621 138.891 94.528 C 139.947 94.502 140.558 94.492 141.542 94.9 C 142.399 95.964 142.802 97.111 143.311 98.379 C 143.989 99.767 144.978 100.609 146.089 101.663 C 146.216 102.055 146.343 102.448 146.475 102.852 C 146.988 103.129 147.505 103.394 148.031 103.645 C 149.499 106.631 148.078 111.541 147.641 114.743 C 149.312 114.743 150.979 114.743 152.697 114.743 C 152.735 115.81 152.735 115.81 152.773 116.899 C 152.82 117.84 152.866 118.781 152.917 119.722 C 152.93 120.19 152.943 120.658 152.96 121.141 C 153.108 124.188 153.108 124.188 154.788 126.587 C 155.029 126.792 155.275 126.998 155.526 127.21 C 156.628 128.218 156.989 129.323 157.532 130.721 C 157.82 131.442 157.82 131.442 158.117 132.178 C 158.529 133.372 158.529 133.372 158.529 134.164 C 155.924 134.211 153.388 134.119 150.801 133.816 C 150.529 133.8 150.254 133.784 149.974 133.768 C 149.847 133.899 149.719 134.03 149.588 134.164 C 148.884 134.152 148.176 134.124 147.472 134.091 C 145.088 134.085 143.018 134.314 141.033 135.75 C 140.27 136.872 139.88 138.022 139.477 139.317 C 139.086 140.242 138.7 141.167 138.31 142.092 C 138.204 142.36 138.098 142.627 137.988 142.903 C 136.567 146.363 134.65 149.443 132.233 152.274 C 131.957 152.602 131.681 152.93 131.393 153.269 C 129.361 154.429 127.355 154.116 125.09 153.983 C 124.373 153.945 123.661 153.908 122.948 153.871 C 120.412 153.733 117.876 153.573 115.344 153.413 C 114.046 153.332 112.752 153.252 111.459 153.172 C 110.61 153.119 109.762 153.066 108.914 153.011 C 106.933 152.886 104.957 152.777 102.972 152.718 C 102.616 152.706 102.259 152.693 101.894 152.681 C 101.237 152.66 100.58 152.644 99.922 152.635 C 97.153 152.54 95.749 151.401 93.811 149.409 C 92.564 148.22 91.139 147.245 89.752 146.229 C 87.046 144.216 84.369 142.165 81.71 140.086 C 78.868 137.865 75.993 135.699 73.083 133.574 C 71.404 132.348 69.754 131.096 68.125 129.805 C 65.903 128.045 63.634 126.364 61.348 124.691 C 59.503 123.336 57.662 121.971 55.83 120.592 C 55.21 120.128 54.591 119.665 53.976 119.204 C 52.432 118.051 50.906 116.882 49.408 115.667 C 46.151 113.071 43.632 111.467 39.496 110.965 C 37.906 110.769 36.519 110.41 34.975 109.962 C 32.901 109.376 30.865 108.954 28.741 108.627 C 26.217 108.17 23.749 107.475 21.267 106.815 C 21.484 105.478 21.683 104.801 22.438 103.645 C 21.649 103.683 20.864 103.722 20.08 103.761 C 19.83 103.722 19.584 103.684 19.325 103.645 C 18.489 102.367 18.434 101.949 18.549 100.474 C 18.676 100.343 18.803 100.212 18.935 100.077 C 18.748 97.813 18.125 95.762 17.429 93.612 C 17.217 92.943 17.009 92.273 16.797 91.603 C 16.695 91.286 16.598 90.969 16.492 90.642 C 15.686 88.106 14.944 85.689 14.659 83.034 C 17.628 80.821 20.737 78.892 23.918 77.014 C 24.419 76.716 24.919 76.419 25.424 76.121 C 28.003 74.587 30.598 73.064 33.194 71.554 C 33.856 71.167 34.521 70.78 35.183 70.39 C 36.727 69.484 38.275 68.609 39.865 67.787 C 43.174 66.038 45.434 64.509 46.927 60.854 C 47.551 58.696 47.555 56.469 47.576 54.233 C 47.614 51.548 48.187 49.727 49.26 47.27 C 49.968 45.298 49.688 43.568 48.861 41.685 C 47.89 38.912 48.111 34.973 49.268 32.299 C 50.244 30.566 51.058 29.367 52.886 28.559 C 54.32 28.335 54.32 28.335 55.066 28.387 C 56.712 28.43 57.603 28.117 58.905 27.059 C 60.109 25.884 61.237 24.636 62.366 23.381 C 62.955 22.734 63.54 22.089 64.134 21.45 C 64.677 20.872 65.203 20.285 65.733 19.698 C 66.891 18.714 67.612 18.529 69.097 18.426 C 69.266 17.875 69.266 17.875 69.436 17.312 C 69.877 16.048 69.877 16.048 70.653 14.859 Z M 71.819 18.426 C 71.561 19.211 71.306 19.996 71.043 20.805 C 70.619 20.829 70.191 20.854 69.754 20.879 C 68.282 21.031 68.282 21.031 67.735 22.111 C 67.544 22.465 67.353 22.818 67.154 23.182 C 66.14 24.372 65.038 25.466 63.943 26.577 C 63.515 27.025 63.515 27.025 63.074 27.483 C 60.376 30.235 58.404 31.673 54.498 31.717 C 53.506 31.816 53.506 31.816 52.882 32.584 C 51.406 35.231 51.313 37.617 51.601 40.623 C 51.932 41.802 52.331 42.894 52.814 44.017 C 53.196 45.107 53.293 45.814 53.153 46.964 C 52.797 47.631 52.411 48.282 52.013 48.922 C 50.753 51.324 50.677 53.309 50.672 56.007 C 50.664 59.722 49.951 62.166 47.992 65.276 C 47.22 66.338 47.22 66.338 47.322 67.575 C 47.046 67.682 46.77 67.788 46.482 67.898 C 45.349 68.38 44.306 68.937 43.237 69.548 C 42.627 69.895 42.627 69.895 42.007 70.25 C 41.363 70.618 41.363 70.618 40.714 70.994 C 40.273 71.245 39.832 71.497 39.382 71.756 C 36.807 73.235 34.275 74.752 31.777 76.354 C 30.132 77.383 28.444 78.334 26.756 79.29 C 23.986 80.869 21.263 82.54 18.549 84.223 C 18.778 86.211 19.198 87.985 19.813 89.896 C 20.385 91.689 20.928 93.478 21.373 95.31 C 21.454 95.634 21.535 95.958 21.615 96.292 C 21.772 96.922 21.921 97.555 22.065 98.189 C 22.285 99.165 22.285 99.165 22.824 100.474 C 23.799 101.108 23.799 101.108 24.771 101.266 C 24.898 102.182 25.025 103.098 25.157 104.041 C 25.899 104.23 25.899 104.23 26.658 104.422 C 28.52 104.894 30.378 105.366 32.231 105.838 C 33.033 106.042 33.834 106.245 34.636 106.449 C 35.794 106.742 36.947 107.037 38.105 107.331 C 38.462 107.42 38.809 107.51 39.174 107.601 C 40.205 107.864 41.235 108.132 42.266 108.401 C 42.648 108.499 43.029 108.598 43.42 108.699 C 43.797 108.799 44.175 108.899 44.565 109.003 C 44.908 109.093 45.248 109.182 45.6 109.275 C 47.148 109.791 48.348 110.673 49.633 111.671 C 49.909 111.878 50.185 112.084 50.469 112.296 C 51.368 112.973 52.259 113.659 53.153 114.347 C 53.794 114.831 54.426 115.316 55.062 115.8 C 56.046 116.551 57.03 117.302 58.01 118.058 C 60.122 119.682 62.251 121.274 64.406 122.843 C 67.358 125 70.25 127.232 73.134 129.483 C 75.119 131.033 77.113 132.565 79.131 134.066 C 83.631 137.409 88.068 140.834 92.5 144.272 C 92.848 144.542 93.196 144.813 93.56 145.092 C 93.891 145.349 94.218 145.605 94.557 145.87 C 95.024 146.23 95.024 146.23 95.503 146.598 C 96.317 147.245 96.317 147.245 97.318 148.195 C 98.667 149.105 99.994 149.17 101.564 149.276 C 101.907 149.304 102.255 149.332 102.607 149.361 C 103.879 149.459 105.152 149.542 106.424 149.623 C 106.827 149.649 106.827 149.649 107.234 149.676 C 111.213 149.934 115.195 150.155 119.178 150.338 C 120.174 150.384 121.175 150.437 122.168 150.494 C 126.562 150.915 126.562 150.915 130.485 149.276 C 131.151 148.515 131.151 148.515 131.702 147.641 C 131.906 147.335 132.114 147.029 132.326 146.713 C 132.945 145.723 133.496 144.716 134.035 143.677 C 134.196 143.376 134.357 143.075 134.527 142.765 C 135.316 141.242 135.986 139.734 136.508 138.096 C 136.601 137.811 136.694 137.526 136.792 137.234 C 136.974 136.669 137.148 136.101 137.309 135.53 C 137.683 134.371 138.018 133.541 139.078 132.921 C 139.943 132.59 139.943 132.59 141.419 132.183 C 141.419 131.921 141.419 131.659 141.419 131.39 C 143.938 130.922 146.42 130.949 148.981 130.969 C 149.41 130.971 149.842 130.972 150.292 130.974 C 151.352 130.979 152.413 130.985 153.477 130.993 C 153.172 129.567 152.71 128.821 151.747 127.724 C 151.509 127.444 151.272 127.163 151.021 126.875 C 150.423 126.146 150.423 126.146 149.588 126.237 C 149.588 123.491 149.588 120.744 149.588 117.914 C 147.79 117.914 145.996 117.914 144.142 117.914 C 144.18 117.048 144.218 116.182 144.265 115.316 C 144.295 114.584 144.329 113.851 144.358 113.119 C 144.443 111.228 144.613 109.444 144.969 107.583 C 145.177 105.65 144.439 104.683 143.29 103.174 C 142.403 102.068 142.403 102.068 141.419 101.266 C 140.906 101.266 140.393 101.266 139.867 101.266 C 139.867 100.351 139.867 99.435 139.867 98.492 C 139.617 98.49 139.366 98.49 139.112 98.489 C 136.864 98.386 135.702 98.08 134.094 96.496 C 131.656 94.237 128.543 91.486 125.111 91.506 C 124.221 91.594 124.221 91.594 123.534 91.754 C 123.534 89.64 123.534 87.525 123.534 85.412 C 123.207 84.64 123.207 84.64 122.757 83.926 C 122.499 83.501 122.244 83.075 121.977 82.637 C 121.723 82.637 121.464 82.637 121.201 82.637 C 121.201 82.245 121.201 81.853 121.201 81.448 C 120.908 81.356 120.624 81.263 120.323 81.168 C 118.444 80.263 117.494 78.519 116.535 76.692 C 116.277 74.873 116.485 73.912 117.312 72.332 C 117.507 71.341 117.507 71.341 117.312 70.35 C 116.811 69.804 116.289 69.277 115.759 68.765 C 114.869 67.24 114.398 66.176 114.593 64.404 C 115.157 63.514 115.157 63.514 115.904 62.646 C 117.023 61.269 117.592 60.182 118.092 58.459 C 118.363 58.116 118.635 57.773 118.915 57.418 C 119.806 56.47 119.806 56.47 119.644 54.892 C 120.289 54.892 120.929 54.892 121.591 54.892 C 121.748 53.848 121.748 53.144 121.158 52.253 C 120.98 52.012 120.802 51.771 120.62 51.523 C 119.182 49.38 119.479 47.081 119.644 44.587 C 119.178 44.562 118.715 44.537 118.236 44.512 C 116.832 44.344 116.54 44.193 115.39 43.199 C 113.851 41.918 112.638 41.86 110.704 41.812 C 110.665 41.478 110.623 41.143 110.585 40.799 C 110.5 40.148 110.5 40.148 110.411 39.483 C 110.33 38.835 110.33 38.835 110.246 38.173 C 110.046 37.004 110.046 37.004 109.139 36.592 C 108.884 36.483 108.63 36.375 108.371 36.263 C 108.201 35.588 108.201 35.588 108.027 34.9 C 107.726 33.387 107.726 33.387 106.373 32.72 C 106.009 32.581 105.64 32.442 105.258 32.299 C 105.258 30.599 105.258 28.898 105.258 27.147 C 104.49 26.754 103.718 26.362 102.925 25.957 C 102.925 24.649 102.925 23.341 102.925 21.994 C 101.411 21.419 101.411 21.419 100.308 22.179 C 99.922 22.445 99.536 22.711 99.133 22.985 C 96.584 24.595 96.584 24.595 94.858 24.347 C 94.443 24.224 94.027 24.102 93.594 23.976 C 93.594 22.275 93.594 20.574 93.594 18.823 C 91.796 19.094 91.796 19.094 90.859 19.632 C 88.403 20.848 85.438 19.856 82.978 19.114 C 79.373 18.114 75.526 18.384 71.819 18.426 Z" style="fill: rgb(0, 6, 8); stroke-width: 0.427px;"/>
  <path d="M 98.141 46.883 C 101.017 49.116 102.713 51.295 103.706 54.894 C 104.172 60.524 103.124 64.246 99.625 68.626 C 98.722 69.675 98.722 69.675 97.776 70.533 C 97.551 70.739 97.331 70.945 97.102 71.157 C 91.024 76.453 83.475 76.657 75.904 76.254 C 72.451 75.959 69.041 75.338 65.631 74.74 C 54.719 72.833 43.751 71.746 33.614 77.417 C 32.897 77.78 32.897 77.78 32.159 77.78 C 32.685 76.156 33.826 75.747 35.217 74.968 C 35.616 74.739 35.616 74.739 36.027 74.506 C 38.373 73.204 40.735 72.121 43.28 71.296 C 43.649 71.174 44.009 71.053 44.391 70.928 C 50.32 69.304 57.017 69.696 62.968 70.994 C 64.91 71.401 66.861 71.627 68.829 71.858 C 70.034 72.004 71.226 72.227 72.417 72.455 C 74.954 72.895 77.435 72.948 80.001 72.941 C 80.667 72.95 80.667 72.95 81.341 72.959 C 85.222 72.961 88.505 72.203 91.957 70.39 C 92.377 70.174 92.793 69.959 93.23 69.737 C 95.108 68.599 96.644 67.344 97.844 65.431 C 98.103 65.025 98.103 65.025 98.37 64.612 C 100.168 61.322 100.55 58.219 99.999 54.512 C 99.087 51.964 97.076 50.114 94.807 48.791 C 92.661 48.051 89.926 48.016 87.805 48.862 C 85.799 50.065 84.475 51.48 83.687 53.749 C 83.402 55.465 83.352 56.913 84.162 58.474 C 85.209 59.964 85.209 59.964 86.651 60.996 C 88.246 61.164 89.595 61.168 91.079 60.52 C 91.915 59.787 92.262 59.407 92.581 58.327 C 92.661 56.909 92.653 55.862 92.216 54.512 C 91.847 54.386 91.478 54.26 91.105 54.131 C 91.105 53.879 91.105 53.627 91.105 53.368 C 89.879 53.494 88.657 53.619 87.393 53.749 C 87.516 53.372 87.635 52.994 87.762 52.605 C 89.353 52.062 90.706 51.868 92.271 52.596 C 93.666 53.445 94.599 54.052 95.181 55.657 C 95.524 57.855 95.477 59.716 94.205 61.569 C 92.865 63.125 91.754 63.945 89.692 64.152 C 87.415 64.228 85.625 64.179 83.687 62.904 C 82.826 61.955 82.139 60.946 81.464 59.852 C 81.231 59.506 81.002 59.16 80.764 58.804 C 79.878 56.161 79.971 53.502 81.116 50.96 C 82.643 48.202 84.459 46.365 87.393 45.358 C 91.223 44.417 94.871 44.531 98.141 46.883 Z" style="stroke-width: 0.427px; fill: rgb(255, 2, 2);"/>
  <path d="M 66.764 81.052 C 66.764 81.313 66.764 81.575 66.764 81.844 C 67.273 81.997 67.273 81.997 67.794 82.153 C 72.54 83.919 76.799 87.994 80.675 91.262 C 87.563 97.056 94.968 102.29 104.27 102.194 C 108.019 101.828 111.319 100.177 113.813 97.303 C 114.08 96.999 114.08 96.999 114.347 96.69 C 115.857 94.536 115.619 91.902 115.369 89.375 C 114.903 87.145 113.685 85.902 111.87 84.619 C 109.8 83.464 107.968 83.053 105.648 83.43 C 103.803 84.117 102.28 85.218 101.369 86.997 C 101.072 89.22 101.144 91.129 101.903 93.24 C 103.247 94.413 104.147 94.371 105.864 94.332 C 106.993 94.094 107.557 93.771 108.371 92.943 C 108.71 91.59 108.617 90.229 107.955 89.004 C 106.84 88.38 105.733 88.307 104.482 88.186 C 104.609 87.794 104.736 87.401 104.872 86.997 C 106.759 86.795 107.968 86.775 109.537 87.939 C 110.649 89.027 110.899 89.822 110.945 91.382 C 110.772 93.657 110.038 94.732 108.587 96.436 C 107.09 97.644 105.478 97.554 103.642 97.469 C 101.089 97.086 99.719 95.336 98.26 93.339 C 97.513 91.051 97.45 88.127 98.332 85.858 C 99.859 83.179 101.521 81.222 104.482 80.259 C 105.559 80.142 106.564 80.069 107.637 80.061 C 108.032 80.057 108.032 80.057 108.426 80.053 C 111.84 80.142 114.046 81.737 116.438 84.046 C 118.737 86.596 119.114 89.085 118.991 92.49 C 118.618 96.25 116.904 99.672 114.054 102.134 C 109.062 105.61 103.96 106.183 98.111 105.206 C 91.385 103.686 85.124 99.644 79.988 95.054 C 77.253 92.61 74.339 90.405 71.429 88.186 C 71.09 87.921 70.746 87.656 70.39 87.383 C 65.699 83.878 60.762 81.215 55.1 79.863 C 54.765 79.75 54.43 79.638 54.082 79.522 C 50.515 78.326 46.77 78.385 43.046 78.277 C 47.979 73.247 61.5 78.523 66.764 81.052 Z" style="stroke-width: 0.427px; fill: rgb(22, 215, 22);"/>
  <path d="M 69.292 89.995 C 74.178 93.91 78.703 98.397 82.707 103.248 C 83.033 103.64 83.36 104.031 83.699 104.434 C 86.575 107.88 86.575 107.88 87.754 109.384 C 89.913 112.124 92.203 114.665 94.638 117.146 C 94.824 117.336 95.011 117.526 95.202 117.722 C 98.099 120.655 100.978 123.29 104.482 125.445 C 104.897 125.706 105.313 125.967 105.746 126.236 C 111.196 129.446 117.71 131.108 123.983 129.603 C 125.12 129.238 126.189 128.775 127.266 128.256 C 128.199 127.823 128.199 127.823 129.365 127.823 C 129.365 128.084 129.365 128.346 129.365 128.616 C 128.598 128.99 127.826 129.361 127.058 129.73 C 126.63 129.937 126.201 130.144 125.76 130.358 C 122.872 131.662 120.344 132.389 117.167 132.331 C 116.845 132.328 116.523 132.325 116.188 132.321 C 113.707 132.261 111.476 131.916 109.147 130.993 C 108.859 130.884 108.57 130.773 108.278 130.659 C 104.142 128.923 100.469 126.423 97.093 123.463 C 96.805 123.213 96.517 122.963 96.22 122.706 C 91.813 118.773 87.533 114.537 83.916 109.835 C 82.961 108.625 81.943 107.485 80.904 106.345 C 80.633 106.044 80.633 106.044 80.353 105.737 C 80.179 105.542 80.001 105.347 79.819 105.146 C 78.347 103.52 76.901 101.868 75.522 100.158 C 74.046 98.342 72.43 96.825 70.653 95.321 C 70.212 94.941 70.212 94.941 69.767 94.553 C 64.868 90.407 59.291 87.142 53.158 85.356 C 52.377 85.129 51.601 84.878 50.838 84.604 C 44.039 82.413 35.162 82.668 28.27 84.223 C 27.621 84.355 26.976 84.488 26.323 84.619 C 26.454 84.227 26.582 83.834 26.713 83.43 C 28.134 82.813 29.661 82.519 31.162 82.167 C 31.608 82.06 32.062 81.954 32.524 81.845 C 45.566 79.022 58.578 82.054 69.292 89.995 Z" style="stroke-width: 0.427px;"/>
  <path d="M 132.088 106.023 C 133.988 107.729 135.061 109.829 135.324 112.372 C 135.464 116.467 134.582 118.883 131.991 121.977 C 128.767 125.432 125.561 126.678 120.917 126.804 C 110.576 126.832 101.742 121.043 94.587 113.794 C 92.195 111.271 90.019 108.574 88.148 105.626 C 88.28 105.365 88.407 105.103 88.539 104.834 C 88.708 105.015 88.882 105.197 89.06 105.383 C 96.461 113.156 106.496 122.77 117.838 123.186 C 118.576 123.191 119.318 123.193 120.06 123.19 C 120.433 123.197 120.802 123.203 121.184 123.209 C 124.662 123.212 126.88 122.31 129.446 119.871 C 131.227 117.918 131.787 116.164 131.893 113.504 C 131.817 111.486 131.571 110.287 130.146 108.797 C 128.695 107.571 127.351 106.7 125.429 106.617 C 123.126 106.92 121.498 107.74 120.035 109.59 C 119.806 110.845 119.806 110.845 119.865 112.191 C 119.865 112.641 119.865 113.091 119.869 113.555 C 119.95 114.723 119.95 114.723 120.522 115.487 C 121.379 116.049 121.935 116.091 122.953 116.08 C 123.249 116.084 123.555 116.086 123.86 116.089 C 124.904 115.894 125.247 115.603 125.866 114.743 C 126.129 113.373 126.129 113.373 125.866 111.968 C 124.95 110.988 124.95 110.988 123.924 110.383 C 125.438 110.203 126.091 110.27 127.372 111.151 C 128.339 112.568 128.483 113.362 128.39 115.052 C 128.008 116.813 126.939 117.78 125.552 118.855 C 123.89 119.339 122.265 119.238 120.594 118.904 C 118.983 117.892 117.812 116.873 116.926 115.139 C 116.523 112.601 116.37 110.206 117.621 107.916 C 118.38 106.942 119.114 106.116 120.035 105.305 C 120.293 105.073 120.548 104.841 120.811 104.603 C 124.289 102.092 128.992 103.728 132.088 106.023 Z" style="stroke-width: 0.427px;"/>
  <path d="M 38.767 85.412 C 42.817 85.522 46.52 86.03 50.418 87.168 C 51.219 87.395 52.017 87.599 52.823 87.799 C 60.219 89.715 68.367 94.098 72.417 100.89 C 73.24 102.591 73.626 104.139 73.762 106.023 C 73.792 106.334 73.817 106.644 73.847 106.964 C 73.936 109.039 73.563 110.501 72.596 112.365 C 72.388 112.773 72.18 113.182 71.964 113.603 C 70.721 115.137 69.279 115.867 67.54 116.724 C 67.158 116.921 67.158 116.921 66.764 117.121 C 64.304 117.363 61.912 117.275 59.766 115.932 C 58.107 114.378 56.776 112.697 56.521 110.374 C 56.47 105.905 56.47 105.905 58.209 104.041 C 58.548 103.665 58.883 103.289 59.227 102.901 C 61.008 101.76 62.383 101.749 64.431 102.059 C 66.246 102.71 67.366 103.512 68.32 105.23 C 68.443 106.432 68.414 107.594 68.32 108.797 C 68.062 108.797 67.807 108.797 67.54 108.797 C 67.413 109.19 67.285 109.582 67.154 109.986 C 65.737 110.949 64.932 110.843 63.265 110.779 C 63.137 110.387 63.006 109.994 62.875 109.59 C 63.774 109.328 64.673 109.067 65.597 108.797 C 65.899 107.467 65.899 107.467 65.988 106.023 C 65.385 105.156 65.016 104.875 63.994 104.662 C 62.59 104.659 61.589 104.694 60.326 105.354 C 59.405 107.104 59.49 108.843 59.766 110.779 C 60.389 112.077 60.898 112.818 62.001 113.702 C 63.884 114.236 65.445 114.151 67.252 113.48 C 68.889 112.378 69.877 111.012 70.653 109.194 C 71.098 106.47 70.382 104.045 69.097 101.663 C 68.282 100.501 67.375 99.493 66.374 98.492 C 66.085 98.188 66.085 98.188 65.784 97.879 C 63.943 96.116 61.738 94.925 59.541 93.69 C 58.769 93.257 58.001 92.816 57.246 92.356 C 54.956 90.973 52.577 90.176 50.045 89.375 C 49.476 89.179 48.908 88.981 48.34 88.781 C 45.205 87.718 42.037 86.7 38.767 86.205 C 38.767 85.943 38.767 85.681 38.767 85.412 Z" style="stroke-width: 0.427px;"/>
  <path d="M 70.17 48.973 C 72.367 50.2 74.139 51.612 74.928 54.099 C 75.357 57.21 75.174 60.194 73.376 62.819 C 68.995 67.682 63.061 67.996 56.971 68.467 C 56.504 68.504 56.033 68.54 55.55 68.578 C 52.14 68.816 52.14 68.816 50.821 68.368 C 53.026 67.012 55.147 66.487 57.653 66.047 C 65.483 64.849 65.483 64.849 71.429 60.045 C 72.379 58.62 72.35 57.381 72.21 55.685 C 71.696 54.205 71.175 53.432 70.047 52.365 C 68.257 51.503 66.764 51.348 64.821 51.721 C 63.54 52.432 63.54 52.432 62.875 53.703 C 62.582 55.196 62.692 56.46 63.311 57.865 C 64.35 58.71 65.084 58.599 66.374 58.459 C 66.632 58.328 66.887 58.197 67.154 58.063 C 67.196 56.048 67.196 56.048 66.764 54.099 C 67.489 54.223 67.489 54.223 68.32 54.495 C 69.275 55.959 69.317 57.156 69.097 58.856 C 68.422 60.138 68.138 60.371 66.764 60.837 C 65.296 61.036 63.884 61.169 62.544 60.45 C 61.093 59.265 60.292 58.131 59.995 56.273 C 59.914 53.785 60.19 52.262 61.831 50.371 C 64.147 48.143 67.23 47.815 70.17 48.973 Z" style="stroke-width: 0.427px; fill: rgb(255, 2, 2);"/>
  <path d="M 39.547 74.314 C 39.547 74.575 39.547 74.837 39.547 75.106 C 39.929 75.368 40.315 75.63 40.714 75.899 C 40.476 75.962 40.243 76.025 39.997 76.089 C 37.758 76.725 35.773 77.558 33.724 78.678 C 32.935 79.07 32.935 79.07 32.159 79.07 C 32.6 77.719 32.757 77.64 33.919 76.984 C 34.331 76.749 34.331 76.749 34.755 76.508 C 35.192 76.268 35.192 76.268 35.633 76.023 C 35.921 75.858 36.209 75.693 36.506 75.524 C 38.657 74.314 38.657 74.314 39.547 74.314 Z" style="stroke-width: 0.427px; fill: rgb(255, 2, 2);"/>
  <path d="M 38.767 85.412 C 39.755 85.468 40.743 85.526 41.732 85.586 C 42.147 85.608 42.147 85.608 42.571 85.632 C 44.179 85.73 45.735 85.901 47.322 86.205 C 47.322 86.335 47.322 86.466 47.322 86.601 C 46.77 86.687 46.77 86.687 46.202 86.775 C 45.031 86.93 45.031 86.93 44.213 87.394 C 43.284 87.231 42.359 87.036 41.439 86.824 C 40.693 86.653 40.693 86.653 39.929 86.478 C 39.357 86.343 39.357 86.343 38.767 86.205 C 38.767 85.943 38.767 85.681 38.767 85.412 Z" style="stroke-width: 0.427px;"/>
  <path d="M 34.492 82.241 C 34.106 82.503 33.72 82.764 33.325 83.034 C 33.325 83.164 33.325 83.295 33.325 83.43 C 32.812 83.509 32.812 83.509 32.286 83.589 C 31.837 83.659 31.383 83.73 30.916 83.802 C 30.246 83.905 30.246 83.905 29.563 84.011 C 28.478 84.189 27.4 84.39 26.323 84.619 C 26.454 84.227 26.582 83.834 26.713 83.43 C 27.735 83.066 28.702 82.786 29.75 82.538 C 30.034 82.464 30.314 82.391 30.607 82.315 C 32.049 81.96 33.075 81.796 34.492 82.241 Z" style="stroke-width: 0.427px;"/>
  <path d="M 88.148 104.834 C 89.76 106.174 91.185 107.476 92.428 109.194 C 92.169 109.194 91.915 109.194 91.648 109.194 C 91.52 109.455 91.393 109.717 91.262 109.986 C 90.74 109.278 90.222 108.568 89.705 107.856 C 89.417 107.46 89.128 107.065 88.831 106.658 C 88.148 105.626 88.148 105.626 88.148 104.834 Z" style="stroke-width: 0.427px;"/>
  <path d="M 129.365 127.823 C 129.365 128.084 129.365 128.346 129.365 128.616 C 128.738 128.947 128.101 129.277 127.47 129.606 C 127.122 129.79 126.765 129.974 126.405 130.163 C 125.48 130.597 125.48 130.597 124.7 130.597 C 124.7 130.336 124.7 130.074 124.7 129.805 C 124.445 129.674 124.187 129.543 123.924 129.408 C 124.611 129.142 125.298 128.878 125.989 128.616 C 126.371 128.468 126.753 128.321 127.151 128.169 C 128.199 127.823 128.199 127.823 129.365 127.823 Z" style="stroke-width: 0.427px;"/>
  <path d="M 39.547 74.314 C 39.547 74.575 39.547 74.837 39.547 75.106 C 39.929 75.368 40.315 75.63 40.714 75.899 C 39.683 76.161 38.657 76.422 37.601 76.692 C 37.728 76.299 37.859 75.907 37.991 75.503 C 37.732 75.372 37.478 75.241 37.21 75.106 C 38.669 74.314 38.669 74.314 39.547 74.314 Z" style="stroke-width: 0.427px; fill: rgb(255, 2, 2);"/>
  <path d="M 102.149 81.448 C 102.403 81.579 102.662 81.71 102.925 81.844 C 101.772 83.022 100.618 84.199 99.426 85.412 C 99.426 83.844 99.973 83.387 100.983 82.241 C 101.369 81.979 101.75 81.718 102.149 81.448 Z" fill="#E2F1F8" style="stroke-width: 0.427px;"/>
  <path d="M 63.265 49.343 C 63.519 49.474 63.778 49.604 64.041 49.739 C 63.014 50.785 61.988 51.832 60.932 52.91 C 60.932 51.35 61.488 50.878 62.484 49.739 C 62.743 49.608 63.002 49.478 63.265 49.343 Z" fill="#E1F0F9" style="stroke-width: 0.427px;"/>
  <path d="M 65.67 51.473 C 66.017 51.596 66.017 51.596 66.374 51.721 C 65.228 52.435 64.083 53.109 62.875 53.703 C 63.46 52.333 64.007 51.182 65.67 51.473 Z" style="stroke-width: 0.427px; fill: rgb(255, 2, 2);"/>
  <text style="fill: rgb(3, 3, 3); font-family: &quot;Noto Kufi Arabic&quot;; font-size: 183px; word-spacing: 8.3px; white-space: pre;" transform="matrix(0.401458, 0, 0, 0.429377, 312.614868, 8.426101)" x="-383.32" y="218.903">جَوْدَةُهَوَاءِالْعِرَاقِ</text>
  <defs>
    <bx:export>
      <bx:file format="svg"/>
    </bx:export>
    <style bx:fonts="Noto Kufi Arabic">@import url(https://fonts.googleapis.com/css2?family=Noto+Kufi+Arabic%3Aital%2Cwght%400%2C100..900&amp;display=swap);</style>
  </defs>
</svg>