<?xml version="1.0" encoding="UTF-8"?>
<svg version="1.1" xmlns="http://www.w3.org/2000/svg" width="380" height="380">
<path d="M0 0 C125.4 0 250.8 0 380 0 C380 125.4 380 250.8 380 380 C254.6 380 129.2 380 0 380 C0 254.6 0 129.2 0 0 Z " fill="#66BAEB" transform="translate(0,0)"/>
<path d="M0 0 C125.4 0 250.8 0 380 0 C380 125.4 380 250.8 380 380 C254.6 380 129.2 380 0 380 C0 254.6 0 129.2 0 0 Z M148 15 C147.34 16.11375 146.68 17.2275 146 18.375 C145.443125 19.31472656 145.443125 19.31472656 144.875 20.2734375 C143.84931652 21.97472667 143.84931652 21.97472667 144 24 C142.67899292 24.08991211 142.67899292 24.08991211 141.33129883 24.18164062 C137.09854881 25.22144847 135.63182763 26.90269129 132.69921875 30.09375 C131.71198097 31.13448698 130.72433798 32.1748397 129.73632812 33.21484375 C128.20864043 34.85408624 126.68818441 36.49925158 125.17602539 38.15283203 C115.58680354 48.57271458 115.58680354 48.57271458 110.03125 49.15625 C108.68722763 49.11174595 107.34341829 49.06003359 106 49 C100.58329588 50.0740632 97.75859849 51.7939255 94.5625 56.375 C90.02479174 63.57103871 90.42702014 71.73406109 91 80 C91.64093158 82.33550669 91.64093158 82.33550669 92.5625 84.3125 C94.3829513 88.98235334 94.22850532 92.19174407 93 97 C92.35368781 98.44676579 91.68544623 99.88385933 91 101.3125 C89.06668669 105.68287728 88.81642561 109.38267819 88.77416992 114.07714844 C88.67732814 124.53606126 87.78720828 134.282279 80 142 C74.61811869 146.01921851 68.5689473 148.85748649 62.53369141 151.75 C58.82155083 153.58138946 55.29221608 155.67540334 51.75 157.8125 C50.37433044 158.63127201 48.99800521 159.44894319 47.62109375 160.265625 C46.89519043 160.69681641 46.16928711 161.12800781 45.42138672 161.57226562 C42.65511063 163.20335885 39.87731576 164.81369737 37.09765625 166.421875 C19.63152007 175.41462417 19.63152007 175.41462417 4 187 C4.46933021 193.81007714 6.81631496 200.11635008 8.9375 206.5625 C9.29779297 207.67302734 9.65808594 208.78355469 10.02929688 209.92773438 C11.36055912 214.02449166 12.69356929 218.11826032 14.10766602 222.18725586 C14.99700509 224.99055969 15.25009685 227.08220346 15 230 C14.67 230.33 14.34 230.66 14 231 C14.14158662 235.3409369 14.14158662 235.3409369 16 239 C18.67058851 239.14115161 21.32432238 239.04247107 24 239 C23.505 239.5775 23.01 240.155 22.5 240.75 C20.63019987 243.10400629 20.63019987 243.10400629 21 247 C34.19554992 250.56096615 34.19554992 250.56096615 47.625 253 C53.78090146 253.82608226 59.6024738 255.44514432 65.5480957 257.19458008 C69.49057303 258.34690591 73.21952998 259.22754083 77.3125 259.6875 C83.69351474 260.87920055 88.24134262 265.4948045 93.11621094 269.49658203 C96.52149461 272.21427732 100.07951076 274.71980647 103.625 277.25 C116.51373883 286.50443814 129.27589267 295.92775969 141.95288086 305.4699707 C147.00404252 309.26724915 152.09215865 313.01229894 157.1875 316.75 C164.90759214 322.41727808 172.53505074 328.19819392 180.13867188 334.02050781 C186.84176516 339.14362179 193.60951956 344.17200726 200.43359375 349.1328125 C201.1503125 349.65617187 201.86703125 350.17953125 202.60546875 350.71875 C203.28228699 351.20794418 203.95910522 351.69713837 204.65643311 352.20115662 C207 354 207 354 209.18804932 356.02113342 C215.69731157 361.890997 220.55197301 363.23221076 229.19140625 363.40234375 C230.33552475 363.45524063 231.47964325 363.50813751 232.65843201 363.56263733 C236.29269688 363.72284359 239.92629651 363.83132818 243.5625 363.9375 C245.97475067 364.03362692 248.38686628 364.13320814 250.79882812 364.23632812 C255.439733 364.43052113 260.08071082 364.60734399 264.72290039 364.76782227 C273.73067753 365.08716027 282.75401806 365.47000209 291.72387695 366.3762207 C296.45198769 366.83419694 299.6396292 366.87354258 303.70703125 364.26171875 C312.30383674 356.19313479 319.38989887 345.21031403 323 334 C323.97848693 331.70909807 325.00311479 329.44295666 326.03515625 327.17578125 C327.06447135 324.95721683 327.06447135 324.95721683 327.84765625 322.375 C329.667354 318.6245721 332.28477519 318.08539227 336.05078125 316.7109375 C340.28755078 315.68962352 344.29497654 315.75275686 348.62890625 315.95703125 C349.41136719 315.97121094 350.19382812 315.98539062 351 316 C351.33 315.67 351.66 315.34 352 315 C353.62886857 315.09316407 355.25410252 315.25153301 356.875 315.4375 C362.60304218 316.02306657 368.24726892 316.10014425 374 316 C372.10133559 308.46708754 369.91739123 300.88026042 363.41796875 296.1015625 C359.56660004 291.16135773 359.9600279 285.7914682 359.6875 279.6875 C359.61466797 278.46998047 359.54183594 277.25246094 359.46679688 275.99804688 C359.29043219 272.9998473 359.14245226 270.00000209 359 267 C354.71 267 350.42 267 346 267 C346.144375 265.96101562 346.28875 264.92203125 346.4375 263.8515625 C348.39763158 252.42416567 348.39763158 252.42416567 348 241 C346.43072317 239.08785596 345.21415729 238.10707865 343 237 C342.5875 236.29875 342.175 235.5975 341.75 234.875 C340.28080658 232.46132509 338.88073386 230.69194514 337 228.625 C334.88765561 226.24144102 333.47737099 224.15206586 332.3125 221.1875 C331.24923092 217.76302634 331.24923092 217.76302634 328 216 C325.96794962 215.95536566 325.96794962 215.95536566 323.79296875 216.203125 C318.2894095 216.32342138 315.43756514 214.15935983 311.3125 210.75 C310.05940426 209.76459344 308.80550837 208.78020347 307.55078125 207.796875 C306.95491211 207.32282227 306.35904297 206.84876953 305.74511719 206.36035156 C300.05942608 201.76185935 300.05942608 201.76185935 293 201 C293.04125 199.96875 293.0825 198.9375 293.125 197.875 C292.91959062 191.50730916 291.49431847 188.358127 287 184 C285.93988057 182.03120677 284.92529151 180.03564133 284 178 C282.35 178 280.7 178 279 178 C278.896875 177.236875 278.79375 176.47375 278.6875 175.6875 C278.24838314 172.9565157 278.24838314 172.9565157 276.375 171.5 C275.92125 171.005 275.4675 170.51 275 170 C275.3125 167.9375 275.3125 167.9375 276 165 C276.57020919 156.02670803 275.10493611 150.48723963 270 143 C270 142.34 270 141.68 270 141 C273.465 140.505 273.465 140.505 277 140 C277.03738281 139.16855469 277.07476562 138.33710938 277.11328125 137.48046875 C277.21189453 135.85044922 277.21189453 135.85044922 277.3125 134.1875 C277.37050781 133.10855469 277.42851562 132.02960938 277.48828125 130.91796875 C278.03644832 127.79216111 278.46266469 126.82026229 281 125 C281.845625 124.7525 282.69125 124.505 283.5625 124.25 C286.33738875 123.16000079 286.33738875 123.16000079 287.3125 119.8125 C288.38635794 113.85746963 288.93896543 110.06185075 285.5 104.9375 C283.794622 102.39171959 282.96003793 100.84322573 282.1875 97.8125 C283.18106367 94.37324115 283.98656504 94.16099211 287 92.4375 C288.09828125 91.84195313 288.09828125 91.84195313 289.21875 91.234375 C289.8065625 90.82703125 290.394375 90.4196875 291 90 C291.67154684 87.28341743 291.67154684 87.28341743 291 85 C290.34 85 289.68 85 289 85 C288.67 84.01 288.34 83.02 288 82 C286.04707031 81.97873047 286.04707031 81.97873047 284.0546875 81.95703125 C282.32809034 81.91011285 280.60152893 81.86186556 278.875 81.8125 C277.59109375 81.80379883 277.59109375 81.80379883 276.28125 81.79492188 C270.02218029 81.57826177 267.50687816 80.28967921 263 76 C259.74723247 75.58009927 259.74723247 75.58009927 257 76 C256.94392578 75.00419922 256.94392578 75.00419922 256.88671875 73.98828125 C256.42735111 66.98476743 256.42735111 66.98476743 253 61 C250.94996045 59.80767387 250.94996045 59.80767387 249 59 C247.73537572 56.47075145 247.85694685 54.51013296 247.75 51.6875 C247.41388818 47.55657728 247.18008809 46.24169717 244.625 42.8125 C242.12020989 40.71590464 242.12020989 40.71590464 239 41 C239.04640625 40.41992188 239.0928125 39.83984375 239.140625 39.2421875 C239.40323047 33.55865473 238.77123925 30.5254871 235 26 C234.525625 25.38125 234.05125 24.7625 233.5625 24.125 C231.27415721 22.47739319 229.78385767 22.73752199 227 23 C224.27416571 24.27450883 224.27416571 24.27450883 221.6875 26 C220.80449219 26.556875 219.92148438 27.11375 219.01171875 27.6875 C218.34785156 28.120625 217.68398437 28.55375 217 29 C217.185625 27.1746875 217.185625 27.1746875 217.375 25.3125 C217.34893238 21.64348274 217.05999429 21.07578226 214.625 18 C211.0676297 15.52164249 207.63377426 15.3042844 203.3828125 15.48828125 C200.76990343 16.04941418 199.76190744 16.72199193 197.875 18.5625 C195 21 195 21 191.1875 21 C188.3363022 20.44325328 185.74373431 19.54453267 183.03515625 18.51171875 C177.20425511 16.5435578 171.35802014 16.20459317 165.25 15.8125 C164.14011719 15.73064453 163.03023437 15.64878906 161.88671875 15.56445312 C157.24736378 15.23227308 152.65281727 14.95503758 148 15 Z " fill="#66B8EA" transform="translate(0,0)"/>
<path d="M0 0 C2.08789062 -0.28051758 2.08789062 -0.28051758 4.65625 -0.14453125 C5.59726563 -0.09876953 6.53828125 -0.05300781 7.5078125 -0.00585938 C8.98894531 0.08985352 8.98894531 0.08985352 10.5 0.1875 C11.93472656 0.25420898 11.93472656 0.25420898 13.3984375 0.32226562 C22.53397275 0.82360597 31.0076072 2.5198953 39.67578125 5.4140625 C42.26519759 6.06685654 44.34099269 6.27114877 47 6 C48.3303125 4.7625 48.3303125 4.7625 49.6875 3.5 C52.39052376 1.05540487 54.36534355 0.5384778 58 0.375 C61.39248168 0.5697346 63.82032669 1.04603329 66.625 3 C69.81716834 7.03221264 69.51015841 8.98344228 69 14 C69.66386719 13.566875 70.32773438 13.13375 71.01171875 12.6875 C71.89472656 12.130625 72.77773437 11.57375 73.6875 11 C74.55761719 10.443125 75.42773438 9.88625 76.32421875 9.3125 C79.24423909 7.88019805 80.8011257 7.46246264 84 8 C85.765625 9.4609375 85.765625 9.4609375 87.25 11.375 C87.75015625 12.00148438 88.2503125 12.62796875 88.765625 13.2734375 C90.88331805 16.23552714 91.11390074 18.02694811 91.0625 21.625 C91.05347656 22.44226563 91.04445312 23.25953125 91.03515625 24.1015625 C91.01775391 25.04128906 91.01775391 25.04128906 91 26 C91.763125 26.0825 92.52625 26.165 93.3125 26.25 C96.64584973 27.18023713 97.25843783 28.06080195 99 31 C99.42752331 33.8323419 99.50058508 36.58046668 99.59375 39.44140625 C100.05996097 42.37763877 100.68245492 43.21509364 103 45 C103.680625 45.37125 104.36125 45.7425 105.0625 46.125 C108.13129174 49.09479846 108.45559401 52.86681241 109 57 C109 58.32 109 59.64 109 61 C109.86625 60.896875 110.7325 60.79375 111.625 60.6875 C115 61 115 61 117.59375 63.46875 C121.6022408 66.98382091 125.74290381 66.77771923 130.875 66.8125 C131.75414062 66.83763672 132.63328125 66.86277344 133.5390625 66.88867188 C135.6922332 66.94718195 137.84616221 66.97654236 140 67 C140.33 67.99 140.66 68.98 141 70 C141.66 70 142.32 70 143 70 C143.5 72.1875 143.5 72.1875 143 75 C141.21875 76.234375 141.21875 76.234375 139 77.4375 C135.58381435 79.26711663 135.58381435 79.26711663 134.1875 82.8125 C134.97846461 85.91551501 135.71434706 87.077413 137.5625 89.5625 C140.85059555 94.34602883 140.16597289 98.66215018 139.58984375 104.2421875 C139 107 139 107 137 109 C135.33333333 109.66666667 133.66666667 110.33333333 132 111 C129.31907309 113.68092691 129.61329743 115.39167363 129.375 119.125 C129.30023438 120.22070312 129.22546875 121.31640625 129.1484375 122.4453125 C129.09945313 123.28835937 129.05046875 124.13140625 129 125 C125.535 125.495 125.535 125.495 122 126 C122.95232762 128.63721495 123.82815196 130.78003451 125.5625 133 C129.01241924 137.79988764 128.28144689 144.32415433 128 150 C127.62875 151.3921875 127.62875 151.3921875 127.25 152.8125 C126.72033923 155.24500551 126.72033923 155.24500551 128.9375 157.625 C129.618125 158.40875 130.29875 159.1925 131 160 C131 160.99 131 161.98 131 163 C131.721875 162.835 132.44375 162.67 133.1875 162.5 C136 163 136 163 137.33984375 164.67578125 C138.18724416 166.08468102 139.00473078 167.51207113 139.7890625 168.95703125 C140.99448303 170.99069234 142.33039136 172.34909846 144 174 C145.21320142 177.97047737 145.08088494 181.8748681 145 186 C146.11169556 185.922052 146.11169556 185.922052 147.24584961 185.8425293 C150.39124161 186.02236954 151.55509091 186.68084044 154.06640625 188.51953125 C154.79923828 189.04740234 155.53207031 189.57527344 156.28710938 190.11914062 C157.03798828 190.67794922 157.78886719 191.23675781 158.5625 191.8125 C159.69461914 192.63331055 159.69461914 192.63331055 160.84960938 193.47070312 C163.63626744 195.49624753 166.40747253 197.53022066 169.10717773 199.6706543 C171.46561976 201.32700885 172.66753785 201.23280511 175.5 201 C178.21333292 200.9333879 179.77628457 200.90930455 182.3125 201.9375 C184.51034673 204.62375712 185.55012783 207.51649846 186.85546875 210.71484375 C188.60960359 214.21712663 191.1511637 216.34108612 194 219 C194.33 219.99 194.66 220.98 195 222 C196.31647119 222.69937532 197.65022151 223.36729133 199 224 C202.76759412 231.53518824 199.1223643 243.9229855 198 252 C202.29 252 206.58 252 211 252 C211.09474609 254.69349609 211.09474609 254.69349609 211.19140625 257.44140625 C211.3133795 259.81519341 211.43717326 262.18888752 211.5625 264.5625 C211.59923828 265.74392578 211.63597656 266.92535156 211.67382812 268.14257812 C212.06111452 275.83102729 212.06111452 275.83102729 216.375 281.8828125 C217.00156494 282.40141846 217.62812988 282.92002441 218.27368164 283.4543457 C221.1138162 285.99725221 222.03912878 288.78436014 223.4375 292.3125 C224.17806641 294.13201172 224.17806641 294.13201172 224.93359375 295.98828125 C226 299 226 299 226 301 C219.30064261 301.11662324 212.7767462 300.88515077 206.1171875 300.12109375 C205.41851562 300.08113281 204.71984375 300.04117187 204 300 C203.67 300.33 203.34 300.66 203 301 C201.18672045 300.96713991 199.3740661 300.89788592 197.5625 300.8125 C191.43111421 300.79788406 186.10574663 301.37656691 181 305 C179.03811801 307.83079352 178.02973425 310.73268106 177 314 C176 316.33333333 175 318.66666667 174 321 C173.72671875 321.67546875 173.4534375 322.3509375 173.171875 323.046875 C169.51908273 331.77642941 164.58908135 339.54534156 158.375 346.6875 C157.66085937 347.51636719 156.94671875 348.34523438 156.2109375 349.19921875 C150.99232782 352.12595727 145.82515312 351.33655008 140 351 C138.16308882 350.9059495 136.32617451 350.81196012 134.48925781 350.71801758 C127.96967901 350.36969186 121.45376901 349.96739165 114.9375 349.5625 C111.60425438 349.35840393 108.27094495 349.15544532 104.93754578 348.95387268 C102.75869031 348.82124828 100.57998498 348.68613229 98.40144348 348.54844666 C93.30705854 348.23160938 88.22016609 347.95843339 83.11791992 347.80883789 C82.20438248 347.77809677 81.29084503 347.74735565 80.34962463 347.71568298 C78.66011767 347.66230634 76.97009094 347.62270231 75.27989197 347.60011292 C68.14611256 347.36105788 64.53635189 344.48666877 59.56494141 339.45996094 C56.34929918 336.46003262 52.69028055 334.00049574 49.125 331.4375 C42.16024858 326.35822611 35.27735484 321.18357169 28.4375 315.9375 C21.12685815 310.33572573 13.73477489 304.87206241 6.24584961 299.51147461 C1.93224407 296.41723559 -2.30899418 293.25850703 -6.5 290 C-12.2129431 285.56137253 -18.04991707 281.31750438 -23.92578125 277.09765625 C-28.67983531 273.68142645 -33.41203977 270.23840753 -38.11938477 266.75805664 C-39.70555239 265.58669031 -41.29458861 264.4191984 -42.88647461 263.25561523 C-46.86058513 260.34740179 -50.78195385 257.39707923 -54.63671875 254.33203125 C-63.01325154 247.78235737 -69.48860189 243.73577981 -80.12109375 242.46875 C-84.21925315 241.97350415 -87.78245899 241.06762358 -91.75 239.9375 C-97.0880718 238.45935055 -102.32179426 237.39360825 -107.79296875 236.5703125 C-114.27559154 235.41749529 -120.63293291 233.66448708 -127 232 C-126.45276317 228.62537285 -125.9451 226.91765 -124 224 C-126.01822917 224.09765625 -128.03645833 224.1953125 -130.0546875 224.29296875 C-130.69664062 224.19628906 -131.33859375 224.09960938 -132 224 C-134.14809171 220.77786243 -134.29386153 219.72224599 -134 216 C-133.67 215.67 -133.34 215.34 -133 215 C-133.49408443 209.2880846 -135.08966242 204.1144067 -136.875 198.6875 C-137.41830358 196.9988056 -137.96127576 195.31000455 -138.50390625 193.62109375 C-138.76316895 192.8204248 -139.02243164 192.01975586 -139.28955078 191.19482422 C-141.3601817 184.79792663 -143.27196444 178.69792718 -144 172 C-136.3576314 166.41649931 -128.3683102 161.55089404 -120.1875 156.8125 C-118.89924592 156.06205615 -117.61116213 155.31131989 -116.32324219 154.56030273 C-109.67644957 150.68933598 -103.01340763 146.84694623 -96.33178711 143.03637695 C-94.6258104 142.062478 -92.92214434 141.08451904 -91.22094727 140.10229492 C-87.25016969 137.81523094 -83.26723686 135.60723575 -79.1796875 133.53515625 C-70.67440207 129.12060181 -64.84878364 125.26331046 -61.0078125 116.04296875 C-59.40939354 110.59655492 -59.40185032 104.97758486 -59.35205078 99.33911133 C-59.24697 92.56399532 -57.78195343 87.97104963 -55.01953125 81.76953125 C-53.18855874 76.79574002 -53.90742616 72.43066989 -56.04296875 67.6796875 C-58.54133409 60.68426454 -57.96838956 50.74633992 -55 44 C-52.48009698 39.62841106 -50.38983356 36.60313532 -45.6875 34.5625 C-42 34 -42 34 -40.08203125 34.13061523 C-35.84596374 34.23840448 -33.56311144 33.44850675 -30.2121582 30.77954102 C-27.11060663 27.81472187 -24.20698112 24.66518126 -21.3125 21.5 C-19.80341198 19.86718461 -18.28873472 18.24122553 -16.75737 16.62927246 C-15.37308469 15.16997162 -14.01070652 13.68998142 -12.6496582 12.20898438 C-9.67187473 9.72644638 -7.81884843 9.25992345 -4 9 C-3.566875 7.6078125 -3.566875 7.6078125 -3.125 6.1875 C-2 3 -2 3 0 0 Z M3 9 C2.34 10.98 1.68 12.96 1 15 C-0.093125 15.061875 -1.18625 15.12375 -2.3125 15.1875 C-6.10268986 15.57086782 -6.10268986 15.57086782 -7.49511719 18.29663086 C-7.99172852 19.18874268 -8.48833984 20.08085449 -9 21 C-11.60055032 23.99957093 -14.43747266 26.761992 -17.25 29.5625 C-18.35794922 30.69461914 -18.35794922 30.69461914 -19.48828125 31.84960938 C-26.42658762 38.79403418 -31.49455843 42.41893361 -41.546875 42.53125 C-44.10312222 42.78001458 -44.10312222 42.78001458 -45.703125 44.71875 C-49.49990447 51.39742232 -49.74264344 57.41812859 -49 65 C-48.14275995 67.97425025 -47.11838978 70.7303344 -45.875 73.5625 C-44.88720209 76.31422275 -44.64122822 78.09803583 -45 81 C-45.91763034 82.68091918 -46.90620167 84.32382144 -47.9375 85.9375 C-51.17778219 91.99899786 -51.37152497 97.00839741 -51.375 103.8125 C-51.40523238 113.18453857 -53.24300102 119.35294958 -58.28515625 127.19921875 C-60.26108576 129.87907654 -60.26108576 129.87907654 -60 133 C-60.7115625 133.2686084 -61.423125 133.5372168 -62.15625 133.81396484 C-65.06940306 135.02894575 -67.74610379 136.43553438 -70.5 137.9765625 C-72.06826538 138.85308472 -72.06826538 138.85308472 -73.66821289 139.74731445 C-75.31744751 140.6767688 -75.31744751 140.6767688 -77 141.625 C-78.12978271 142.25946045 -79.25956543 142.8939209 -80.42358398 143.54760742 C-87.03761734 147.27846605 -93.55340045 151.10463281 -99.98046875 155.1484375 C-104.21272882 157.74363966 -108.54720116 160.14255057 -112.88500977 162.55566406 C-120.02214255 166.54006558 -127.01555758 170.75514491 -134 175 C-133.40762095 180.01590523 -132.33207265 184.49118365 -130.75 189.3125 C-129.26801582 193.83730447 -127.88130211 198.34989282 -126.734375 202.97265625 C-126.5271582 203.79016357 -126.31994141 204.6076709 -126.10644531 205.44995117 C-125.70856168 207.04100518 -125.32710097 208.63627538 -124.96386719 210.2355957 C-124.38699259 212.69847131 -124.38699259 212.69847131 -123 216 C-120.49482537 217.60023285 -120.49482537 217.60023285 -118 218 C-117.67 220.31 -117.34 222.62 -117 225 C-115.08707153 225.47626831 -115.08707153 225.47626831 -113.13549805 225.9621582 C-108.35849884 227.15184847 -103.58190246 228.34314935 -98.80541992 229.53491211 C-96.7466085 230.04836559 -94.68769123 230.56139485 -92.62866211 231.07397461 C-89.65189448 231.81509954 -86.67552365 232.55780051 -83.69921875 233.30078125 C-82.7935466 233.52590897 -81.88787445 233.75103668 -80.95475769 233.98298645 C-78.30081321 234.64641563 -75.64991901 235.3206793 -73 236 C-72.02019669 236.24799347 -71.04039337 236.49598694 -70.03089905 236.75149536 C-69.059384 237.00486664 -68.08786896 237.25823792 -67.08691406 237.51928711 C-66.20996887 237.74563339 -65.33302368 237.97197968 -64.42950439 238.20518494 C-60.45063644 239.50687601 -57.36388849 241.73155605 -54.0625 244.25 C-53.352146 244.77086182 -52.64179199 245.29172363 -51.90991211 245.82836914 C-49.59306506 247.53481948 -47.29578144 249.26533567 -45 251 C-43.3650381 252.2232643 -41.72961285 253.44590954 -40.09375 254.66796875 C-37.5630591 256.56179213 -35.034708 258.45847434 -32.51171875 260.36254883 C-27.07941446 264.46128917 -21.59663104 268.47760655 -16.0625 272.4375 C-8.46849836 277.87806698 -1.03215729 283.5093886 6.38330078 289.19018555 C11.48828809 293.09752603 16.61737375 296.96332093 21.8125 300.75 C33.38288517 309.18482171 44.79431739 317.82776822 56.1875 326.5 C57.08484863 327.18280029 57.98219727 327.86560059 58.90673828 328.5690918 C59.75606934 329.216604 60.60540039 329.86411621 61.48046875 330.53125 C62.68292236 331.44028076 62.68292236 331.44028076 63.90966797 332.36767578 C66 334 66 334 68.58203125 336.3984375 C72.04735799 338.69372662 75.46012313 338.85793365 79.5 339.125 C80.38292725 339.1957373 81.26585449 339.26647461 82.17553711 339.33935547 C85.44898703 339.58733999 88.72348824 339.79634274 92 340 C93.02930634 340.06574219 93.02930634 340.06574219 94.07940674 340.1328125 C104.31382648 340.78630869 114.55005013 341.34390313 124.79492188 341.80517578 C127.36281677 341.92103858 129.92760486 342.05275785 132.49414062 342.19873047 C143.78521547 343.25983334 143.78521547 343.25983334 153.875 339.125 C155.59130808 337.20658441 155.59130808 337.20658441 157 335 C157.53238281 334.22785156 158.06476563 333.45570313 158.61328125 332.66015625 C160.20461206 330.16062175 161.61679607 327.61976446 163 325 C163.41894531 324.24074219 163.83789062 323.48148437 164.26953125 322.69921875 C166.30401993 318.85629569 168.0185868 315.05250145 169.36328125 310.91796875 C169.60433594 310.20012207 169.84539062 309.48227539 170.09375 308.74267578 C170.56310994 307.3189719 171.00587731 305.88614727 171.41796875 304.44482422 C172.38743392 301.52003334 173.25430738 299.42786847 175.98193359 297.86279297 C178.19921875 297.02734375 178.19921875 297.02734375 182 296 C182 295.34 182 294.68 182 294 C188.48349807 292.81864526 194.86214507 292.88677026 201.4375 292.9375 C202.55060547 292.94201172 203.66371094 292.94652344 204.81054688 292.95117188 C207.54042101 292.96288807 210.27018174 292.97929301 213 293 C212.22361451 289.40103658 211.02788268 287.51778928 208.5625 284.75 C207.94503906 284.04359375 207.32757813 283.3371875 206.69140625 282.609375 C205.14763552 280.77022637 205.14763552 280.77022637 203 281 C203 274.07 203 267.14 203 260 C198.38 260 193.76 260 189 260 C189.10055564 257.81558926 189.20192177 255.63121314 189.30712891 253.44702148 C189.39443073 251.59913284 189.47608766 249.75096933 189.55224609 247.90258789 C189.76566093 243.13112146 190.2119614 238.6331271 191.125 233.9375 C191.65934191 229.05872601 189.75817901 226.62115208 186.8125 222.8125 C184.52347719 220.02177277 184.52347719 220.02177277 182 218 C180.68 218 179.36 218 178 218 C178 215.69 178 213.38 178 211 C177.35933594 210.99742187 176.71867187 210.99484375 176.05859375 210.9921875 C170.28139998 210.7338927 167.28678664 209.96056454 163.1640625 205.96484375 C156.88729494 200.26590137 148.87870777 193.3247652 140.0625 193.375 C137.77337523 193.59693818 137.77337523 193.59693818 136 194 C136 188.66666667 136 183.33333333 136 178 C135.1612144 176.05226443 135.1612144 176.05226443 134 174.25 C133.34 173.1775 132.68 172.105 132 171 C131.34 171 130.68 171 130 171 C130 170.01 130 169.02 130 168 C129.25363281 167.76667969 128.50726563 167.53335938 127.73828125 167.29296875 C122.90611291 165.01130296 120.4612531 160.61139275 118 156 C117.3336885 151.40985411 117.87411562 148.98603322 120 145 C120.5 142.5 120.5 142.5 120 140 C118.71182656 138.62298702 117.37195574 137.29355827 116 136 C113.70957603 132.15535977 112.50026814 129.47057419 113 125 C114.4609375 122.75390625 114.4609375 122.75390625 116.375 120.5625 C119.24887272 117.08966383 120.71554845 114.34737447 122 110 C122.70125 109.13375 123.4025 108.2675 124.125 107.375 C126.41309619 104.98106642 126.41309619 104.98106642 126 101 C127.65 101 129.3 101 131 101 C131.41159855 98.36576927 131.3970109 96.59064078 129.88671875 94.34375 C129.42910156 93.7353125 128.97148437 93.126875 128.5 92.5 C124.80936775 87.09400346 125.56833641 81.29269592 126 75 C124.80375 74.938125 123.6075 74.87625 122.375 74.8125 C118.76052357 74.38838455 118.00787853 74.00670513 115.0625 71.5 C111.10345143 68.26812361 107.9766857 68.12165232 103 68 C102.90203125 67.15695313 102.8040625 66.31390625 102.703125 65.4453125 C102.47882813 63.80175781 102.47882813 63.80175781 102.25 62.125 C102.04117188 60.48917969 102.04117188 60.48917969 101.828125 58.8203125 C101.31458255 55.87129132 101.31458255 55.87129132 98.9765625 54.83203125 C98.32429687 54.55746094 97.67203125 54.28289062 97 54 C96.566875 52.2984375 96.566875 52.2984375 96.125 50.5625 C95.34465558 46.74372995 95.34465558 46.74372995 91.875 45.0625 C90.92625 44.711875 89.9775 44.36125 89 44 C89 39.71 89 35.42 89 31 C87.02 30.01 85.04 29.02 83 28 C83 24.7 83 21.4 83 18 C79.10351215 16.54935843 79.10351215 16.54935843 76.265625 18.46875 C75.27046875 19.1390625 74.2753125 19.809375 73.25 20.5 C66.68466642 24.56310473 66.68466642 24.56310473 62.25 23.9375 C61.1775 23.628125 60.105 23.31875 59 23 C59 18.71 59 14.42 59 10 C54.38309557 10.68575082 54.38309557 10.68575082 51.97265625 12.04296875 C45.64787103 15.11142891 38.03295297 12.60711092 31.69921875 10.734375 C22.42686904 8.21165178 12.52688608 8.89362038 3 9 Z " fill="#F5FAFC" transform="translate(148,15)"/>
<path d="M0 0 C7.75260677 5.85425914 12.31752069 11.56585668 15 21 C16.26288409 35.76098285 13.42654071 45.5201534 4 57 C1.5625 59.75 1.5625 59.75 -1 62 C-1.598125 62.54011719 -2.19625 63.08023438 -2.8125 63.63671875 C-19.19638857 77.52085962 -39.58062376 78.05477573 -60 77 C-69.30305318 76.22587733 -78.50573031 74.59753244 -87.70120239 73.03083801 C-117.14526901 68.0298496 -146.7160063 65.18120146 -174.07421875 80.046875 C-176 81 -176 81 -178 81 C-176.58039498 76.74118495 -173.49725636 75.66965944 -169.75 73.625 C-168.66452881 73.02727783 -168.66452881 73.02727783 -167.55712891 72.41748047 C-161.23281301 69.00437967 -154.86460288 66.16374998 -148 64 C-147.00871094 63.68160156 -146.01742187 63.36320312 -144.99609375 63.03515625 C-129.01416182 58.77984431 -110.94343003 59.8069034 -94.88671875 63.20703125 C-89.64166353 64.27712794 -84.38972629 64.86927431 -79.07421875 65.47265625 C-75.81746932 65.85465405 -72.62204256 66.44093109 -69.3984375 67.0390625 C-62.56356229 68.19364202 -55.85683205 68.33131276 -48.9375 68.3125 C-47.15375977 68.33666992 -47.15375977 68.33666992 -45.33398438 68.36132812 C-34.84834972 68.3670863 -26.01310807 66.37923156 -16.6875 61.625 C-15.55699219 61.06039062 -14.42648438 60.49578125 -13.26171875 59.9140625 C-8.17897378 56.93137383 -4.04464386 53.64070783 -0.8125 48.625 C-0.11060547 47.56152344 -0.11060547 47.56152344 0.60546875 46.4765625 C5.4620473 37.85171432 6.47794128 29.71946604 5 20 C2.53852779 13.31886115 -2.87988536 8.46889089 -9 5 C-14.78557376 3.05964397 -22.17352339 2.96956294 -27.875 5.1875 C-33.31020396 8.3399183 -36.86721417 12.05065005 -39 18 C-39.75579762 22.49699586 -39.91313171 26.293812 -37.72265625 30.38671875 C-34.88965875 34.29328897 -34.88965875 34.29328897 -31 37 C-26.71180044 37.43808718 -23.05577552 37.44926618 -19.0625 35.75 C-16.79959596 33.82996021 -15.86520071 32.83156597 -15 30 C-14.80430732 26.28183899 -14.82009761 23.53970718 -16 20 C-16.99 19.67 -17.98 19.34 -19 19 C-19 18.34 -19 17.68 -19 17 C-22.3 17.33 -25.6 17.66 -29 18 C-28.67 17.01 -28.34 16.02 -28 15 C-23.72481447 13.57493816 -20.06255627 13.06924356 -15.8359375 14.9765625 C-12.08278305 17.2011595 -9.56200081 18.7940271 -8 23 C-7.06922529 28.76364343 -7.18753366 33.64075439 -10.625 38.5 C-14.23624537 42.57936977 -17.23767959 44.73031739 -22.80078125 45.2734375 C-28.94293282 45.47231165 -33.77698606 45.34272892 -39 42 C-41.31819538 39.51151065 -43.17797583 36.8655471 -45 34 C-45.61875 33.0925 -46.2375 32.185 -46.875 31.25 C-49.27288928 24.3227643 -49.01983478 17.35063293 -45.9375 10.6875 C-41.81005026 3.45574299 -36.92416496 -1.35861168 -29 -4 C-18.67078069 -6.4635276 -8.83320426 -6.16685761 0 0 Z " fill="#F5FAFC" transform="translate(227,96)"/>
<path d="M0 0 C0 0.66 0 1.32 0 2 C1.31097656 2.38478516 1.31097656 2.38478516 2.6484375 2.77734375 C14.86290145 7.23320298 25.81344883 17.51556584 35.77954102 25.7590332 C53.48575059 40.37776634 72.54106208 53.58352825 96.44921875 53.33984375 C106.09786427 52.41637603 114.58485788 48.25052918 121 41 C121.67869141 40.23429687 121.67869141 40.23429687 122.37109375 39.453125 C126.25826175 34.01916004 125.65194436 27.37456708 125 21 C123.8010552 15.3718955 120.67353684 12.2355255 116 9 C110.67651459 6.08714949 105.96980784 5.04905716 100 6 C95.25808076 7.7328035 91.33757748 10.51185123 89 15 C88.23496806 20.60760526 88.42201521 25.42367785 90.375 30.75 C93.82702794 33.70888109 96.13535528 33.60513669 100.5625 33.50390625 C103.46117291 32.90466137 104.90986684 32.09013316 107 30 C107.87378949 26.58740483 107.63301217 23.15431631 105.9375 20.0625 C103.06692435 18.48831335 100.2252528 18.30426913 97 18 C97.33 17.01 97.66 16.02 98 15 C102.85890446 14.48853637 105.96660668 14.43862368 110 17.375 C112.8553651 20.11954043 113.49557611 22.1268372 113.625 26.0625 C113.17816907 31.80255885 111.28770803 34.51418305 107.5625 38.8125 C103.71396776 41.86046037 99.57287094 41.634436 94.83984375 41.41796875 C88.27607248 40.45191163 84.75261365 36.03922404 81 31 C79.07525228 25.22575685 78.91578426 17.84921028 81.1875 12.125 C85.10635044 5.36836131 89.38862517 0.42982498 97 -2 C99.76815861 -2.29430774 102.35777292 -2.48026365 105.125 -2.5 C106.12817261 -2.50942627 106.12817261 -2.50942627 107.15161133 -2.51904297 C115.9308835 -2.29618036 121.60102762 1.72958779 127.75390625 7.5546875 C133.66210114 13.98691359 134.62614453 20.26663575 134.31640625 28.859375 C133.36079472 38.34470426 128.95096218 46.97741285 121.625 53.1875 C108.77550679 61.95856898 95.66260623 63.40472927 80.625 60.9375 C63.32434442 57.10473938 47.21664817 46.90664298 34.01000977 35.32617188 C26.97895648 29.16089472 19.48480301 23.59782818 12 18 C11.11828125 17.33097656 10.2365625 16.66195312 9.328125 15.97265625 C-2.73883675 7.130486 -15.42773077 0.41168943 -30 -3 C-30.85980469 -3.28359375 -31.71960938 -3.5671875 -32.60546875 -3.859375 C-41.79049678 -6.87832995 -51.4194791 -6.72787943 -61 -7 C-48.30830907 -19.69169093 -13.54204064 -6.37898695 0 0 Z " fill="#F3F9FC" transform="translate(138,182)"/>
<path d="M0 0 C12.57075404 9.87702103 24.21317818 21.19859473 34.5 33.4375 C35.34175781 34.42492187 36.18351563 35.41234375 37.05078125 36.4296875 C44.45009273 45.1230777 44.45009273 45.1230777 47.48071289 48.91723633 C53.02503111 55.8305827 58.91634822 62.24094302 65.1875 68.5 C65.66766571 68.97962189 66.14783142 69.45924377 66.64254761 69.95339966 C74.08218526 77.35448917 81.49128943 84.00101667 90.5 89.4375 C91.57121094 90.09621094 92.64242187 90.75492187 93.74609375 91.43359375 C107.77044647 99.53168938 124.5202897 103.72628608 140.66064453 99.92919922 C143.58387439 99.00748621 146.33212403 97.83964613 149.1015625 96.53125 C151.5 95.4375 151.5 95.4375 154.5 95.4375 C154.5 96.0975 154.5 96.7575 154.5 97.4375 C152.52382862 98.38129746 150.5438794 99.31718564 148.5625 100.25 C147.46035156 100.77207031 146.35820312 101.29414063 145.22265625 101.83203125 C137.79639499 105.12362777 131.28947572 106.95617606 123.125 106.8125 C122.29500488 106.80379883 121.46500977 106.79509766 120.60986328 106.78613281 C114.21697689 106.63383206 108.49027031 105.76537724 102.5 103.4375 C101.76136719 103.1590625 101.02273437 102.880625 100.26171875 102.59375 C89.63071885 98.2129472 80.18370993 91.90690252 71.5 84.4375 C70.75878906 83.80714844 70.01757812 83.17679687 69.25390625 82.52734375 C57.91653999 72.60475844 46.91277108 61.91832048 37.609375 50.0546875 C35.14882653 47.00178477 32.53884206 44.12517263 29.875 41.25 C29.17201782 40.49106445 29.17201782 40.49106445 28.45483398 39.71679688 C27.99923096 39.22501953 27.54362793 38.73324219 27.07421875 38.2265625 C23.28688852 34.12314249 19.56916916 29.95553654 16.0234375 25.640625 C12.23397324 21.06084467 8.06998426 17.23083219 3.5 13.4375 C2.37271484 12.4784375 2.37271484 12.4784375 1.22265625 11.5 C-11.38086817 1.04132171 -25.7241844 -7.19798126 -41.4921875 -11.703125 C-43.49965367 -12.27668676 -45.49092142 -12.91023759 -47.4609375 -13.6015625 C-64.93947632 -19.1281956 -87.76856732 -18.48690433 -105.5 -14.5625 C-107.16648913 -14.22828019 -108.83310353 -13.89468224 -110.5 -13.5625 C-110.17 -14.5525 -109.84 -15.5425 -109.5 -16.5625 C-105.85233586 -18.11993443 -101.92019531 -18.86060907 -98.0625 -19.75 C-96.9062915 -20.01756104 -95.75008301 -20.28512207 -94.55883789 -20.56079102 C-61.01620575 -27.68358629 -27.54990597 -20.0331169 0 0 Z " fill="#F3F9FC" transform="translate(144.5,204.5625)"/>
<path d="M0 0 C4.89210737 4.30460256 7.63964108 9.60295795 8.3203125 16.01953125 C8.68108012 26.3495107 6.40455018 32.446132 -0.25 40.25 C-8.535512 48.96874138 -16.7863712 52.11275098 -28.73364258 52.43139648 C-55.32986925 52.5011004 -78.04867168 37.89440679 -96.44628906 19.60595703 C-102.60370752 13.24148522 -108.19297713 6.43811853 -113 -1 C-112.67 -1.66 -112.34 -2.32 -112 -3 C-111.55833496 -2.54262451 -111.11666992 -2.08524902 -110.66162109 -1.61401367 C-91.63424108 17.99643966 -65.82282035 42.25337199 -36.65234375 43.30078125 C-34.74744657 43.31522223 -32.84244098 43.31895743 -30.9375 43.3125 C-29.98294922 43.32861328 -29.02839844 43.34472656 -28.04492188 43.36132812 C-19.09595357 43.36750409 -13.40400205 41.09195823 -6.80078125 34.9375 C-2.22133666 30.01037523 -0.76542895 25.58537556 -0.5 18.875 C-0.70497086 13.78275529 -1.33395468 10.75769645 -5 7 C-8.7276069 3.90740578 -12.19541013 1.70776049 -17.125 1.5 C-23.04848326 2.26432042 -27.23647871 4.3332336 -31 9 C-31.59473005 12.16627246 -31.59473005 12.16627246 -31.4375 15.5625 C-31.43621094 16.69816406 -31.43492187 17.83382813 -31.43359375 19.00390625 C-31.22504586 21.9514027 -31.22504586 21.9514027 -29.75390625 23.87890625 C-27.53583585 25.2966929 -26.12122567 25.40121226 -23.5 25.375 C-22.7265625 25.38273437 -21.953125 25.39046875 -21.15625 25.3984375 C-18.48209859 24.90430083 -17.60416185 24.1706315 -16 22 C-15.33323122 18.54250051 -15.33323122 18.54250051 -16 15 C-18.35832772 12.52791204 -18.35832772 12.52791204 -21 11 C-17.10496422 10.54708886 -15.42316144 10.71482599 -12.125 12.9375 C-9.64498162 16.51164414 -9.26621597 18.51778175 -9.5078125 22.78125 C-10.49320656 27.22334386 -13.23630545 29.66202482 -16.8125 32.375 C-21.08984234 33.59709781 -25.2575126 33.33999754 -29.5625 32.5 C-33.71314979 29.94575398 -36.72098929 27.37340883 -39 23 C-40.02723797 16.59688334 -40.42019312 10.5526347 -37.20703125 4.77734375 C-35.25442053 2.3201646 -33.3679869 0.23636366 -31 -1.8125 C-30.34 -2.39644531 -29.68 -2.98039063 -29 -3.58203125 C-20.06528579 -9.91660402 -7.96317477 -5.7901953 0 0 Z " fill="#F3F9FC" transform="translate(306,245)"/>
<path d="M0 0 C10.4186734 0.27709238 19.9415466 1.55815338 29.96142578 4.43066406 C32.01634628 5.00456521 34.07962405 5.51799076 36.15234375 6.0234375 C55.17267689 10.85739527 76.1213134 21.91538583 86.54296875 39.05078125 C88.66264895 43.34128676 89.64811488 47.24564098 90 52 C90.06832031 52.78375 90.13664062 53.5675 90.20703125 54.375 C90.44575411 59.60921973 89.4841209 63.29791401 87 68 C86.46375 69.03125 85.9275 70.0625 85.375 71.125 C82.17721856 74.99599859 78.46644654 76.8357566 74 79 C73.01 79.495 73.01 79.495 72 80 C65.67422459 80.61141324 59.5232998 80.38983636 54 77 C49.73970137 73.08052526 46.31548725 68.83938525 45.6640625 62.9765625 C45.53266271 51.70246031 45.53266271 51.70246031 50 47 C50.86625 46.05125 51.7325 45.1025 52.625 44.125 C57.19728593 41.2461533 60.73346521 41.21945494 66 42 C70.66475434 43.64130245 73.55107442 45.66728551 76 50 C76.31594936 53.03209465 76.23808059 55.96447246 76 59 C75.34 59 74.68 59 74 59 C73.67 59.99 73.34 60.98 73 62 C69.3558226 64.4294516 67.28758728 64.16179575 63 64 C62.67 63.01 62.34 62.02 62 61 C64.31 60.34 66.62 59.68 69 59 C69.76522801 55.64541845 69.76522801 55.64541845 70 52 C68.45544374 49.81355022 67.51243999 49.10475293 64.87890625 48.56640625 C61.26682467 48.56031505 58.68884392 48.64717751 55.4375 50.3125 C53.07594812 54.72757525 53.29308528 59.1152193 54 64 C55.60857076 67.27459047 56.91044012 69.14391724 59.75 71.375 C64.59427919 72.72063311 68.6104887 72.50770605 73.25 70.8125 C77.46408746 68.03503326 80.00044043 64.58873286 82 60 C83.14990028 53.12734019 81.30100298 47.00976719 78 41 C75.89693524 38.06924391 73.5699723 35.52604115 71 33 C70.24976563 32.23429687 70.24976563 32.23429687 69.484375 31.453125 C64.75038607 27.00604449 59.07318309 24.00022997 53.421875 20.88671875 C51.43732683 19.7924987 49.46239413 18.67963424 47.515625 17.51953125 C41.63313306 14.03082709 35.5130475 12.01886917 29 10 C27.54048376 9.50346355 26.08204661 9.00373731 24.625 8.5 C16.56487438 5.81820318 8.41426151 3.25128623 0 2 C0 1.34 0 0.68 0 0 Z " fill="#F2F8FC" transform="translate(66,193)"/>
<path d="M0 0 C5.65362728 3.09683763 10.2080287 6.65734498 12.2421875 12.93359375 C13.34486967 20.78151192 12.87307068 28.31065467 8.2421875 34.93359375 C-3.02082297 47.203086 -18.28089013 47.99372097 -33.9453125 49.18359375 C-35.1521167 49.27584229 -36.3589209 49.36809082 -37.60229492 49.46313477 C-46.36873362 50.06328671 -46.36873362 50.06328671 -49.7578125 48.93359375 C-44.09134424 45.51010251 -38.6346952 44.18748189 -32.18554688 43.07666016 C-12.04679044 40.0547226 -12.04679044 40.0547226 3.2421875 27.93359375 C5.67688879 24.33951089 5.61116708 21.21375684 5.2421875 16.93359375 C3.92451845 13.20019811 2.58405909 11.25045034 -0.3203125 8.55859375 C-4.91812172 6.38508394 -8.75818846 5.9935646 -13.7578125 6.93359375 C-17.05170162 8.72705799 -17.05170162 8.72705799 -18.7578125 11.93359375 C-19.51856589 15.70006887 -19.2271377 18.89064886 -17.6328125 22.43359375 C-14.96620365 24.56688083 -13.07887587 24.28689836 -9.7578125 23.93359375 C-9.0978125 23.60359375 -8.4378125 23.27359375 -7.7578125 22.93359375 C-7.64460394 17.85055689 -7.64460394 17.85055689 -8.7578125 12.93359375 C-6.8828125 13.24609375 -6.8828125 13.24609375 -4.7578125 13.93359375 C-2.29575772 17.62667592 -2.18738738 20.64676253 -2.7578125 24.93359375 C-4.50034595 28.16972729 -5.22967194 28.7575469 -8.7578125 29.93359375 C-12.52636233 30.43606706 -16.17050294 30.77078234 -19.609375 28.95703125 C-23.3330906 25.96705272 -25.40713305 23.10510883 -26.1640625 18.41796875 C-26.37929811 12.14026341 -25.66377705 8.29927983 -21.44921875 3.52734375 C-15.48540926 -2.09213494 -7.55608317 -2.9218282 0 0 Z " fill="#F1F8FC" transform="translate(146.7578125,101.06640625)"/>
<path d="M0 0 C0 0.66 0 1.32 0 2 C0.99 2.66 1.98 3.32 3 4 C2.39414063 4.15855469 1.78828125 4.31710938 1.1640625 4.48046875 C-4.59683943 6.08465836 -9.69888912 8.1850054 -14.96875 11.01171875 C-17 12 -17 12 -19 12 C-17.86351798 8.59055395 -17.46011714 8.39306229 -14.47265625 6.73828125 C-13.40821289 6.14370117 -13.40821289 6.14370117 -12.32226562 5.53710938 C-11.20368164 4.93092773 -11.20368164 4.93092773 -10.0625 4.3125 C-9.32064453 3.89677734 -8.57878906 3.48105469 -7.81445312 3.05273438 C-2.28544489 0 -2.28544489 0 0 0 Z " fill="#DEF0F9" transform="translate(68,165)"/>
<path d="M0 0 C2.54194161 0.14188985 5.08347993 0.28839155 7.625 0.4375 C8.69427734 0.49647461 8.69427734 0.49647461 9.78515625 0.55664062 C13.91803682 0.80309681 17.92269024 1.23470053 22 2 C22 2.33 22 2.66 22 3 C20.576875 3.2165625 20.576875 3.2165625 19.125 3.4375 C16.1065506 3.82935399 16.1065506 3.82935399 14 5 C11.61199395 4.59054573 9.23760538 4.09945577 6.875 3.5625 C4.95300781 3.13130859 4.95300781 3.13130859 2.9921875 2.69140625 C1.51105469 2.34916016 1.51105469 2.34916016 0 2 C0 1.34 0 0.68 0 0 Z " fill="#D2EAF7" transform="translate(66,193)"/>
<path d="M0 0 C-0.99 0.66 -1.98 1.32 -3 2 C-3 2.33 -3 2.66 -3 3 C-4.32064453 3.19916016 -4.32064453 3.19916016 -5.66796875 3.40234375 C-6.82941406 3.57894531 -7.99085937 3.75554687 -9.1875 3.9375 C-10.91033203 4.19853516 -10.91033203 4.19853516 -12.66796875 4.46484375 C-15.46325212 4.91379313 -18.22933586 5.42082162 -21 6 C-20.67 5.01 -20.34 4.02 -20 3 C-17.36573867 2.08321753 -14.89084152 1.37439384 -12.1875 0.75 C-11.46240234 0.564375 -10.73730469 0.37875 -9.99023438 0.1875 C-6.27681727 -0.70942783 -3.64338714 -1.12259812 0 0 Z " fill="#D0EAF7" transform="translate(55,185)"/>
<path d="M0 0 C4.13621084 3.3810038 7.81316569 6.66590534 11 11 C10.34 11 9.68 11 9 11 C8.67 11.66 8.34 12.32 8 13 C6.66094733 11.2126038 5.32890934 9.41995047 4 7.625 C3.2575 6.62726563 2.515 5.62953125 1.75 4.6015625 C0 2 0 2 0 0 Z " fill="#DCEEF8" transform="translate(193,242)"/>
<path d="M0 0 C0 0.66 0 1.32 0 2 C-1.62249941 2.83819158 -3.24808497 3.6704116 -4.875 4.5 C-5.77992188 4.9640625 -6.68484375 5.428125 -7.6171875 5.90625 C-10 7 -10 7 -12 7 C-12 6.34 -12 5.68 -12 5 C-12.66 4.67 -13.32 4.34 -14 4 C-12.23141309 3.32739649 -10.46003984 2.66211605 -8.6875 2 C-7.70136719 1.62875 -6.71523438 1.2575 -5.69921875 0.875 C-3 0 -3 0 0 0 Z " fill="#D9EEF8" transform="translate(299,300)"/>
<path d="M0 0 C0.66 0.33 1.32 0.66 2 1 C2 1.99 2 2.98 2 4 C-9.385 3.505 -9.385 3.505 -21 3 C-21 2.67 -21 2.34 -21 2 C-14.07 2 -7.14 2 0 2 C0 1.34 0 0.68 0 0 Z " fill="#AEDAF3" transform="translate(359,304)"/>
<path d="M0 0 C0 0.66 0 1.32 0 2 C0.99 2.66 1.98 3.32 3 4 C0.36 4.66 -2.28 5.32 -5 6 C-4.67 5.01 -4.34 4.02 -4 3 C-4.66 2.67 -5.32 2.34 -6 2 C-2.25 0 -2.25 0 0 0 Z " fill="#D2EBF7" transform="translate(68,165)"/>
<path d="M0 0 C0.66 0.33 1.32 0.66 2 1 C-0.97 3.97 -3.94 6.94 -7 10 C-7 6.04435836 -5.59478606 4.89133304 -3 2 C-2.01 1.34 -1.02 0.68 0 0 Z " fill="#E2F1F8" transform="translate(229,183)"/>
<path d="M0 0 C0.66 0.33 1.32 0.66 2 1 C-0.64 3.64 -3.28 6.28 -6 9 C-6 5.06368636 -4.57142871 3.87394974 -2 1 C-1.34 0.67 -0.68 0.34 0 0 Z " fill="#E1F0F9" transform="translate(129,102)"/>
<path d="M0 0 C0.8971875 0.309375 0.8971875 0.309375 1.8125 0.625 C-1.1340385 2.42566242 -4.07551935 4.12663895 -7.1875 5.625 C-5.69046729 2.17030914 -4.27938051 -0.73360809 0 0 Z " fill="#83C8EF" transform="translate(135.1875,107.375)"/>
</svg>
