<svg width="500" height="500" viewBox="0 0 100 100" xmlns="http://www.w3.org/2000/svg">
  <!-- Circular Border -->
  <circle cx="50" cy="50" r="45" fill="none" stroke="#1a3d40" stroke-width="2.5" />
  
  <!-- Iraq Map Outline -->
  <!-- Scaled and centered from the path data:
       M617.45,348.02 ... Z
       Min X: 607.59, Max X: 634.70 (Range: 27.11)
       Min Y: 347.48, Max Y: 375.00 (Range: 27.52)
       Scale factor to fit ~60 units: 60 / 27.5 = 2.18
       Translation: 
       New X = (Old X - 607.59) * 2.18 + 20
       New Y = (Old Y - 347.48) * 2.18 + 20
  -->
  <g transform="translate(50, 50) scale(2.2) translate(-621, -361)">
    <path d="M617.455884,348.027560L616.034399,350.192325L614.516314,351.044471L614.777737,353.548605L613.729897,357.643190L607.589909,361.120690L608.707977,365.137243L612.048710,366.023834L616.181162,368.301751L624.001048,374.755023L629.157549,375.008626L631.193032,371.946887L633.056527,372.213548L634.702457,372.370526L632.254345,368.966171L632.708967,366.613894L631.281893,364.125978L627.883544,362.318536L625.962433,359.157366L626.605240,356.535659L628.001213,355.368275L627.791960,353.381128L625.973326,352.354346L624.176333,348.234486L624.176272,348.234513L622.847149,348.821808L621.873121,347.935741L618.647190,347.485721L617.455884,348.027560Z" 
          fill="none" stroke="#1a3d40" stroke-width="0.8" stroke-linejoin="round" />
    
    <!-- Decorative Swirls inside the map -->
    <!-- Main swirl 1 -->
    <path d="M624,352 C624,352 630,355 624,362 C618,369 628,372 628,372" fill="none" stroke="#1a3d40" stroke-width="1" stroke-linecap="round" />
    <path d="M624,352 C622,352 622,350 624,350 C626,350 626,352 624,352" fill="none" stroke="#1a3d40" stroke-width="1" stroke-linecap="round" />

    <!-- Main swirl 2 -->
    <path d="M618,358 C618,358 624,361 618,368" fill="none" stroke="#1a3d40" stroke-width="1" stroke-linecap="round" />
    <path d="M618,358 C616,358 616,356 618,356 C620,356 620,358 618,358" fill="none" stroke="#1a3d40" stroke-width="1" stroke-linecap="round" />

    <!-- Swirl 3 bottom right -->
    <path d="M628,368 C628,368 632,369 630,372" fill="none" stroke="#1a3d40" stroke-width="1" stroke-linecap="round" />
    <path d="M630,372 C632,372 632,374 630,374 C628,374 628,372 630,372" fill="none" stroke="#1a3d40" stroke-width="1" stroke-linecap="round" />
  </g>
</svg>
