<?xml version="1.0" encoding="utf-8"?>
<svg version="1.1" xmlns="http://www.w3.org/2000/svg" width="1780" height="350" xmlns:bx="https://boxy-svg.com">
  <g>
    <path d="M 139.02 14.982 C 140.93 14.723 140.93 14.723 143.29 14.848 C 144.15 14.891 145.01 14.933 145.9 14.976 C 147.26 15.065 147.26 15.065 148.64 15.156 C 149.96 15.217 149.96 15.217 151.3 15.279 C 159.67 15.743 167.45 17.308 175.4 19.98 C 177.77 20.583 179.67 20.771 182.11 20.521 C 183.33 19.378 183.33 19.378 184.57 18.213 C 187.05 15.956 188.86 15.479 192.19 15.328 C 195.3 15.508 197.53 15.948 200.1 17.751 C 203.03 21.473 202.74 23.274 202.28 27.906 C 202.88 27.506 203.5 27.106 204.12 26.694 C 204.93 26.18 205.74 25.666 206.58 25.136 C 207.37 24.622 208.17 24.108 208.99 23.579 C 211.66 22.256 213.09 21.87 216.03 22.367 C 217.65 23.716 217.65 23.716 219.01 25.482 C 219.47 26.06 219.93 26.639 220.4 27.235 C 222.34 29.97 222.55 31.623 222.5 34.944 C 222.49 35.699 222.48 36.454 222.47 37.231 C 222.47 38.098 222.47 38.098 222.45 38.983 C 223.14 39.06 223.85 39.135 224.56 39.214 C 227.63 40.072 228.19 40.886 229.78 43.599 C 230.18 46.213 230.24 48.75 230.32 51.391 C 230.75 54.102 231.32 54.874 233.45 56.522 C 234.07 56.865 234.69 57.208 235.34 57.561 C 238.15 60.302 238.45 63.784 238.95 67.6 C 238.95 68.818 238.95 70.037 238.95 71.292 C 239.75 71.197 240.53 71.102 241.35 71.004 C 244.45 71.292 244.45 71.292 246.82 73.571 C 250.5 76.816 254.3 76.626 259 76.658 C 259.81 76.681 260.61 76.704 261.45 76.728 C 263.42 76.782 265.4 76.809 267.37 76.831 C 267.67 77.745 267.97 78.658 268.29 79.6 C 268.89 79.6 269.5 79.6 270.12 79.6 C 270.58 81.62 270.58 81.62 270.12 84.216 C 268.49 85.355 268.49 85.355 266.45 86.466 C 263.32 88.154 263.32 88.154 262.04 91.428 C 262.77 94.292 263.44 95.364 265.13 97.659 C 268.15 102.074 267.53 106.058 266.99 111.209 C 266.45 113.755 266.45 113.755 264.62 115.601 C 263.09 116.217 261.57 116.832 260.03 117.448 C 257.58 119.923 257.84 121.502 257.62 124.948 C 257.56 125.96 257.49 126.971 257.42 128.013 C 257.38 128.791 257.33 129.569 257.28 130.371 C 254.1 130.828 254.1 130.828 250.87 131.294 C 251.74 133.729 252.54 135.707 254.13 137.756 C 257.29 142.187 256.62 148.21 256.37 153.449 C 256.03 154.734 256.03 154.734 255.68 156.046 C 255.19 158.291 255.19 158.291 257.23 160.488 C 257.85 161.212 258.48 161.935 259.12 162.68 C 259.12 163.594 259.12 164.508 259.12 165.45 C 259.78 165.297 260.44 165.145 261.13 164.988 C 263.7 165.45 263.7 165.45 264.93 166.997 C 265.71 168.297 266.45 169.615 267.18 170.949 C 268.28 172.826 269.5 174.08 271.04 175.604 C 272.15 179.269 272.03 182.873 271.95 186.681 C 272.97 186.609 272.97 186.609 274.02 186.536 C 276.9 186.702 277.97 187.31 280.27 189.007 C 280.94 189.494 281.61 189.981 282.3 190.484 C 282.99 191 283.68 191.516 284.38 192.047 C 285.42 192.804 285.42 192.804 286.48 193.578 C 289.04 195.447 291.58 197.325 294.06 199.301 C 296.22 200.83 297.32 200.743 299.91 200.528 C 302.4 200.466 303.84 200.444 306.16 201.394 C 308.18 203.873 309.13 206.543 310.33 209.496 C 311.93 212.729 314.26 214.689 316.88 217.144 C 317.18 218.058 317.48 218.972 317.79 219.913 C 319 220.559 320.22 221.175 321.46 221.76 C 324.92 228.715 321.57 240.151 320.54 247.607 C 324.48 247.607 328.41 247.607 332.46 247.607 C 332.55 250.093 332.55 250.093 332.64 252.629 C 332.75 254.821 332.86 257.012 332.98 259.204 C 333.01 260.294 333.04 261.384 333.08 262.509 C 333.43 269.605 333.43 269.605 337.39 275.192 C 337.96 275.67 338.54 276.149 339.13 276.642 C 341.73 278.99 342.58 281.563 343.86 284.82 C 344.54 286.499 344.54 286.499 345.24 288.213 C 346.21 290.993 346.21 290.993 346.21 292.839 C 340.07 292.947 334.09 292.733 327.99 292.028 C 327.35 291.991 326.7 291.954 326.04 291.916 C 325.74 292.221 325.44 292.525 325.13 292.839 C 323.47 292.809 321.8 292.745 320.14 292.667 C 314.52 292.653 309.64 293.187 304.96 296.532 C 303.16 299.145 302.24 301.824 301.29 304.84 C 300.37 306.993 299.46 309.148 298.54 311.302 C 298.29 311.925 298.04 312.549 297.78 313.191 C 294.43 321.249 289.91 328.421 284.21 335.015 C 283.56 335.779 282.91 336.544 282.23 337.332 C 277.44 340.034 272.71 339.306 267.37 338.995 C 265.68 338.908 264 338.821 262.32 338.735 C 256.34 338.413 250.36 338.041 244.39 337.668 C 241.33 337.479 238.28 337.292 235.23 337.106 C 233.23 336.984 231.23 336.859 229.23 336.732 C 224.56 336.44 219.9 336.187 215.22 336.049 C 214.38 336.021 213.54 335.992 212.68 335.963 C 211.13 335.914 209.58 335.878 208.03 335.856 C 201.5 335.636 198.19 332.983 193.62 328.342 C 190.68 325.573 187.32 323.302 184.05 320.937 C 177.67 316.248 171.36 311.471 165.09 306.629 C 158.39 301.457 151.61 296.414 144.75 291.465 C 140.79 288.609 136.9 285.693 133.06 282.685 C 127.82 278.587 122.47 274.671 117.08 270.775 C 112.73 267.621 108.39 264.442 104.07 261.23 C 102.61 260.149 101.15 259.071 99.7 257.997 C 96.06 255.312 92.46 252.589 88.93 249.759 C 81.25 243.713 75.31 239.978 65.56 238.809 C 61.81 238.352 58.54 237.515 54.9 236.472 C 50.01 235.107 45.21 234.124 40.2 233.363 C 34.25 232.299 28.43 230.681 22.58 229.144 C 23.09 226.029 23.56 224.453 25.34 221.76 C 23.48 221.85 21.63 221.94 19.78 222.03 C 19.19 221.94 18.61 221.852 18 221.76 C 16.03 218.785 15.9 217.81 16.17 214.375 C 16.47 214.07 16.77 213.765 17.08 213.452 C 16.64 208.179 15.17 203.402 13.53 198.394 C 13.03 196.835 12.54 195.275 12.04 193.716 C 11.8 192.977 11.57 192.238 11.32 191.477 C 9.42 185.572 7.67 179.941 7 173.758 C 14 168.604 21.33 164.112 28.83 159.738 C 30.01 159.045 31.19 158.352 32.38 157.659 C 38.46 154.085 44.58 150.539 50.7 147.021 C 52.26 146.121 53.83 145.22 55.39 144.312 C 59.03 142.201 62.68 140.163 66.43 138.25 C 74.23 134.175 79.56 130.614 83.08 122.103 C 84.55 117.076 84.56 111.889 84.61 106.683 C 84.7 100.429 86.05 96.189 88.58 90.465 C 90.25 85.873 89.59 81.844 87.64 77.458 C 85.35 71 85.87 61.826 88.6 55.599 C 90.9 51.563 92.82 48.771 97.13 46.888 C 100.51 46.368 100.51 46.368 102.27 46.489 C 106.15 46.588 108.25 45.859 111.32 43.395 C 114.16 40.658 116.82 37.751 119.48 34.829 C 120.87 33.322 122.25 31.821 123.65 30.332 C 124.93 28.986 126.17 27.619 127.42 26.252 C 130.15 23.96 131.85 23.53 135.35 23.29 C 135.75 22.005 135.75 22.005 136.15 20.694 C 137.19 17.751 137.19 17.751 139.02 14.982 Z M 141.77 23.29 C 141.16 25.118 140.56 26.946 139.94 28.829 C 138.94 28.886 137.93 28.943 136.9 29.002 C 133.43 29.356 133.43 29.356 132.14 31.872 C 131.69 32.696 131.24 33.519 130.77 34.367 C 128.38 37.137 125.78 39.686 123.2 42.272 C 122.19 43.317 122.19 43.317 121.15 44.383 C 114.79 50.793 110.14 54.14 100.93 54.243 C 98.59 54.473 98.59 54.473 97.12 56.263 C 93.64 62.427 93.42 67.985 94.1 74.984 C 94.88 77.73 95.82 80.274 96.96 82.889 C 97.86 85.429 98.09 87.075 97.76 89.754 C 96.92 91.306 96.01 92.823 95.07 94.313 C 92.1 99.908 91.92 104.531 91.91 110.813 C 91.89 119.465 90.21 125.158 85.59 132.401 C 83.77 134.875 83.77 134.875 84.01 137.756 C 83.36 138.004 82.71 138.252 82.03 138.508 C 79.36 139.629 76.9 140.928 74.38 142.351 C 72.94 143.159 72.94 143.159 71.48 143.984 C 69.96 144.843 69.96 144.843 68.43 145.718 C 67.39 146.303 66.35 146.889 65.29 147.493 C 59.22 150.936 53.25 154.469 47.36 158.201 C 43.48 160.598 39.5 162.812 35.52 165.04 C 28.99 168.717 22.57 172.608 16.17 176.527 C 16.71 181.157 17.7 185.288 19.15 189.739 C 20.5 193.916 21.78 198.082 22.83 202.349 C 23.02 203.103 23.21 203.859 23.4 204.636 C 23.77 206.104 24.12 207.577 24.46 209.054 C 24.98 211.326 24.98 211.326 26.25 214.375 C 28.55 215.852 28.55 215.852 30.84 216.221 C 31.14 218.353 31.44 220.486 31.75 222.683 C 33.5 223.122 33.5 223.122 35.29 223.571 C 39.68 224.669 44.06 225.769 48.43 226.869 C 50.32 227.343 52.21 227.816 54.1 228.29 C 56.83 228.974 59.55 229.66 62.28 230.345 C 63.12 230.553 63.94 230.761 64.8 230.975 C 67.23 231.587 69.66 232.21 72.09 232.837 C 72.99 233.066 73.89 233.295 74.81 233.53 C 75.7 233.765 76.59 233.998 77.51 234.239 C 78.32 234.449 79.12 234.657 79.95 234.872 C 83.6 236.074 86.43 238.128 89.46 240.453 C 90.11 240.934 90.76 241.414 91.43 241.909 C 93.55 243.485 95.65 245.082 97.76 246.684 C 99.27 247.813 100.76 248.942 102.26 250.07 C 104.58 251.818 106.9 253.568 109.21 255.327 C 114.19 259.11 119.21 262.818 124.29 266.473 C 131.25 271.495 138.07 276.693 144.87 281.937 C 149.55 285.545 154.25 289.113 159.01 292.609 C 169.62 300.395 180.08 308.373 190.53 316.379 C 191.35 317.009 192.17 317.64 193.03 318.289 C 193.81 318.887 194.58 319.484 195.38 320.1 C 196.48 320.939 196.48 320.939 197.61 321.796 C 199.53 323.302 199.53 323.302 201.89 325.516 C 205.07 327.635 208.2 327.787 211.9 328.033 C 212.71 328.099 213.53 328.163 214.36 328.231 C 217.36 328.459 220.36 328.652 223.36 328.841 C 224.31 328.902 224.31 328.902 225.27 328.964 C 234.65 329.566 244.04 330.081 253.43 330.507 C 255.78 330.614 258.14 330.736 260.48 330.871 C 270.84 331.85 270.84 331.85 280.09 328.033 C 281.66 326.262 281.66 326.262 282.96 324.225 C 283.44 323.513 283.93 322.8 284.43 322.065 C 285.89 319.758 287.19 317.413 288.46 314.994 C 288.84 314.293 289.22 313.592 289.62 312.87 C 291.48 309.322 293.06 305.811 294.29 301.995 C 294.51 301.332 294.73 300.669 294.96 299.987 C 295.39 298.672 295.8 297.35 296.18 296.019 C 297.06 293.319 297.85 291.388 300.35 289.943 C 302.39 289.172 302.39 289.172 305.87 288.224 C 305.87 287.614 305.87 287.005 305.87 286.377 C 311.81 285.287 317.66 285.35 323.7 285.397 C 324.71 285.401 325.73 285.405 326.79 285.409 C 329.29 285.42 331.79 285.435 334.3 285.454 C 333.58 282.132 332.49 280.394 330.22 277.839 C 329.66 277.187 329.1 276.534 328.51 275.862 C 327.1 274.165 327.1 274.165 325.13 274.377 C 325.13 267.98 325.13 261.583 325.13 254.992 C 320.89 254.992 316.66 254.992 312.29 254.992 C 312.38 252.976 312.47 250.959 312.58 248.942 C 312.65 247.237 312.73 245.531 312.8 243.825 C 313 239.42 313.4 235.267 314.24 230.933 C 314.73 226.43 312.99 224.179 310.28 220.664 C 308.19 218.087 308.19 218.087 305.87 216.221 C 304.66 216.221 303.45 216.221 302.21 216.221 C 302.21 214.088 302.21 211.956 302.21 209.759 C 301.62 209.756 301.03 209.754 300.43 209.752 C 295.13 209.513 292.39 208.8 288.6 205.111 C 282.85 199.85 275.51 193.443 267.42 193.489 C 265.32 193.694 265.32 193.694 263.7 194.066 C 263.7 189.143 263.7 184.219 263.7 179.296 C 262.93 177.498 262.93 177.498 261.87 175.835 C 261.26 174.845 260.66 173.855 260.03 172.834 C 259.43 172.834 258.82 172.834 258.2 172.834 C 258.2 171.921 258.2 171.007 258.2 170.065 C 257.51 169.85 256.84 169.634 256.13 169.413 C 251.7 167.306 249.46 163.244 247.2 158.988 C 246.59 154.751 247.08 152.513 249.03 148.834 C 249.49 146.526 249.49 146.526 249.03 144.218 C 247.85 142.947 246.62 141.72 245.37 140.526 C 243.27 136.976 242.16 134.498 242.62 130.371 C 243.95 128.298 243.95 128.298 245.71 126.275 C 248.35 123.069 249.69 120.537 250.87 116.525 C 251.51 115.725 252.15 114.926 252.81 114.101 C 254.91 111.891 254.91 111.891 254.53 108.217 C 256.05 108.217 257.56 108.217 259.12 108.217 C 259.49 105.785 259.49 104.147 258.1 102.072 C 257.68 101.51 257.26 100.949 256.83 100.37 C 253.44 95.38 254.14 90.025 254.53 84.216 C 253.43 84.158 252.34 84.101 251.21 84.043 C 247.9 83.651 247.21 83.299 244.5 80.985 C 240.87 78.001 238.01 77.866 233.45 77.754 C 233.36 76.976 233.26 76.197 233.17 75.395 C 232.97 73.879 232.97 73.879 232.76 72.33 C 232.57 70.82 232.57 70.82 232.37 69.28 C 231.9 66.557 231.9 66.557 229.76 65.598 C 229.16 65.344 228.56 65.091 227.95 64.83 C 227.55 63.259 227.55 63.259 227.14 61.657 C 226.43 58.132 226.43 58.132 223.24 56.58 C 222.38 56.256 221.51 55.932 220.61 55.599 C 220.61 51.639 220.61 47.679 220.61 43.599 C 218.8 42.685 216.98 41.771 215.11 40.829 C 215.11 37.783 215.11 34.737 215.11 31.598 C 211.54 30.259 211.54 30.259 208.94 32.031 C 208.03 32.65 207.12 33.268 206.17 33.906 C 200.16 37.656 200.16 37.656 196.09 37.08 C 195.11 36.793 194.13 36.508 193.11 36.214 C 193.11 32.253 193.11 28.293 193.11 24.213 C 188.87 24.846 188.87 24.846 186.66 26.099 C 180.87 28.931 173.88 26.62 168.08 24.891 C 159.58 22.563 150.51 23.192 141.77 23.29 Z" style="fill: rgb(0, 6, 8); stroke-width: 1px;"/>
    <path d="M 203.83 89.565 C 210.61 94.765 214.61 99.84 216.95 108.221 C 218.05 121.334 215.58 130.003 207.33 140.202 C 205.2 142.645 205.2 142.645 202.97 144.644 C 202.44 145.124 201.92 145.603 201.38 146.098 C 187.05 158.432 169.25 158.907 151.4 157.969 C 143.26 157.282 135.22 155.836 127.18 154.443 C 101.45 150.001 75.59 147.47 51.69 160.676 C 50 161.522 50 161.522 48.26 161.522 C 49.5 157.739 52.19 156.788 55.47 154.972 C 56.41 154.439 56.41 154.439 57.38 153.898 C 62.91 150.866 68.48 148.343 74.48 146.421 C 75.35 146.138 76.2 145.855 77.1 145.564 C 91.08 141.783 106.87 142.696 120.9 145.717 C 125.48 146.666 130.08 147.193 134.72 147.729 C 137.56 148.069 140.37 148.589 143.18 149.12 C 149.16 150.146 155.01 150.269 161.06 150.252 C 162.63 150.273 162.63 150.273 164.22 150.295 C 173.37 150.3 181.11 148.534 189.25 144.311 C 190.24 143.809 191.22 143.308 192.25 142.791 C 196.68 140.141 200.3 137.218 203.13 132.762 C 203.74 131.817 203.74 131.817 204.37 130.854 C 208.61 123.192 209.51 115.966 208.21 107.333 C 206.06 101.397 201.32 97.089 195.97 94.007 C 190.91 92.284 184.46 92.204 179.46 94.174 C 174.73 96.974 171.61 100.271 169.75 105.555 C 169.08 109.551 168.96 112.924 170.87 116.56 C 173.34 120.03 173.34 120.03 176.74 122.434 C 180.5 122.824 183.68 122.834 187.18 121.325 C 189.15 119.618 189.97 118.732 190.72 116.216 C 190.91 112.914 190.89 110.477 189.86 107.333 C 188.99 107.039 188.12 106.746 187.24 106.444 C 187.24 105.858 187.24 105.272 187.24 104.667 C 184.35 104.961 181.47 105.253 178.49 105.555 C 178.78 104.676 179.06 103.797 179.36 102.891 C 183.11 101.625 186.3 101.175 189.99 102.87 C 193.28 104.846 195.48 106.261 196.85 109.998 C 197.66 115.118 197.55 119.451 194.55 123.767 C 191.39 127.391 188.77 129.302 183.91 129.784 C 178.54 129.961 174.32 129.846 169.75 126.876 C 167.72 124.666 166.1 122.316 164.51 119.769 C 163.96 118.963 163.42 118.158 162.86 117.327 C 160.77 111.173 160.99 104.979 163.69 99.06 C 167.29 92.636 171.57 88.358 178.49 86.012 C 187.52 83.822 196.12 84.086 203.83 89.565 Z" style="fill: rgb(195, 239, 239); stroke-width: 1px;"/>
    <path d="M 129.85 169.142 C 129.85 169.751 129.85 170.361 129.85 170.988 C 131.05 171.344 131.05 171.344 132.28 171.706 C 143.47 175.819 153.51 185.311 162.65 192.921 C 178.89 206.416 196.35 218.606 218.28 218.381 C 227.12 217.528 234.9 213.683 240.78 206.99 C 241.41 206.283 241.41 206.283 242.04 205.562 C 245.6 200.545 245.04 194.412 244.45 188.527 C 243.35 183.332 240.48 180.437 236.2 177.45 C 231.32 174.761 227 173.803 221.53 174.681 C 217.18 176.28 213.59 178.846 211.44 182.989 C 210.74 188.166 210.91 192.611 212.7 197.528 C 215.87 200.259 217.99 200.163 222.04 200.07 C 224.7 199.517 226.03 198.765 227.95 196.835 C 228.75 193.685 228.53 190.516 226.97 187.662 C 224.34 186.209 221.73 186.039 218.78 185.758 C 219.08 184.844 219.38 183.93 219.7 182.989 C 224.15 182.517 227 182.471 230.7 185.181 C 233.32 187.715 233.91 189.568 234.02 193.201 C 233.61 198.5 231.88 201.002 228.46 204.971 C 224.93 207.784 221.13 207.575 216.8 207.376 C 210.78 206.484 207.55 202.41 204.11 197.759 C 202.35 192.429 202.2 185.619 204.28 180.335 C 207.88 174.097 211.8 169.539 218.78 167.296 C 221.32 167.024 223.69 166.853 226.22 166.834 C 227.15 166.826 227.15 166.826 228.08 166.817 C 236.13 167.023 241.33 170.739 246.97 176.116 C 252.39 182.054 253.28 187.851 252.99 195.782 C 252.11 204.539 248.07 212.507 241.35 218.241 C 229.58 226.337 217.55 227.672 203.76 225.395 C 187.9 221.856 173.14 212.443 161.03 201.752 C 154.58 196.061 147.71 190.926 140.85 185.758 C 140.05 185.141 139.24 184.523 138.4 183.887 C 127.34 175.724 115.7 169.522 102.35 166.373 C 101.56 166.111 100.77 165.849 99.95 165.58 C 91.54 162.793 82.71 162.931 73.93 162.68 C 85.56 150.964 117.44 163.253 129.85 169.142 Z" style="fill: rgb(195, 239, 239); stroke-width: 1px;"/>
    <path d="M 135.81 189.97 C 147.33 199.088 158 209.538 167.44 220.836 C 168.21 221.748 168.98 222.66 169.78 223.598 C 176.56 231.624 176.56 231.624 179.34 235.126 C 184.43 241.508 189.83 247.425 195.57 253.204 C 196.01 253.646 196.45 254.089 196.9 254.545 C 203.73 261.377 210.52 267.513 218.78 272.531 C 219.76 273.139 220.74 273.747 221.76 274.373 C 234.61 281.849 249.97 285.721 264.76 282.216 C 267.44 281.365 269.96 280.287 272.5 279.079 C 274.7 278.069 274.7 278.069 277.45 278.069 C 277.45 278.679 277.45 279.288 277.45 279.916 C 275.64 280.787 273.82 281.651 272.01 282.512 C 271 282.994 269.99 283.476 268.95 283.973 C 262.14 287.011 256.18 288.703 248.69 288.57 C 247.93 288.562 247.17 288.554 246.38 288.546 C 240.53 288.405 235.27 287.603 229.78 285.454 C 229.1 285.198 228.42 284.94 227.73 284.675 C 217.98 280.631 209.32 274.81 201.36 267.915 C 200.68 267.334 200 266.751 199.3 266.152 C 188.91 256.992 178.82 247.128 170.29 236.176 C 168.04 233.358 165.64 230.703 163.19 228.049 C 162.55 227.348 162.55 227.348 161.89 226.633 C 161.48 226.179 161.06 225.725 160.63 225.257 C 157.16 221.47 153.75 217.622 150.5 213.639 C 147.02 209.411 143.21 205.876 139.02 202.374 C 137.98 201.489 137.98 201.489 136.93 200.586 C 125.38 190.931 112.23 183.326 97.77 179.166 C 95.93 178.637 94.1 178.052 92.3 177.414 C 76.27 172.312 55.34 172.905 39.09 176.527 C 37.56 176.835 36.04 177.144 34.5 177.45 C 34.81 176.536 35.11 175.622 35.42 174.681 C 38.77 173.243 42.37 172.559 45.91 171.739 C 46.96 171.491 48.03 171.244 49.12 170.99 C 79.87 164.415 110.55 171.477 135.81 189.97 Z" style="fill: rgb(195, 239, 239); stroke-width: 1px;"/>
    <path d="M 283.87 227.298 C 288.35 231.272 290.88 236.163 291.5 242.086 C 291.83 251.622 289.75 257.25 283.64 264.454 C 276.04 272.502 268.48 275.404 257.53 275.698 C 233.15 275.763 212.32 262.279 195.45 245.397 C 189.81 239.521 184.68 233.241 180.27 226.375 C 180.58 225.766 180.88 225.157 181.19 224.529 C 181.59 224.951 182 225.374 182.42 225.808 C 199.87 243.911 223.53 266.303 250.27 267.27 C 252.01 267.283 253.76 267.287 255.51 267.281 C 256.39 267.296 257.26 267.311 258.16 267.325 C 266.36 267.332 271.59 265.231 277.64 259.55 C 281.84 255.001 283.16 250.916 283.41 244.722 C 283.23 240.021 282.65 237.229 279.29 233.76 C 275.87 230.905 272.7 228.875 268.17 228.683 C 262.74 229.388 258.9 231.298 255.45 235.606 C 254.91 238.529 254.91 238.529 255.05 241.665 C 255.05 242.712 255.05 243.761 255.06 244.841 C 255.25 247.561 255.25 247.561 256.6 249.341 C 258.62 250.65 259.93 250.746 262.33 250.722 C 263.03 250.73 263.75 250.736 264.47 250.743 C 266.93 250.287 267.74 249.611 269.2 247.607 C 269.82 244.416 269.82 244.416 269.2 241.145 C 267.04 238.863 267.04 238.863 264.62 237.452 C 268.19 237.034 269.73 237.189 272.75 239.241 C 275.03 242.541 275.37 244.392 275.15 248.328 C 274.25 252.428 271.73 254.68 268.46 257.184 C 264.54 258.312 260.71 258.075 256.77 257.299 C 252.97 254.942 250.21 252.567 248.12 248.53 C 247.17 242.619 246.81 237.04 249.76 231.708 C 251.55 229.44 253.28 227.516 255.45 225.626 C 256.06 225.086 256.66 224.547 257.28 223.992 C 265.48 218.144 276.57 221.953 283.87 227.298 Z" style="fill: rgb(195, 239, 239); stroke-width: 1px;"/>
    <path d="M 63.84 179.296 C 73.39 179.552 82.12 180.735 91.31 183.387 C 93.2 183.916 95.08 184.39 96.98 184.856 C 114.42 189.319 133.63 199.526 143.18 215.345 C 145.12 219.305 146.03 222.91 146.35 227.298 C 146.42 228.022 146.48 228.746 146.55 229.491 C 146.76 234.322 145.88 237.728 143.6 242.068 C 143.11 243.02 142.62 243.972 142.11 244.953 C 139.18 248.526 135.78 250.225 131.68 252.222 C 130.78 252.679 130.78 252.679 129.85 253.145 C 124.05 253.709 118.41 253.505 113.35 250.376 C 109.44 246.758 106.3 242.843 105.7 237.431 C 105.58 227.023 105.58 227.023 109.68 222.683 C 110.48 221.807 111.27 220.931 112.08 220.029 C 116.28 217.371 119.52 217.346 124.35 218.067 C 128.63 219.582 131.27 221.452 133.52 225.452 C 133.81 228.251 133.74 230.957 133.52 233.76 C 132.91 233.76 132.31 233.76 131.68 233.76 C 131.38 234.674 131.08 235.588 130.77 236.529 C 127.43 238.772 125.53 238.525 121.6 238.376 C 121.3 237.462 120.99 236.548 120.68 235.606 C 122.8 234.997 124.92 234.388 127.1 233.76 C 127.81 230.663 127.81 230.663 128.02 227.298 C 126.6 225.28 125.73 224.626 123.32 224.128 C 120.01 224.123 117.65 224.203 114.67 225.741 C 112.5 229.816 112.7 233.866 113.35 238.376 C 114.82 241.399 116.02 243.124 118.62 245.184 C 123.06 246.426 126.74 246.229 131 244.665 C 134.86 242.1 137.19 238.919 139.02 234.683 C 140.07 228.339 138.38 222.692 135.35 217.144 C 133.43 214.438 131.29 212.091 128.93 209.759 C 128.25 209.052 128.25 209.052 127.54 208.331 C 123.2 204.226 118 201.451 112.82 198.577 C 111 197.567 109.19 196.54 107.41 195.469 C 102.01 192.249 96.4 190.391 90.43 188.527 C 89.09 188.069 87.75 187.608 86.41 187.143 C 79.02 184.667 71.55 182.297 63.84 181.143 C 63.84 180.533 63.84 179.924 63.84 179.296 Z" style="fill: rgb(195, 239, 239); stroke-width: 1px;"/>
    <path d="M 137.88 94.431 C 143.06 97.29 147.24 100.577 149.1 106.37 C 150.11 113.615 149.68 120.565 145.44 126.679 C 135.11 138.004 121.12 138.735 106.76 139.833 C 105.66 139.918 104.55 140.003 103.41 140.092 C 95.37 140.646 95.37 140.646 92.26 139.602 C 97.46 136.443 102.46 135.221 108.37 134.196 C 126.83 131.406 126.83 131.406 140.85 120.217 C 143.09 116.899 143.02 114.014 142.69 110.063 C 141.48 106.617 140.25 104.817 137.59 102.332 C 133.37 100.325 129.85 99.964 125.27 100.832 C 122.25 102.487 122.25 102.487 120.68 105.447 C 119.99 108.924 120.25 111.869 121.71 115.14 C 124.16 117.109 125.89 116.85 128.93 116.525 C 129.54 116.22 130.14 115.915 130.77 115.601 C 130.87 110.909 130.87 110.909 129.85 106.37 C 131.56 106.659 131.56 106.659 133.52 107.293 C 135.77 110.702 135.87 113.49 135.35 117.448 C 133.76 120.435 133.09 120.978 129.85 122.063 C 126.39 122.527 123.06 122.836 119.9 121.161 C 116.48 118.401 114.59 115.76 113.89 111.433 C 113.7 105.638 114.35 102.093 118.22 97.687 C 123.68 92.5 130.95 91.734 137.88 94.431 Z" style="fill: rgb(195, 239, 239); stroke-width: 1px;"/>
    <path d="M 65.68 153.449 C 65.68 154.058 65.68 154.668 65.68 155.295 C 66.58 155.905 67.49 156.514 68.43 157.142 C 67.87 157.288 67.32 157.434 66.74 157.585 C 61.46 159.066 56.78 161.005 51.95 163.614 C 50.09 164.526 50.09 164.526 48.26 164.526 C 49.3 161.38 49.67 161.197 52.41 159.669 C 53.38 159.121 53.38 159.121 54.38 158.56 C 55.41 158.001 55.41 158.001 56.45 157.43 C 57.13 157.046 57.81 156.662 58.51 156.267 C 63.58 153.449 63.58 153.449 65.68 153.449 Z" fill="#DEF0F9" style="stroke-width: 1px;"/>
    <path d="M 63.84 179.296 C 66.17 179.427 68.5 179.562 70.83 179.701 C 71.81 179.754 71.81 179.754 72.81 179.81 C 76.6 180.038 80.27 180.436 84.01 181.143 C 84.01 181.447 84.01 181.752 84.01 182.066 C 82.71 182.266 82.71 182.266 81.37 182.47 C 78.61 182.831 78.61 182.831 76.68 183.912 C 74.49 183.534 72.31 183.08 70.14 182.585 C 68.38 182.187 68.38 182.187 66.58 181.78 C 65.23 181.465 65.23 181.465 63.84 181.143 C 63.84 180.533 63.84 179.924 63.84 179.296 Z" fill="#D2EAF7" style="stroke-width: 1px;"/>
    <path d="M 53.76 171.911 C 52.85 172.521 51.94 173.13 51.01 173.758 C 51.01 174.062 51.01 174.367 51.01 174.681 C 49.8 174.864 49.8 174.864 48.56 175.052 C 47.5 175.215 46.43 175.379 45.33 175.547 C 43.75 175.788 43.75 175.788 42.14 176.033 C 39.58 176.448 37.04 176.916 34.5 177.45 C 34.81 176.536 35.11 175.622 35.42 174.681 C 37.83 173.834 40.11 173.18 42.58 172.604 C 43.25 172.432 43.91 172.261 44.6 172.085 C 48 171.257 50.42 170.875 53.76 171.911 Z" fill="#D0EAF7" style="stroke-width: 1px;"/>
    <path d="M 180.27 224.529 C 184.07 227.65 187.43 230.682 190.36 234.683 C 189.75 234.683 189.15 234.683 188.52 234.683 C 188.22 235.292 187.92 235.902 187.61 236.529 C 186.38 234.88 185.16 233.225 183.94 231.568 C 183.26 230.646 182.58 229.726 181.88 228.777 C 180.27 226.375 180.27 226.375 180.27 224.529 Z" fill="#DCEEF8" style="stroke-width: 1px;"/>
    <path d="M 277.45 278.069 C 277.45 278.679 277.45 279.288 277.45 279.916 C 275.97 280.689 274.47 281.457 272.98 282.223 C 272.16 282.652 271.32 283.08 270.47 283.521 C 268.29 284.531 268.29 284.531 266.45 284.531 C 266.45 283.922 266.45 283.313 266.45 282.685 C 265.85 282.38 265.24 282.076 264.62 281.762 C 266.24 281.141 267.86 280.527 269.49 279.916 C 270.39 279.573 271.29 279.231 272.23 278.877 C 274.7 278.069 274.7 278.069 277.45 278.069 Z" fill="#D9EEF8" style="stroke-width: 1px;"/>
    <path d="M 65.68 153.449 C 65.68 154.058 65.68 154.668 65.68 155.295 C 66.58 155.905 67.49 156.514 68.43 157.142 C 66 157.751 63.58 158.36 61.09 158.988 C 61.39 158.074 61.7 157.16 62.01 156.218 C 61.4 155.914 60.8 155.609 60.17 155.295 C 63.61 153.449 63.61 153.449 65.68 153.449 Z" fill="#D2EBF7" style="stroke-width: 1px;"/>
    <path d="M 213.28 170.065 C 213.88 170.37 214.49 170.674 215.11 170.988 C 212.39 173.73 209.67 176.472 206.86 179.296 C 206.86 175.644 208.15 174.58 210.53 171.911 C 211.44 171.302 212.34 170.693 213.28 170.065 Z" fill="#E2F1F8" style="stroke-width: 1px;"/>
    <path d="M 121.6 95.293 C 122.2 95.598 122.81 95.902 123.43 96.216 C 121.01 98.653 118.59 101.09 116.1 103.601 C 116.1 99.968 117.41 98.869 119.76 96.216 C 120.37 95.911 120.98 95.607 121.6 95.293 Z" fill="#E1F0F9" style="stroke-width: 1px;"/>
    <path d="M 127.27 100.255 C 128.09 100.54 128.09 100.54 128.93 100.832 C 126.23 102.494 123.53 104.064 120.68 105.447 C 122.06 102.258 123.35 99.577 127.27 100.255 Z" fill="#83C8EF" style="stroke-width: 1px;"/>
    <text style="fill: rgb(3, 3, 3); font-family: &quot;Anta&quot;; font-size: 183px; word-spacing: -40.4px; white-space: pre;" x="346.68" y="218.903">IRAQ Air Quality</text>
  </g>
  <defs>
    <style bx:fonts="Anta">@import url(https://fonts.googleapis.com/css2?family=Anta%3Aital%2Cwght%400%2C400&amp;display=swap);</style>
    <bx:export>
      <bx:file format="svg"/>
    </bx:export>
  </defs>
</svg>